<svg xmlns="http://www.w3.org/2000/svg" viewBox="0,0,1280,1280" preserveAspectRatio="xMinYMin meet" height="100%" width="100%" style="font: 10px sans-serif;">
    <rect stroke-width="2"  stroke="#5B81A5" width="100%" height="100%" fill="none"/>
    <g class="container" transform="translate(47, 200) scale(1)"><g id="root-components"><g id="__shadowRoot" x="0" y="0" transform="translate(0,0)"></g><g id="eu-west-3a" x="960" y="258" transform="translate(960,258)" class="component
        component-DefaultModel
        aws_availability_zones"><svg version="1.1" xmlns="http://www.w3.org/2000/svg" class="template" width="110" height="80" overflow="visible" id="svg-eu-west-3a">
    <rect class="component-background component-hitbox" stroke="#224F7C" fill="#FFFFFF" width="100%" height="100%" ry="4" rx="4"></rect>

    <svg x="50%" y="50%" overflow="visible">
        <g class="component-icon" transform="translate(-22 -34)"><!--?xml version="1.0" encoding="UTF-8"?-->
<svg width="44px" height="44px" viewBox="0 0 64 64" version="1.1" xmlns="http://www.w3.org/2000/svg" xmlns:xlink="http://www.w3.org/1999/xlink">
    <!-- Generator: Sketch 64 (93537) - https://sketch.com -->
    <title>Icon-Architecture/48/Arch_AWS-Local-Zones_48</title>
    <desc>Created with Sketch.</desc>
    <defs>
        <linearGradient x1="0%" y1="100%" x2="100%" y2="0%" id="linearGradient-1">
            <stop stop-color="#C8511B" offset="0%"></stop>
            <stop stop-color="#FF9900" offset="100%"></stop>
        </linearGradient>
    </defs>
    <g id="Icon-Architecture/48/Arch_AWS-Local-Zones_48" stroke="none" stroke-width="1" fill="none" fill-rule="evenodd">
        <g id="Icon-Architecture-BG/48/Compute" fill="url(#linearGradient-1)">
            <rect id="Rectangle" x="0" y="0" width="64" height="64"></rect>
        </g>
        <path d="M33.9988981,26.98755 C33.9988981,26.1601823 33.3257925,25.4868831 32.4986629,25.4868831 C31.6715332,25.4868831 30.9984277,26.1601823 30.9984277,26.98755 C30.9984277,27.8149177 31.6715332,28.488217 32.4986629,28.488217 C33.3257925,28.488217 33.9988981,27.8149177 33.9988981,26.98755 L33.9988981,26.98755 Z M34.0018986,23.8391507 L45.2566631,11.3125834 L46.7448964,12.6491774 L35.4831308,25.1837483 C35.8041811,25.7129835 35.9992117,26.3252557 35.9992117,26.98755 C35.9992117,28.9184082 34.4289655,30.4891063 32.4986629,30.4891063 C30.5683602,30.4891063 28.998114,28.9184082 28.998114,26.98755 C28.998114,25.0566919 30.5683602,23.4859938 32.4986629,23.4859938 C33.0387475,23.4859938 33.5448269,23.6190529 34.0018986,23.8391507 L34.0018986,23.8391507 Z M37.5094485,16.072699 C35.9292007,15.3523788 34.2489373,14.9822143 32.4986629,14.9822143 C25.8776248,14.9822143 20.4967812,20.3646065 20.4967812,26.98755 C20.4967812,31.0593597 22.5371011,34.8210316 25.9376342,37.0420187 L27.0378067,35.3612717 C24.1973614,33.5104491 22.4970948,30.3790574 22.4970948,26.98755 C22.4970948,21.4751 26.9877989,16.9831036 32.4986629,16.9831036 C33.7788636,16.9831036 35.0090565,17.2232103 36.1692384,17.6834149 L37.5094485,16.072699 Z M41.3700538,22.3755002 C42.1101698,23.7961316 42.5002309,25.3868386 42.5002309,26.98755 C42.5002309,30.3790574 40.7999644,33.5104491 37.959519,35.3612717 L39.0596915,37.0420187 C42.4602247,34.8110271 44.5005446,31.0493553 44.5005446,26.98755 C44.5005446,24.8666074 43.9304552,22.7656736 42.8602874,20.9348599 L41.3700538,22.3755002 Z M29.3391675,32.0728101 C27.3098494,31.1914184 25.9976436,29.1915296 25.9976436,26.9775456 C25.9976436,26.0861494 26.2036759,25.2337706 26.6097396,24.4444197 L24.8324609,23.5280124 C24.2863753,24.5874833 23.99733,25.7800133 23.99733,26.9775456 C23.99733,29.9888839 25.7806096,32.7090929 28.5420425,33.9076256 L29.3391675,32.0728101 Z M38.7296398,25.3168075 C38.909668,25.8470431 38.9996821,26.4072921 38.9996821,26.9775456 C38.9996821,29.1485104 37.729483,31.1193864 35.7591741,32.0197866 C35.7291694,32.0397955 35.6891631,32.0598044 35.6591584,32.0698088 L35.6591584,32.0798133 L36.4592838,33.9106269 C39.2197166,32.7100934 40.9999957,29.9888839 40.9999957,26.9775456 C40.9999957,25.8270342 40.7299534,24.6765229 40.229875,23.6460649 L38.7296398,25.3168075 Z M48.9812471,26.7574478 C48.5011718,36.9319698 33.8788793,53.9395287 33.258782,54.6498444 C33.0687523,54.8699422 32.7887083,55 32.4986629,55 C32.2086174,55 31.9285735,54.8699422 31.7385437,54.6498444 C31.1184465,53.9395287 16.4961539,36.9319698 16.0160787,26.7574478 C15.9920749,26.2632281 15.9970757,25.7740107 16.0170788,25.2857937 C16.0240799,25.0656959 16.0410826,24.8485994 16.0580853,24.6315029 C16.0750879,24.4094042 16.0960912,24.1883059 16.1230955,23.9672076 C17.0162355,16.1407292 23.2792174,10.4311916 31.9485766,10.0100044 L32.9987413,10 C36.0092133,10.1500667 38.7096366,10.9004002 41.0700067,12.2309916 L39.6887902,13.7616719 C37.6884765,12.711205 35.4291223,12.1209426 32.9487334,12.0008893 L31.9985845,12.0008893 C26.7407601,12.2620053 22.4760915,14.7371054 20.0887172,18.5087817 L20.0967185,18.5137839 C19.7226598,19.1110494 19.3956085,19.7343264 19.1195653,20.3796132 C19.1195653,20.3806136 19.1185651,20.3826145 19.1175649,20.3836149 C18.7315044,21.2870165 18.4494602,22.235438 18.2624309,23.2128724 C18.2464284,23.2979102 18.2254251,23.3819475 18.2114229,23.4679858 C18.1714166,23.698088 18.1434122,23.9311916 18.1154078,24.1642952 C18.0894037,24.3843931 18.0654,24.6074922 18.0503976,24.8325923 C18.0363954,25.0116719 18.0223932,25.1927523 18.0163923,25.3738328 C18.0013899,25.8000222 17.995389,26.229213 18.0163923,26.6674077 C18.0283942,26.924522 18.0513978,27.1866385 18.0834028,27.4547577 C18.148413,27.9899956 18.2534295,28.5452423 18.3924513,29.1164962 C18.7405058,30.5461316 19.3065946,32.0778124 20.0187062,33.6515118 C20.5887956,34.9100711 21.2528997,36.1956425 21.9740128,37.4752112 C22.1530409,37.7963539 22.3380699,38.1164962 22.524099,38.4346376 C22.8971575,39.0729213 23.283218,39.7082036 23.6772798,40.3364829 C23.8733106,40.6506225 24.0713416,40.9627612 24.2703728,41.2728991 C25.0694981,42.5134504 25.8886265,43.7169853 26.6917524,44.8544909 C26.892784,45.1396176 27.0928153,45.4197421 27.2908464,45.6948644 C27.6869085,46.2461094 28.0769696,46.7793464 28.4560291,47.2885727 C30.1622966,49.5835927 31.6485296,51.4214095 32.4986629,52.4488662 C33.3487962,51.4214095 34.8350292,49.5835927 36.5412967,47.2885727 C36.9203561,46.7793464 37.3104173,46.2461094 37.7064794,45.6948644 C37.9045104,45.4197421 38.1045418,45.1396176 38.3055733,44.8544909 C39.7107936,42.8646065 41.1650216,40.6686305 42.4732267,38.4346376 C42.6592559,38.1164962 42.8442849,37.7963539 43.023313,37.4752112 C43.744426,36.1956425 44.4085301,34.9100711 44.9786195,33.6515118 C45.6907312,32.0778124 46.2568199,30.5461316 46.6048745,29.1164962 C46.7438963,28.5452423 46.8489127,27.9899956 46.9139229,27.4547577 C46.945928,27.1866385 46.9689316,26.924522 46.9809334,26.6674077 C47.1209554,23.716096 46.4008425,20.9048466 44.9006073,18.5137839 L44.9026076,18.511783 C44.8956065,18.4997777 44.8886054,18.4857715 44.8806041,18.4737661 L46.2808237,16.9130725 C47.9530859,19.3301467 48.917237,22.2494442 48.9932489,25.4808804 C49.0052508,25.9040685 49.0012502,26.3292574 48.9812471,26.7574478 L48.9812471,26.7574478 Z" id="AWS-Local-Zones_Icon_48_Squid" fill="#FFFFFF"></path>
    </g>
</svg></g>
    </svg>



    <svg width="100%" y="50%">
        <g class="component-informations" stroke="none" fill="#224F7C" font-family="Source Sans Pro" transform="translate(0 -40)">
            <text class="component-name" font-size="10" text-anchor="middle" x="50%" y="62">eu-west-3a</text>
            <text class="component-type" text-anchor="middle" font-size="8" x="50%" y="72">aws_availability_zones</text>
        </g>
    </svg>

    <g class="anchors" stroke="#5B81A5" fill="#FFFFFF" opacity="1">
        <circle cx="50%" cy="0%" r="3" anchor="top"></circle>
        <circle cx="100%" cy="50%" r="3" anchor="right"></circle>
        <circle cx="50%" cy="100%" r="3" anchor="bottom"></circle>
        <circle cx="0%" cy="50%" r="3" anchor="left"></circle>
    </g>
</svg>
</g><g id="eu-west-3b" x="958" y="356" transform="translate(958,356)" class="component
        component-DefaultModel
        aws_availability_zones"><svg version="1.1" xmlns="http://www.w3.org/2000/svg" class="template" width="110" height="80" overflow="visible" id="svg-eu-west-3b">
    <rect class="component-background component-hitbox" stroke="#224F7C" fill="#FFFFFF" width="100%" height="100%" ry="4" rx="4"></rect>

    <svg x="50%" y="50%" overflow="visible">
        <g class="component-icon" transform="translate(-22 -34)"><!--?xml version="1.0" encoding="UTF-8"?-->
<svg width="44px" height="44px" viewBox="0 0 64 64" version="1.1" xmlns="http://www.w3.org/2000/svg" xmlns:xlink="http://www.w3.org/1999/xlink">
    <!-- Generator: Sketch 64 (93537) - https://sketch.com -->
    <title>Icon-Architecture/48/Arch_AWS-Local-Zones_48</title>
    <desc>Created with Sketch.</desc>
    <defs>
        <linearGradient x1="0%" y1="100%" x2="100%" y2="0%" id="linearGradient-1">
            <stop stop-color="#C8511B" offset="0%"></stop>
            <stop stop-color="#FF9900" offset="100%"></stop>
        </linearGradient>
    </defs>
    <g id="Icon-Architecture/48/Arch_AWS-Local-Zones_48" stroke="none" stroke-width="1" fill="none" fill-rule="evenodd">
        <g id="Icon-Architecture-BG/48/Compute" fill="url(#linearGradient-1)">
            <rect id="Rectangle" x="0" y="0" width="64" height="64"></rect>
        </g>
        <path d="M33.9988981,26.98755 C33.9988981,26.1601823 33.3257925,25.4868831 32.4986629,25.4868831 C31.6715332,25.4868831 30.9984277,26.1601823 30.9984277,26.98755 C30.9984277,27.8149177 31.6715332,28.488217 32.4986629,28.488217 C33.3257925,28.488217 33.9988981,27.8149177 33.9988981,26.98755 L33.9988981,26.98755 Z M34.0018986,23.8391507 L45.2566631,11.3125834 L46.7448964,12.6491774 L35.4831308,25.1837483 C35.8041811,25.7129835 35.9992117,26.3252557 35.9992117,26.98755 C35.9992117,28.9184082 34.4289655,30.4891063 32.4986629,30.4891063 C30.5683602,30.4891063 28.998114,28.9184082 28.998114,26.98755 C28.998114,25.0566919 30.5683602,23.4859938 32.4986629,23.4859938 C33.0387475,23.4859938 33.5448269,23.6190529 34.0018986,23.8391507 L34.0018986,23.8391507 Z M37.5094485,16.072699 C35.9292007,15.3523788 34.2489373,14.9822143 32.4986629,14.9822143 C25.8776248,14.9822143 20.4967812,20.3646065 20.4967812,26.98755 C20.4967812,31.0593597 22.5371011,34.8210316 25.9376342,37.0420187 L27.0378067,35.3612717 C24.1973614,33.5104491 22.4970948,30.3790574 22.4970948,26.98755 C22.4970948,21.4751 26.9877989,16.9831036 32.4986629,16.9831036 C33.7788636,16.9831036 35.0090565,17.2232103 36.1692384,17.6834149 L37.5094485,16.072699 Z M41.3700538,22.3755002 C42.1101698,23.7961316 42.5002309,25.3868386 42.5002309,26.98755 C42.5002309,30.3790574 40.7999644,33.5104491 37.959519,35.3612717 L39.0596915,37.0420187 C42.4602247,34.8110271 44.5005446,31.0493553 44.5005446,26.98755 C44.5005446,24.8666074 43.9304552,22.7656736 42.8602874,20.9348599 L41.3700538,22.3755002 Z M29.3391675,32.0728101 C27.3098494,31.1914184 25.9976436,29.1915296 25.9976436,26.9775456 C25.9976436,26.0861494 26.2036759,25.2337706 26.6097396,24.4444197 L24.8324609,23.5280124 C24.2863753,24.5874833 23.99733,25.7800133 23.99733,26.9775456 C23.99733,29.9888839 25.7806096,32.7090929 28.5420425,33.9076256 L29.3391675,32.0728101 Z M38.7296398,25.3168075 C38.909668,25.8470431 38.9996821,26.4072921 38.9996821,26.9775456 C38.9996821,29.1485104 37.729483,31.1193864 35.7591741,32.0197866 C35.7291694,32.0397955 35.6891631,32.0598044 35.6591584,32.0698088 L35.6591584,32.0798133 L36.4592838,33.9106269 C39.2197166,32.7100934 40.9999957,29.9888839 40.9999957,26.9775456 C40.9999957,25.8270342 40.7299534,24.6765229 40.229875,23.6460649 L38.7296398,25.3168075 Z M48.9812471,26.7574478 C48.5011718,36.9319698 33.8788793,53.9395287 33.258782,54.6498444 C33.0687523,54.8699422 32.7887083,55 32.4986629,55 C32.2086174,55 31.9285735,54.8699422 31.7385437,54.6498444 C31.1184465,53.9395287 16.4961539,36.9319698 16.0160787,26.7574478 C15.9920749,26.2632281 15.9970757,25.7740107 16.0170788,25.2857937 C16.0240799,25.0656959 16.0410826,24.8485994 16.0580853,24.6315029 C16.0750879,24.4094042 16.0960912,24.1883059 16.1230955,23.9672076 C17.0162355,16.1407292 23.2792174,10.4311916 31.9485766,10.0100044 L32.9987413,10 C36.0092133,10.1500667 38.7096366,10.9004002 41.0700067,12.2309916 L39.6887902,13.7616719 C37.6884765,12.711205 35.4291223,12.1209426 32.9487334,12.0008893 L31.9985845,12.0008893 C26.7407601,12.2620053 22.4760915,14.7371054 20.0887172,18.5087817 L20.0967185,18.5137839 C19.7226598,19.1110494 19.3956085,19.7343264 19.1195653,20.3796132 C19.1195653,20.3806136 19.1185651,20.3826145 19.1175649,20.3836149 C18.7315044,21.2870165 18.4494602,22.235438 18.2624309,23.2128724 C18.2464284,23.2979102 18.2254251,23.3819475 18.2114229,23.4679858 C18.1714166,23.698088 18.1434122,23.9311916 18.1154078,24.1642952 C18.0894037,24.3843931 18.0654,24.6074922 18.0503976,24.8325923 C18.0363954,25.0116719 18.0223932,25.1927523 18.0163923,25.3738328 C18.0013899,25.8000222 17.995389,26.229213 18.0163923,26.6674077 C18.0283942,26.924522 18.0513978,27.1866385 18.0834028,27.4547577 C18.148413,27.9899956 18.2534295,28.5452423 18.3924513,29.1164962 C18.7405058,30.5461316 19.3065946,32.0778124 20.0187062,33.6515118 C20.5887956,34.9100711 21.2528997,36.1956425 21.9740128,37.4752112 C22.1530409,37.7963539 22.3380699,38.1164962 22.524099,38.4346376 C22.8971575,39.0729213 23.283218,39.7082036 23.6772798,40.3364829 C23.8733106,40.6506225 24.0713416,40.9627612 24.2703728,41.2728991 C25.0694981,42.5134504 25.8886265,43.7169853 26.6917524,44.8544909 C26.892784,45.1396176 27.0928153,45.4197421 27.2908464,45.6948644 C27.6869085,46.2461094 28.0769696,46.7793464 28.4560291,47.2885727 C30.1622966,49.5835927 31.6485296,51.4214095 32.4986629,52.4488662 C33.3487962,51.4214095 34.8350292,49.5835927 36.5412967,47.2885727 C36.9203561,46.7793464 37.3104173,46.2461094 37.7064794,45.6948644 C37.9045104,45.4197421 38.1045418,45.1396176 38.3055733,44.8544909 C39.7107936,42.8646065 41.1650216,40.6686305 42.4732267,38.4346376 C42.6592559,38.1164962 42.8442849,37.7963539 43.023313,37.4752112 C43.744426,36.1956425 44.4085301,34.9100711 44.9786195,33.6515118 C45.6907312,32.0778124 46.2568199,30.5461316 46.6048745,29.1164962 C46.7438963,28.5452423 46.8489127,27.9899956 46.9139229,27.4547577 C46.945928,27.1866385 46.9689316,26.924522 46.9809334,26.6674077 C47.1209554,23.716096 46.4008425,20.9048466 44.9006073,18.5137839 L44.9026076,18.511783 C44.8956065,18.4997777 44.8886054,18.4857715 44.8806041,18.4737661 L46.2808237,16.9130725 C47.9530859,19.3301467 48.917237,22.2494442 48.9932489,25.4808804 C49.0052508,25.9040685 49.0012502,26.3292574 48.9812471,26.7574478 L48.9812471,26.7574478 Z" id="AWS-Local-Zones_Icon_48_Squid" fill="#FFFFFF"></path>
    </g>
</svg></g>
    </svg>



    <svg width="100%" y="50%">
        <g class="component-informations" stroke="none" fill="#224F7C" font-family="Source Sans Pro" transform="translate(0 -40)">
            <text class="component-name" font-size="10" text-anchor="middle" x="50%" y="62">eu-west-3b</text>
            <text class="component-type" text-anchor="middle" font-size="8" x="50%" y="72">aws_availability_zones</text>
        </g>
    </svg>

    <g class="anchors" stroke="#5B81A5" fill="#FFFFFF" opacity="1">
        <circle cx="50%" cy="0%" r="3" anchor="top"></circle>
        <circle cx="100%" cy="50%" r="3" anchor="right"></circle>
        <circle cx="50%" cy="100%" r="3" anchor="bottom"></circle>
        <circle cx="0%" cy="50%" r="3" anchor="left"></circle>
    </g>
</svg>
</g><g id="eu-west-3c" x="960" y="452" transform="translate(960,452)" class="component
        component-DefaultModel
        aws_availability_zones"><svg version="1.1" xmlns="http://www.w3.org/2000/svg" class="template" width="110" height="80" overflow="visible" id="svg-eu-west-3c">
    <rect class="component-background component-hitbox" stroke="#224F7C" fill="#FFFFFF" width="100%" height="100%" ry="4" rx="4"></rect>

    <svg x="50%" y="50%" overflow="visible">
        <g class="component-icon" transform="translate(-22 -34)"><!--?xml version="1.0" encoding="UTF-8"?-->
<svg width="44px" height="44px" viewBox="0 0 64 64" version="1.1" xmlns="http://www.w3.org/2000/svg" xmlns:xlink="http://www.w3.org/1999/xlink">
    <!-- Generator: Sketch 64 (93537) - https://sketch.com -->
    <title>Icon-Architecture/48/Arch_AWS-Local-Zones_48</title>
    <desc>Created with Sketch.</desc>
    <defs>
        <linearGradient x1="0%" y1="100%" x2="100%" y2="0%" id="linearGradient-1">
            <stop stop-color="#C8511B" offset="0%"></stop>
            <stop stop-color="#FF9900" offset="100%"></stop>
        </linearGradient>
    </defs>
    <g id="Icon-Architecture/48/Arch_AWS-Local-Zones_48" stroke="none" stroke-width="1" fill="none" fill-rule="evenodd">
        <g id="Icon-Architecture-BG/48/Compute" fill="url(#linearGradient-1)">
            <rect id="Rectangle" x="0" y="0" width="64" height="64"></rect>
        </g>
        <path d="M33.9988981,26.98755 C33.9988981,26.1601823 33.3257925,25.4868831 32.4986629,25.4868831 C31.6715332,25.4868831 30.9984277,26.1601823 30.9984277,26.98755 C30.9984277,27.8149177 31.6715332,28.488217 32.4986629,28.488217 C33.3257925,28.488217 33.9988981,27.8149177 33.9988981,26.98755 L33.9988981,26.98755 Z M34.0018986,23.8391507 L45.2566631,11.3125834 L46.7448964,12.6491774 L35.4831308,25.1837483 C35.8041811,25.7129835 35.9992117,26.3252557 35.9992117,26.98755 C35.9992117,28.9184082 34.4289655,30.4891063 32.4986629,30.4891063 C30.5683602,30.4891063 28.998114,28.9184082 28.998114,26.98755 C28.998114,25.0566919 30.5683602,23.4859938 32.4986629,23.4859938 C33.0387475,23.4859938 33.5448269,23.6190529 34.0018986,23.8391507 L34.0018986,23.8391507 Z M37.5094485,16.072699 C35.9292007,15.3523788 34.2489373,14.9822143 32.4986629,14.9822143 C25.8776248,14.9822143 20.4967812,20.3646065 20.4967812,26.98755 C20.4967812,31.0593597 22.5371011,34.8210316 25.9376342,37.0420187 L27.0378067,35.3612717 C24.1973614,33.5104491 22.4970948,30.3790574 22.4970948,26.98755 C22.4970948,21.4751 26.9877989,16.9831036 32.4986629,16.9831036 C33.7788636,16.9831036 35.0090565,17.2232103 36.1692384,17.6834149 L37.5094485,16.072699 Z M41.3700538,22.3755002 C42.1101698,23.7961316 42.5002309,25.3868386 42.5002309,26.98755 C42.5002309,30.3790574 40.7999644,33.5104491 37.959519,35.3612717 L39.0596915,37.0420187 C42.4602247,34.8110271 44.5005446,31.0493553 44.5005446,26.98755 C44.5005446,24.8666074 43.9304552,22.7656736 42.8602874,20.9348599 L41.3700538,22.3755002 Z M29.3391675,32.0728101 C27.3098494,31.1914184 25.9976436,29.1915296 25.9976436,26.9775456 C25.9976436,26.0861494 26.2036759,25.2337706 26.6097396,24.4444197 L24.8324609,23.5280124 C24.2863753,24.5874833 23.99733,25.7800133 23.99733,26.9775456 C23.99733,29.9888839 25.7806096,32.7090929 28.5420425,33.9076256 L29.3391675,32.0728101 Z M38.7296398,25.3168075 C38.909668,25.8470431 38.9996821,26.4072921 38.9996821,26.9775456 C38.9996821,29.1485104 37.729483,31.1193864 35.7591741,32.0197866 C35.7291694,32.0397955 35.6891631,32.0598044 35.6591584,32.0698088 L35.6591584,32.0798133 L36.4592838,33.9106269 C39.2197166,32.7100934 40.9999957,29.9888839 40.9999957,26.9775456 C40.9999957,25.8270342 40.7299534,24.6765229 40.229875,23.6460649 L38.7296398,25.3168075 Z M48.9812471,26.7574478 C48.5011718,36.9319698 33.8788793,53.9395287 33.258782,54.6498444 C33.0687523,54.8699422 32.7887083,55 32.4986629,55 C32.2086174,55 31.9285735,54.8699422 31.7385437,54.6498444 C31.1184465,53.9395287 16.4961539,36.9319698 16.0160787,26.7574478 C15.9920749,26.2632281 15.9970757,25.7740107 16.0170788,25.2857937 C16.0240799,25.0656959 16.0410826,24.8485994 16.0580853,24.6315029 C16.0750879,24.4094042 16.0960912,24.1883059 16.1230955,23.9672076 C17.0162355,16.1407292 23.2792174,10.4311916 31.9485766,10.0100044 L32.9987413,10 C36.0092133,10.1500667 38.7096366,10.9004002 41.0700067,12.2309916 L39.6887902,13.7616719 C37.6884765,12.711205 35.4291223,12.1209426 32.9487334,12.0008893 L31.9985845,12.0008893 C26.7407601,12.2620053 22.4760915,14.7371054 20.0887172,18.5087817 L20.0967185,18.5137839 C19.7226598,19.1110494 19.3956085,19.7343264 19.1195653,20.3796132 C19.1195653,20.3806136 19.1185651,20.3826145 19.1175649,20.3836149 C18.7315044,21.2870165 18.4494602,22.235438 18.2624309,23.2128724 C18.2464284,23.2979102 18.2254251,23.3819475 18.2114229,23.4679858 C18.1714166,23.698088 18.1434122,23.9311916 18.1154078,24.1642952 C18.0894037,24.3843931 18.0654,24.6074922 18.0503976,24.8325923 C18.0363954,25.0116719 18.0223932,25.1927523 18.0163923,25.3738328 C18.0013899,25.8000222 17.995389,26.229213 18.0163923,26.6674077 C18.0283942,26.924522 18.0513978,27.1866385 18.0834028,27.4547577 C18.148413,27.9899956 18.2534295,28.5452423 18.3924513,29.1164962 C18.7405058,30.5461316 19.3065946,32.0778124 20.0187062,33.6515118 C20.5887956,34.9100711 21.2528997,36.1956425 21.9740128,37.4752112 C22.1530409,37.7963539 22.3380699,38.1164962 22.524099,38.4346376 C22.8971575,39.0729213 23.283218,39.7082036 23.6772798,40.3364829 C23.8733106,40.6506225 24.0713416,40.9627612 24.2703728,41.2728991 C25.0694981,42.5134504 25.8886265,43.7169853 26.6917524,44.8544909 C26.892784,45.1396176 27.0928153,45.4197421 27.2908464,45.6948644 C27.6869085,46.2461094 28.0769696,46.7793464 28.4560291,47.2885727 C30.1622966,49.5835927 31.6485296,51.4214095 32.4986629,52.4488662 C33.3487962,51.4214095 34.8350292,49.5835927 36.5412967,47.2885727 C36.9203561,46.7793464 37.3104173,46.2461094 37.7064794,45.6948644 C37.9045104,45.4197421 38.1045418,45.1396176 38.3055733,44.8544909 C39.7107936,42.8646065 41.1650216,40.6686305 42.4732267,38.4346376 C42.6592559,38.1164962 42.8442849,37.7963539 43.023313,37.4752112 C43.744426,36.1956425 44.4085301,34.9100711 44.9786195,33.6515118 C45.6907312,32.0778124 46.2568199,30.5461316 46.6048745,29.1164962 C46.7438963,28.5452423 46.8489127,27.9899956 46.9139229,27.4547577 C46.945928,27.1866385 46.9689316,26.924522 46.9809334,26.6674077 C47.1209554,23.716096 46.4008425,20.9048466 44.9006073,18.5137839 L44.9026076,18.511783 C44.8956065,18.4997777 44.8886054,18.4857715 44.8806041,18.4737661 L46.2808237,16.9130725 C47.9530859,19.3301467 48.917237,22.2494442 48.9932489,25.4808804 C49.0052508,25.9040685 49.0012502,26.3292574 48.9812471,26.7574478 L48.9812471,26.7574478 Z" id="AWS-Local-Zones_Icon_48_Squid" fill="#FFFFFF"></path>
    </g>
</svg></g>
    </svg>



    <svg width="100%" y="50%">
        <g class="component-informations" stroke="none" fill="#224F7C" font-family="Source Sans Pro" transform="translate(0 -40)">
            <text class="component-name" font-size="10" text-anchor="middle" x="50%" y="62">eu-west-3c</text>
            <text class="component-type" text-anchor="middle" font-size="8" x="50%" y="72">aws_availability_zones</text>
        </g>
    </svg>

    <g class="anchors" stroke="#5B81A5" fill="#FFFFFF" opacity="1">
        <circle cx="50%" cy="0%" r="3" anchor="top"></circle>
        <circle cx="100%" cy="50%" r="3" anchor="right"></circle>
        <circle cx="50%" cy="100%" r="3" anchor="bottom"></circle>
        <circle cx="0%" cy="50%" r="3" anchor="left"></circle>
    </g>
</svg>
</g><g id="main_vpc" x="500" y="218" transform="translate(500,218)" class="component
        component-DefaultContainer
        aws_vpc"><svg version="1.1" xmlns="http://www.w3.org/2000/svg" class="template" width="414" height="352" overflow="visible" id="svg-main_vpc">
    <rect class="component-background component-hitbox" stroke="#224F7C" fill="#FFFFFF" width="414" height="352" ry="4" rx="4"></rect>

    <svg x="50%" y="7" overflow="visible">
        <g class="component-icon" transform="translate(-22)"><!--?xml version="1.0" encoding="UTF-8"?-->
<svg width="44px" height="44px" viewBox="0 0 64 64" version="1.1" xmlns="http://www.w3.org/2000/svg" xmlns:xlink="http://www.w3.org/1999/xlink">
    <!-- Generator: Sketch 64 (93537) - https://sketch.com -->
    <title>Icon-Architecture/48/Arch_Amazon-Virtual-Private-Cloud_48</title>
    <desc>Created with Sketch.</desc>
    <defs>
        <linearGradient x1="0%" y1="100%" x2="100%" y2="0%" id="linearGradient-1">
            <stop stop-color="#4D27A8" offset="0%"></stop>
            <stop stop-color="#A166FF" offset="100%"></stop>
        </linearGradient>
    </defs>
    <g id="Icon-Architecture/48/Arch_Amazon-Virtual-Private-Cloud_48" stroke="none" stroke-width="1" fill="none" fill-rule="evenodd">
        <g id="Icon-Architecture-BG/48/Networking-Content-Delivery" fill="url(#linearGradient-1)">
            <rect id="Rectangle" x="0" y="0" width="64" height="64"></rect>
        </g>
        <path d="M48,33.9772867 L44.499,32.5082867 L44.499,46.8782867 C47.906,46.1472867 47.998,42.1812867 48,41.9952867 L48,33.9772867 Z M42.499,46.9232867 L42.499,32.5082867 L39,33.9772867 L39,42.0042867 C39.008,42.4662867 39.183,46.3392867 42.499,46.9232867 L42.499,46.9232867 Z M43.112,30.0822867 C43.358,29.9772867 43.638,29.9782867 43.886,30.0812867 L49.387,32.3902867 C49.759,32.5462867 50,32.9092867 50,33.3122867 L50,42.0042867 C49.978,44.4312867 48.562,49.0042867 43.37,49.0042867 C38.393,49.0042867 37.026,44.4322867 37,42.0152867 L37,33.3122867 C37,32.9092867 37.241,32.5462867 37.613,32.3902867 L43.112,30.0822867 Z M52,30.7922867 L43.492,27.0922867 L34.9998912,30.6682867 L34.9998912,41.0252867 C34.999,41.0902867 34.963,46.0092867 37.807,48.8942867 C39.187,50.2942867 41.059,51.0042867 43.37,51.0042867 C51.808,51.0042867 51.996,41.4252867 52,41.0182867 L52,30.7922867 Z M54,30.1362867 L54,41.0252867 C53.973,45.1732867 51.716,53.0042867 43.37,53.0042867 C40.498,53.0042867 38.145,52.0902867 36.373,50.2882867 C32.941,46.7972867 32.996,41.2432867 33,41.0082867 L33,30.0042867 C33,29.6022867 33.241,29.2382867 33.612,29.0822867 L43.111,25.0822867 C43.363,24.9762867 43.647,24.9782867 43.897,25.0872867 L53.398,29.2192867 C53.764,29.3782867 54,29.7382867 54,30.1362867 L54,30.1362867 Z M19,38.0042867 L30,38.0042867 L30,40.0042867 L19,40.0042867 C14.216,40.0042867 10.271,36.4832867 10.02,31.9882867 C10.002,31.8132867 10,31.5992867 10,31.3852867 C10,26.0862867 13.654,24.0382867 15.919,23.2782867 C15.902,23.0632867 15.891,22.8432867 15.891,22.6262867 C15.891,18.0392867 18.658,13.7012867 22.621,12.0792867 C27.58,10.0492867 33.235,10.9372867 36.695,14.2852867 C37.718,15.2822867 38.604,16.5962867 39.343,18.2062867 C40.299,17.4222867 41.392,17.0042867 42.523,17.0042867 C45.234,17.0042867 48.281,19.2962867 48.9,23.0622867 C51.069,23.3442867 52.936,24.6392867 53.896,26.5822867 L52.104,27.4692867 C51.34,25.9252867 49.806,25.0042867 48,25.0042867 C47.471,25.0042867 47.033,24.5912867 47.002,24.0632867 C46.807,20.7622867 44.275,19.0042867 42.523,19.0042867 C41.55,19.0042867 40.582,19.5742867 39.797,20.6082867 C39.575,20.8992867 39.215,21.0482867 38.852,20.9932867 C38.49,20.9382867 38.187,20.6912867 38.062,20.3482867 C37.327,18.3462867 36.398,16.7892867 35.302,15.7202867 C32.406,12.9172867 27.615,12.1962867 23.379,13.9302867 C19.775,15.4052867 17.891,19.4212867 17.891,22.6262867 C17.891,23.0262867 17.947,23.5032867 17.993,23.8862867 C18.053,24.3862867 17.73,24.8532867 17.24,24.9752867 C15.283,25.4592867 12,26.9372867 12,31.3852867 C12,31.5352867 11.998,31.6852867 12.013,31.8362867 C12.209,35.3122867 15.276,38.0042867 19,38.0042867 L19,38.0042867 Z" id="Amazon-Virtual-Private-Cloud_Icon_48_Squid" fill="#FFFFFF"></path>
    </g>
</svg>
</g>
    </svg>



    <g class="component-informations" stroke="none" fill="#224F7C" font-family="Source Sans Pro">
        <text class="component-name" font-size="10" text-anchor="middle" x="50%" y="62">main_vpc</text>
        <text class="component-type" text-anchor="middle" font-size="8" x="50%" y="72">aws_vpc</text>
    </g>

    <svg class="component-container" overflow="visible" y="80" height="267" width="404" x="5">
        <rect class="container-background" width="100%" height="100%" rx="0" stroke="#5B81A5" stroke-dasharray="4 3" stroke-dashoffset="-3" fill="white" data-parentId="main_vpc"></rect>
    <g id="group-main_vpc"><g id="frontend_subnet_az1" x="32" y="157" transform="translate(32,157)" class="component
        component-DefaultModel
        aws_subnet"><svg version="1.1" xmlns="http://www.w3.org/2000/svg" class="template" width="110" height="80" overflow="visible" id="svg-frontend_subnet_az1">
    <rect class="component-background component-hitbox" stroke="#224F7C" fill="#FFFFFF" width="100%" height="100%" ry="4" rx="4"></rect>

    <svg x="50%" y="50%" overflow="visible">
        <g class="component-icon" transform="translate(-22 -34)"><!--?xml version="1.0" encoding="UTF-8"?-->
<svg width="44px" height="44px" viewBox="0 0 48 48" version="1.1" xmlns="http://www.w3.org/2000/svg" xmlns:xlink="http://www.w3.org/1999/xlink">
    <title>Icon-Resource/Networking-and-Content-Delivery/Res_AWS-App-Mesh-Mesh_48_Light</title>
    <g id="Icon-Resource/Networking-and-Content-Delivery/Res_AWS-App-Mesh-Mesh_48" stroke="none" stroke-width="1" fill="none" fill-rule="evenodd">
        <path d="M42.52125,33.852 C41.55825,34.815 39.87625,34.815 38.91425,33.852 C37.91825,32.857 37.91825,31.239 38.91425,30.244 C39.41125,29.747 40.06425,29.498 40.71725,29.498 C41.37125,29.498 42.02425,29.747 42.52125,30.244 C43.00225,30.725 43.26825,31.367 43.26825,32.048 C43.26825,32.73 43.00225,33.371 42.52125,33.852 M25.29525,43.254 C24.30125,44.248 22.68125,44.248 21.68725,43.254 C21.20625,42.773 20.94025,42.131 20.94025,41.45 C20.94025,40.768 21.20625,40.127 21.68725,39.646 C22.16825,39.164 22.80925,38.899 23.49125,38.899 C24.17225,38.899 24.81425,39.164 25.29525,39.646 C26.29025,40.64 26.29025,42.259 25.29525,43.254 M21.68725,22.737 C22.18425,22.24 22.83725,21.991 23.49125,21.991 C24.14425,21.991 24.79725,22.24 25.29525,22.737 C26.29025,23.732 26.29025,25.35 25.29525,26.345 C24.33325,27.308 22.65025,27.308 21.68725,26.345 C20.69225,25.35 20.69225,23.732 21.68725,22.737 M20.94025,6.551 C20.94025,5.87 21.20625,5.229 21.68725,4.748 C22.16825,4.266 22.80925,4 23.49125,4 C24.17225,4 24.81325,4.266 25.29525,4.748 C26.29025,5.743 26.29025,7.361 25.29525,8.356 C24.30225,9.349 22.68225,9.351 21.68725,8.356 C21.20625,7.874 20.94025,7.233 20.94025,6.551 M5.74525,36.852 C4.75025,35.857 4.75025,34.239 5.74525,33.244 C6.24225,32.747 6.89525,32.498 7.54925,32.498 C8.20325,32.498 8.85625,32.747 9.35325,33.244 C10.07325,33.963 10.26325,35.007 9.94225,35.908 L9.79225,36.238 C9.67625,36.457 9.53825,36.667 9.35325,36.852 C8.36025,37.845 6.74025,37.847 5.74525,36.852 M5.74525,15.149 C6.24225,14.652 6.89525,14.404 7.54925,14.404 C8.20325,14.404 8.85625,14.652 9.35325,15.149 C10.34725,16.144 10.34725,17.762 9.35325,18.757 C8.36025,19.75 6.74025,19.752 5.74525,18.757 C4.75025,17.762 4.75025,16.144 5.74525,15.149 M38.91425,11.149 C39.41125,10.652 40.06425,10.403 40.71725,10.403 C41.37125,10.403 42.02425,10.652 42.52125,11.149 C43.51625,12.144 43.51625,13.762 42.52125,14.757 C41.55825,15.72 39.87625,15.72 38.91425,14.757 C37.91825,13.762 37.91825,12.144 38.91425,11.149 M43.93525,28.83 C42.16225,27.054 39.27325,27.054 37.50025,28.83 C36.18125,30.148 35.84625,32.08 36.48725,33.714 L27.53625,39.41 C27.32425,38.988 27.06125,38.583 26.70925,38.232 C26.09825,37.621 25.33825,37.215 24.51625,37.026 L24.51625,28.965 C25.33825,28.776 26.09825,28.371 26.70925,27.759 C27.86225,26.607 28.25225,24.986 27.90725,23.504 L37.72925,16.361 C38.55925,17.089 39.60225,17.504 40.71725,17.504 C41.93325,17.504 43.07725,17.031 43.93525,16.171 C45.70925,14.397 45.70925,11.509 43.93525,9.735 C42.16225,7.959 39.27325,7.959 37.50025,9.735 C36.14525,11.089 35.83325,13.088 36.54525,14.749 L27.00625,21.687 C26.90825,21.565 26.82325,21.436 26.70925,21.323 C26.08425,20.698 25.32025,20.306 24.51625,20.121 L24.51625,10.971 C25.32025,10.787 26.08525,10.394 26.70925,9.77 C28.48325,7.996 28.48325,5.108 26.70925,3.333 C25.85025,2.474 24.70725,2 23.49125,2 C22.27525,2 21.13125,2.474 20.27325,3.333 C19.41425,4.192 18.94025,5.335 18.94025,6.551 C18.94025,7.767 19.41425,8.911 20.27325,9.77 C20.91125,10.408 21.69425,10.806 22.51625,10.986 L22.51625,20.106 C21.69425,20.286 20.91125,20.685 20.27325,21.323 C18.49925,23.097 18.49925,25.985 20.27325,27.759 C20.89725,28.383 21.67325,28.797 22.51625,28.981 L22.51625,37.01 C21.67325,37.194 20.89725,37.608 20.27325,38.232 C19.96125,38.542 19.72025,38.901 19.51425,39.277 L12.02025,35.867 C12.27825,34.446 11.86325,32.926 10.76725,31.83 C10.12725,31.19 9.34025,30.79 8.51625,30.612 L8.51625,21.39 C9.34125,21.212 10.12725,20.812 10.76725,20.171 C12.54125,18.397 12.54125,15.509 10.76725,13.735 C8.99225,11.961 6.10625,11.963 4.33125,13.735 C2.55625,15.509 2.55625,18.397 4.33125,20.171 C4.95425,20.794 5.71525,21.185 6.51625,21.371 L6.51625,30.631 C5.71525,30.818 4.95425,31.208 4.33125,31.83 C2.55625,33.604 2.55625,36.492 4.33125,38.266 C5.21825,39.154 6.38325,39.597 7.54925,39.597 C8.71425,39.597 9.87925,39.154 10.76725,38.266 C10.94225,38.091 11.08625,37.898 11.22725,37.703 L18.96225,41.222 C18.95925,41.298 18.94025,41.373 18.94025,41.45 C18.94025,42.665 19.41425,43.809 20.27325,44.668 C21.16025,45.555 22.32525,45.999 23.49125,45.999 C24.65625,45.999 25.82225,45.555 26.70925,44.668 C27.59425,43.784 28.03625,42.623 28.04025,41.461 L37.62025,35.365 C38.46525,36.155 39.55325,36.599 40.71725,36.599 C41.93325,36.599 43.07725,36.125 43.93525,35.266 C44.79425,34.408 45.26825,33.264 45.26825,32.048 C45.26825,30.832 44.79425,29.689 43.93525,28.83" id="AWS-App-Mesh-Mesh_Resource-Icon_light-bg" fill="#4D27AA"></path>
    </g>
</svg></g>
    </svg>



    <svg width="100%" y="50%">
        <g class="component-informations" stroke="none" fill="#224F7C" font-family="Source Sans Pro" transform="translate(0 -40)">
            <text class="component-name" font-size="10" text-anchor="middle" x="50%" y="62">frontend_subnet_az1</text>
            <text class="component-type" text-anchor="middle" font-size="8" x="50%" y="72">aws_subnet</text>
        </g>
    </svg>

    <g class="anchors" stroke="#5B81A5" fill="#FFFFFF" opacity="1">
        <circle cx="50%" cy="0%" r="3" anchor="top"></circle>
        <circle cx="100%" cy="50%" r="3" anchor="right"></circle>
        <circle cx="50%" cy="100%" r="3" anchor="bottom"></circle>
        <circle cx="0%" cy="50%" r="3" anchor="left"></circle>
    </g>
</svg>
</g><g id="frontend_subnet_az2" x="275" y="12" transform="translate(275,12)" class="component
        component-DefaultModel
        aws_subnet"><svg version="1.1" xmlns="http://www.w3.org/2000/svg" class="template" width="110" height="80" overflow="visible" id="svg-frontend_subnet_az2">
    <rect class="component-background component-hitbox" stroke="#224F7C" fill="#FFFFFF" width="100%" height="100%" ry="4" rx="4"></rect>

    <svg x="50%" y="50%" overflow="visible">
        <g class="component-icon" transform="translate(-22 -34)"><!--?xml version="1.0" encoding="UTF-8"?-->
<svg width="44px" height="44px" viewBox="0 0 48 48" version="1.1" xmlns="http://www.w3.org/2000/svg" xmlns:xlink="http://www.w3.org/1999/xlink">
    <title>Icon-Resource/Networking-and-Content-Delivery/Res_AWS-App-Mesh-Mesh_48_Light</title>
    <g id="Icon-Resource/Networking-and-Content-Delivery/Res_AWS-App-Mesh-Mesh_48" stroke="none" stroke-width="1" fill="none" fill-rule="evenodd">
        <path d="M42.52125,33.852 C41.55825,34.815 39.87625,34.815 38.91425,33.852 C37.91825,32.857 37.91825,31.239 38.91425,30.244 C39.41125,29.747 40.06425,29.498 40.71725,29.498 C41.37125,29.498 42.02425,29.747 42.52125,30.244 C43.00225,30.725 43.26825,31.367 43.26825,32.048 C43.26825,32.73 43.00225,33.371 42.52125,33.852 M25.29525,43.254 C24.30125,44.248 22.68125,44.248 21.68725,43.254 C21.20625,42.773 20.94025,42.131 20.94025,41.45 C20.94025,40.768 21.20625,40.127 21.68725,39.646 C22.16825,39.164 22.80925,38.899 23.49125,38.899 C24.17225,38.899 24.81425,39.164 25.29525,39.646 C26.29025,40.64 26.29025,42.259 25.29525,43.254 M21.68725,22.737 C22.18425,22.24 22.83725,21.991 23.49125,21.991 C24.14425,21.991 24.79725,22.24 25.29525,22.737 C26.29025,23.732 26.29025,25.35 25.29525,26.345 C24.33325,27.308 22.65025,27.308 21.68725,26.345 C20.69225,25.35 20.69225,23.732 21.68725,22.737 M20.94025,6.551 C20.94025,5.87 21.20625,5.229 21.68725,4.748 C22.16825,4.266 22.80925,4 23.49125,4 C24.17225,4 24.81325,4.266 25.29525,4.748 C26.29025,5.743 26.29025,7.361 25.29525,8.356 C24.30225,9.349 22.68225,9.351 21.68725,8.356 C21.20625,7.874 20.94025,7.233 20.94025,6.551 M5.74525,36.852 C4.75025,35.857 4.75025,34.239 5.74525,33.244 C6.24225,32.747 6.89525,32.498 7.54925,32.498 C8.20325,32.498 8.85625,32.747 9.35325,33.244 C10.07325,33.963 10.26325,35.007 9.94225,35.908 L9.79225,36.238 C9.67625,36.457 9.53825,36.667 9.35325,36.852 C8.36025,37.845 6.74025,37.847 5.74525,36.852 M5.74525,15.149 C6.24225,14.652 6.89525,14.404 7.54925,14.404 C8.20325,14.404 8.85625,14.652 9.35325,15.149 C10.34725,16.144 10.34725,17.762 9.35325,18.757 C8.36025,19.75 6.74025,19.752 5.74525,18.757 C4.75025,17.762 4.75025,16.144 5.74525,15.149 M38.91425,11.149 C39.41125,10.652 40.06425,10.403 40.71725,10.403 C41.37125,10.403 42.02425,10.652 42.52125,11.149 C43.51625,12.144 43.51625,13.762 42.52125,14.757 C41.55825,15.72 39.87625,15.72 38.91425,14.757 C37.91825,13.762 37.91825,12.144 38.91425,11.149 M43.93525,28.83 C42.16225,27.054 39.27325,27.054 37.50025,28.83 C36.18125,30.148 35.84625,32.08 36.48725,33.714 L27.53625,39.41 C27.32425,38.988 27.06125,38.583 26.70925,38.232 C26.09825,37.621 25.33825,37.215 24.51625,37.026 L24.51625,28.965 C25.33825,28.776 26.09825,28.371 26.70925,27.759 C27.86225,26.607 28.25225,24.986 27.90725,23.504 L37.72925,16.361 C38.55925,17.089 39.60225,17.504 40.71725,17.504 C41.93325,17.504 43.07725,17.031 43.93525,16.171 C45.70925,14.397 45.70925,11.509 43.93525,9.735 C42.16225,7.959 39.27325,7.959 37.50025,9.735 C36.14525,11.089 35.83325,13.088 36.54525,14.749 L27.00625,21.687 C26.90825,21.565 26.82325,21.436 26.70925,21.323 C26.08425,20.698 25.32025,20.306 24.51625,20.121 L24.51625,10.971 C25.32025,10.787 26.08525,10.394 26.70925,9.77 C28.48325,7.996 28.48325,5.108 26.70925,3.333 C25.85025,2.474 24.70725,2 23.49125,2 C22.27525,2 21.13125,2.474 20.27325,3.333 C19.41425,4.192 18.94025,5.335 18.94025,6.551 C18.94025,7.767 19.41425,8.911 20.27325,9.77 C20.91125,10.408 21.69425,10.806 22.51625,10.986 L22.51625,20.106 C21.69425,20.286 20.91125,20.685 20.27325,21.323 C18.49925,23.097 18.49925,25.985 20.27325,27.759 C20.89725,28.383 21.67325,28.797 22.51625,28.981 L22.51625,37.01 C21.67325,37.194 20.89725,37.608 20.27325,38.232 C19.96125,38.542 19.72025,38.901 19.51425,39.277 L12.02025,35.867 C12.27825,34.446 11.86325,32.926 10.76725,31.83 C10.12725,31.19 9.34025,30.79 8.51625,30.612 L8.51625,21.39 C9.34125,21.212 10.12725,20.812 10.76725,20.171 C12.54125,18.397 12.54125,15.509 10.76725,13.735 C8.99225,11.961 6.10625,11.963 4.33125,13.735 C2.55625,15.509 2.55625,18.397 4.33125,20.171 C4.95425,20.794 5.71525,21.185 6.51625,21.371 L6.51625,30.631 C5.71525,30.818 4.95425,31.208 4.33125,31.83 C2.55625,33.604 2.55625,36.492 4.33125,38.266 C5.21825,39.154 6.38325,39.597 7.54925,39.597 C8.71425,39.597 9.87925,39.154 10.76725,38.266 C10.94225,38.091 11.08625,37.898 11.22725,37.703 L18.96225,41.222 C18.95925,41.298 18.94025,41.373 18.94025,41.45 C18.94025,42.665 19.41425,43.809 20.27325,44.668 C21.16025,45.555 22.32525,45.999 23.49125,45.999 C24.65625,45.999 25.82225,45.555 26.70925,44.668 C27.59425,43.784 28.03625,42.623 28.04025,41.461 L37.62025,35.365 C38.46525,36.155 39.55325,36.599 40.71725,36.599 C41.93325,36.599 43.07725,36.125 43.93525,35.266 C44.79425,34.408 45.26825,33.264 45.26825,32.048 C45.26825,30.832 44.79425,29.689 43.93525,28.83" id="AWS-App-Mesh-Mesh_Resource-Icon_light-bg" fill="#4D27AA"></path>
    </g>
</svg></g>
    </svg>



    <svg width="100%" y="50%">
        <g class="component-informations" stroke="none" fill="#224F7C" font-family="Source Sans Pro" transform="translate(0 -40)">
            <text class="component-name" font-size="10" text-anchor="middle" x="50%" y="62">frontend_subnet_az2</text>
            <text class="component-type" text-anchor="middle" font-size="8" x="50%" y="72">aws_subnet</text>
        </g>
    </svg>

    <g class="anchors" stroke="#5B81A5" fill="#FFFFFF" opacity="1">
        <circle cx="50%" cy="0%" r="3" anchor="top"></circle>
        <circle cx="100%" cy="50%" r="3" anchor="right"></circle>
        <circle cx="50%" cy="100%" r="3" anchor="bottom"></circle>
        <circle cx="0%" cy="50%" r="3" anchor="left"></circle>
    </g>
</svg>
</g><g id="frontend_subnet_az3" x="178" y="100" transform="translate(178,100)" class="component
        component-DefaultModel
        aws_subnet"><svg version="1.1" xmlns="http://www.w3.org/2000/svg" class="template" width="110" height="80" overflow="visible" id="svg-frontend_subnet_az3">
    <rect class="component-background component-hitbox" stroke="#224F7C" fill="#FFFFFF" width="100%" height="100%" ry="4" rx="4"></rect>

    <svg x="50%" y="50%" overflow="visible">
        <g class="component-icon" transform="translate(-22 -34)"><!--?xml version="1.0" encoding="UTF-8"?-->
<svg width="44px" height="44px" viewBox="0 0 48 48" version="1.1" xmlns="http://www.w3.org/2000/svg" xmlns:xlink="http://www.w3.org/1999/xlink">
    <title>Icon-Resource/Networking-and-Content-Delivery/Res_AWS-App-Mesh-Mesh_48_Light</title>
    <g id="Icon-Resource/Networking-and-Content-Delivery/Res_AWS-App-Mesh-Mesh_48" stroke="none" stroke-width="1" fill="none" fill-rule="evenodd">
        <path d="M42.52125,33.852 C41.55825,34.815 39.87625,34.815 38.91425,33.852 C37.91825,32.857 37.91825,31.239 38.91425,30.244 C39.41125,29.747 40.06425,29.498 40.71725,29.498 C41.37125,29.498 42.02425,29.747 42.52125,30.244 C43.00225,30.725 43.26825,31.367 43.26825,32.048 C43.26825,32.73 43.00225,33.371 42.52125,33.852 M25.29525,43.254 C24.30125,44.248 22.68125,44.248 21.68725,43.254 C21.20625,42.773 20.94025,42.131 20.94025,41.45 C20.94025,40.768 21.20625,40.127 21.68725,39.646 C22.16825,39.164 22.80925,38.899 23.49125,38.899 C24.17225,38.899 24.81425,39.164 25.29525,39.646 C26.29025,40.64 26.29025,42.259 25.29525,43.254 M21.68725,22.737 C22.18425,22.24 22.83725,21.991 23.49125,21.991 C24.14425,21.991 24.79725,22.24 25.29525,22.737 C26.29025,23.732 26.29025,25.35 25.29525,26.345 C24.33325,27.308 22.65025,27.308 21.68725,26.345 C20.69225,25.35 20.69225,23.732 21.68725,22.737 M20.94025,6.551 C20.94025,5.87 21.20625,5.229 21.68725,4.748 C22.16825,4.266 22.80925,4 23.49125,4 C24.17225,4 24.81325,4.266 25.29525,4.748 C26.29025,5.743 26.29025,7.361 25.29525,8.356 C24.30225,9.349 22.68225,9.351 21.68725,8.356 C21.20625,7.874 20.94025,7.233 20.94025,6.551 M5.74525,36.852 C4.75025,35.857 4.75025,34.239 5.74525,33.244 C6.24225,32.747 6.89525,32.498 7.54925,32.498 C8.20325,32.498 8.85625,32.747 9.35325,33.244 C10.07325,33.963 10.26325,35.007 9.94225,35.908 L9.79225,36.238 C9.67625,36.457 9.53825,36.667 9.35325,36.852 C8.36025,37.845 6.74025,37.847 5.74525,36.852 M5.74525,15.149 C6.24225,14.652 6.89525,14.404 7.54925,14.404 C8.20325,14.404 8.85625,14.652 9.35325,15.149 C10.34725,16.144 10.34725,17.762 9.35325,18.757 C8.36025,19.75 6.74025,19.752 5.74525,18.757 C4.75025,17.762 4.75025,16.144 5.74525,15.149 M38.91425,11.149 C39.41125,10.652 40.06425,10.403 40.71725,10.403 C41.37125,10.403 42.02425,10.652 42.52125,11.149 C43.51625,12.144 43.51625,13.762 42.52125,14.757 C41.55825,15.72 39.87625,15.72 38.91425,14.757 C37.91825,13.762 37.91825,12.144 38.91425,11.149 M43.93525,28.83 C42.16225,27.054 39.27325,27.054 37.50025,28.83 C36.18125,30.148 35.84625,32.08 36.48725,33.714 L27.53625,39.41 C27.32425,38.988 27.06125,38.583 26.70925,38.232 C26.09825,37.621 25.33825,37.215 24.51625,37.026 L24.51625,28.965 C25.33825,28.776 26.09825,28.371 26.70925,27.759 C27.86225,26.607 28.25225,24.986 27.90725,23.504 L37.72925,16.361 C38.55925,17.089 39.60225,17.504 40.71725,17.504 C41.93325,17.504 43.07725,17.031 43.93525,16.171 C45.70925,14.397 45.70925,11.509 43.93525,9.735 C42.16225,7.959 39.27325,7.959 37.50025,9.735 C36.14525,11.089 35.83325,13.088 36.54525,14.749 L27.00625,21.687 C26.90825,21.565 26.82325,21.436 26.70925,21.323 C26.08425,20.698 25.32025,20.306 24.51625,20.121 L24.51625,10.971 C25.32025,10.787 26.08525,10.394 26.70925,9.77 C28.48325,7.996 28.48325,5.108 26.70925,3.333 C25.85025,2.474 24.70725,2 23.49125,2 C22.27525,2 21.13125,2.474 20.27325,3.333 C19.41425,4.192 18.94025,5.335 18.94025,6.551 C18.94025,7.767 19.41425,8.911 20.27325,9.77 C20.91125,10.408 21.69425,10.806 22.51625,10.986 L22.51625,20.106 C21.69425,20.286 20.91125,20.685 20.27325,21.323 C18.49925,23.097 18.49925,25.985 20.27325,27.759 C20.89725,28.383 21.67325,28.797 22.51625,28.981 L22.51625,37.01 C21.67325,37.194 20.89725,37.608 20.27325,38.232 C19.96125,38.542 19.72025,38.901 19.51425,39.277 L12.02025,35.867 C12.27825,34.446 11.86325,32.926 10.76725,31.83 C10.12725,31.19 9.34025,30.79 8.51625,30.612 L8.51625,21.39 C9.34125,21.212 10.12725,20.812 10.76725,20.171 C12.54125,18.397 12.54125,15.509 10.76725,13.735 C8.99225,11.961 6.10625,11.963 4.33125,13.735 C2.55625,15.509 2.55625,18.397 4.33125,20.171 C4.95425,20.794 5.71525,21.185 6.51625,21.371 L6.51625,30.631 C5.71525,30.818 4.95425,31.208 4.33125,31.83 C2.55625,33.604 2.55625,36.492 4.33125,38.266 C5.21825,39.154 6.38325,39.597 7.54925,39.597 C8.71425,39.597 9.87925,39.154 10.76725,38.266 C10.94225,38.091 11.08625,37.898 11.22725,37.703 L18.96225,41.222 C18.95925,41.298 18.94025,41.373 18.94025,41.45 C18.94025,42.665 19.41425,43.809 20.27325,44.668 C21.16025,45.555 22.32525,45.999 23.49125,45.999 C24.65625,45.999 25.82225,45.555 26.70925,44.668 C27.59425,43.784 28.03625,42.623 28.04025,41.461 L37.62025,35.365 C38.46525,36.155 39.55325,36.599 40.71725,36.599 C41.93325,36.599 43.07725,36.125 43.93525,35.266 C44.79425,34.408 45.26825,33.264 45.26825,32.048 C45.26825,30.832 44.79425,29.689 43.93525,28.83" id="AWS-App-Mesh-Mesh_Resource-Icon_light-bg" fill="#4D27AA"></path>
    </g>
</svg></g>
    </svg>



    <svg width="100%" y="50%">
        <g class="component-informations" stroke="none" fill="#224F7C" font-family="Source Sans Pro" transform="translate(0 -40)">
            <text class="component-name" font-size="10" text-anchor="middle" x="50%" y="62">frontend_subnet_az3</text>
            <text class="component-type" text-anchor="middle" font-size="8" x="50%" y="72">aws_subnet</text>
        </g>
    </svg>

    <g class="anchors" stroke="#5B81A5" fill="#FFFFFF" opacity="1">
        <circle cx="50%" cy="0%" r="3" anchor="top"></circle>
        <circle cx="100%" cy="50%" r="3" anchor="right"></circle>
        <circle cx="50%" cy="100%" r="3" anchor="bottom"></circle>
        <circle cx="0%" cy="50%" r="3" anchor="left"></circle>
    </g>
</svg>
</g></g></svg>

    <g class="anchors" stroke="#5B81A5" fill="#FFFFFF" opacity="1">
        <circle cx="50%" cy="0%" r="3" anchor="top"></circle>
        <circle cx="100%" cy="50%" r="3" anchor="right"></circle>
        <circle cx="50%" cy="100%" r="3" anchor="bottom"></circle>
        <circle cx="0%" cy="50%" r="3" anchor="left"></circle>
    </g>
</svg>
</g><g id="ubuntu" x="959" y="568" transform="translate(959,568)" class="component
        component-DefaultModel
        aws_ami"><svg version="1.1" xmlns="http://www.w3.org/2000/svg" class="template" width="110" height="80" overflow="visible" id="svg-ubuntu">
    <rect class="component-background component-hitbox" stroke="#224F7C" fill="#FFFFFF" width="100%" height="100%" ry="4" rx="4"></rect>

    <svg x="50%" y="50%" overflow="visible">
        <g class="component-icon" transform="translate(-22 -34)"><!--?xml version="1.0" encoding="UTF-8"?-->
<svg width="44px" height="44px" viewBox="0 0 48 48" version="1.1" xmlns="http://www.w3.org/2000/svg" xmlns:xlink="http://www.w3.org/1999/xlink">
    <title>Icon-Resource/Compute/Res_Amazon-EC2_AMI_Resource_48_Light</title>
    <g id="Icon-Resource/Compute/Res_Amazon-EC2_AMI_Resource_48" stroke="none" stroke-width="1" fill="none" fill-rule="evenodd">
        <path d="M30.143,37.727 L38.599,37.727 L38.599,26.656 L30.143,26.656 L30.143,37.727 Z M9.229,37.727 L17.686,37.727 L17.686,26.656 L9.229,26.656 L9.229,37.727 Z M19.686,37.727 L28.143,37.727 L28.143,26.656 L19.686,26.656 L19.686,37.727 Z M39.599,24.656 L8.229,24.656 C7.676,24.656 7.229,25.104 7.229,25.656 L7.229,38.727 C7.229,39.279 7.676,39.727 8.229,39.727 L39.599,39.727 C40.151,39.727 40.599,39.279 40.599,38.727 L40.599,25.656 C40.599,25.104 40.151,24.656 39.599,24.656 L39.599,24.656 Z M30.143,19.428 L38.599,19.428 L38.599,10.971 L30.143,10.971 L30.143,19.428 Z M9.229,19.428 L17.686,19.428 L17.686,10.971 L9.229,10.971 L9.229,19.428 Z M19.686,19.428 L28.143,19.428 L28.143,10.971 L19.686,10.971 L19.686,19.428 Z M39.599,8.971 L8.229,8.971 C7.676,8.971 7.229,9.419 7.229,9.971 L7.229,20.428 C7.229,20.98 7.676,21.428 8.229,21.428 L39.599,21.428 C40.151,21.428 40.599,20.98 40.599,20.428 L40.599,9.971 C40.599,9.419 40.151,8.971 39.599,8.971 L39.599,8.971 Z M43.827,39.379 C43.827,41.832 41.832,43.827 39.38,43.827 L8.448,43.827 C5.995,43.827 4,41.832 4,39.379 L4,8.448 C4,5.995 5.995,4 8.448,4 L39.38,4 C41.832,4 43.827,5.995 43.827,8.448 L43.827,39.379 Z M39.38,2 L8.448,2 C4.893,2 2,4.892 2,8.448 L2,39.379 C2,42.934 4.893,45.827 8.448,45.827 L39.38,45.827 C42.935,45.827 45.827,42.934 45.827,39.379 L45.827,8.448 C45.827,4.892 42.935,2 39.38,2 L39.38,2 Z" id="Amazon-Containers-AMI_Resource-Icon_light-bg" fill="#D45B07"></path>
    </g>
</svg>
</g>
    </svg>



    <svg width="100%" y="50%">
        <g class="component-informations" stroke="none" fill="#224F7C" font-family="Source Sans Pro" transform="translate(0 -40)">
            <text class="component-name" font-size="10" text-anchor="middle" x="50%" y="62">ubuntu</text>
            <text class="component-type" text-anchor="middle" font-size="8" x="50%" y="72">aws_ami</text>
        </g>
    </svg>

    <g class="anchors" stroke="#5B81A5" fill="#FFFFFF" opacity="1">
        <circle cx="50%" cy="0%" r="3" anchor="top"></circle>
        <circle cx="100%" cy="50%" r="3" anchor="right"></circle>
        <circle cx="50%" cy="100%" r="3" anchor="bottom"></circle>
        <circle cx="0%" cy="50%" r="3" anchor="left"></circle>
    </g>
</svg>
</g><g id="frontend_secgroup_ssh" x="530" y="786" transform="translate(530,786)" class="component
        component-DefaultModel
        aws_security_group"><svg version="1.1" xmlns="http://www.w3.org/2000/svg" class="template" width="110" height="80" overflow="visible" id="svg-frontend_secgroup_ssh">
    <rect class="component-background component-hitbox" stroke="#224F7C" fill="#FFFFFF" width="100%" height="100%" ry="4" rx="4"></rect>

    <svg x="50%" y="50%" overflow="visible">
        <g class="component-icon" transform="translate(-22 -34)"><!--?xml version="1.0" encoding="iso-8859-1"?-->
<!-- Generator: Adobe Illustrator 19.0.0, SVG Export Plug-In . SVG Version: 6.00 Build 0)  -->
<svg version="1.1" id="Layer_1" xmlns="http://www.w3.org/2000/svg" xmlns:xlink="http://www.w3.org/1999/xlink" x="0px" y="0px" width="44px" height="44px" viewBox="0 0 489.5 489.5" style="enable-background:new 0 0 489.5 489.5;" xml:space="preserve">
<g>
	<g>
		<g>
			<circle style="fill:#94A4A4;" cx="33.2" cy="249.4" r="24.1"></circle>
		</g>
		<g>
			<circle style="fill:#94A4A4;" cx="33.2" cy="107.5" r="24.1"></circle>
		</g>
		<g>
			<circle style="fill:#94A4A4;" cx="33.2" cy="391.2" r="24.1"></circle>
		</g>
		<g>
			<circle style="fill:#94A4A4;" cx="456.2" cy="249.4" r="24.1"></circle>
		</g>
		<g>
			<circle style="fill:#94A4A4;" cx="456.2" cy="391.2" r="24.1"></circle>
		</g>
		<g>
			<circle style="fill:#94A4A4;" cx="456.2" cy="107.5" r="24.1"></circle>
		</g>
		<g>
			<path style="fill:#2C2F33;" d="M319.4,172.8h-2.7V137c0-39.7-32.3-72-72-72s-72,32.3-72,72c0,5,4.1,9.1,9.1,9.1s9.1-4.1,9.1-9.1
				c0-29.7,24.2-53.9,53.9-53.9s53.9,24.2,53.9,53.9v35.8H170c-13,0-23.6,10.6-23.6,23.6v98.3c0,13,10.6,23.6,23.6,23.6h149.3
				c13,0,23.6-10.6,23.6-23.6v-98.3C342.9,183.4,332.4,172.8,319.4,172.8z M324.8,294.6c0,3-2.4,5.4-5.4,5.4H170
				c-3,0-5.4-2.4-5.4-5.4v-98.3c0-3,2.4-5.4,5.4-5.4h149.3c3,0,5.4,2.4,5.4,5.4v98.3H324.8z"></path>
			<path style="fill:#2C2F33;" d="M247.3,219.9c-6.6-1.3-13.5,2.4-16.3,8.7c-2.9,6.5-1,13.8,4.9,18.1c1.2,0.9,1.4,1.7,1.4,3
				c0,6.5,0,12.9,0,19.4l0,0c0,5.3,5.6,9.4,11.3,6.5c2.4-1.2,3.8-3.8,3.6-6.5l0,0c0-6.5,0-12.9,0-19.4c0-1.4,0.3-2.3,1.6-3.2
				c4.1-3,6.1-7.1,6.1-12.1C259.7,227.2,254.6,221.3,247.3,219.9z"></path>
			<path style="fill:#2C2F33;" d="M115.4,240.3H65.1c-4-13.9-16.7-24.1-31.9-24.1C14.9,216.2,0,231.1,0,249.4s14.9,33.2,33.2,33.2
				c15.1,0,27.9-10.2,31.9-24.1h50.4c5,0,9.1-4.1,9.1-9.1C124.5,244.4,120.4,240.3,115.4,240.3z M33.2,264.4c-8.3,0-15-6.7-15-15
				c0-8.3,6.7-15,15-15s15,6.7,15,15S41.5,264.4,33.2,264.4z"></path>
			<path style="fill:#2C2F33;" d="M115.4,187H60.3c-9.9,0-18-8.1-18-18v-29.6c13.9-4,24.1-16.7,24.1-31.9
				c0-18.3-14.9-33.2-33.2-33.2S0,89.2,0,107.5c0,15.1,10.2,27.9,24.1,31.9V169c0,19.9,16.2,36.1,36.1,36.1h55.2
				c5,0,9.1-4.1,9.1-9.1C124.5,191,120.4,187,115.4,187z M18.1,107.5c0-8.3,6.7-15,15-15s15,6.7,15,15s-6.7,15-15,15
				S18.1,115.8,18.1,107.5z"></path>
			<path style="fill:#2C2F33;" d="M115.4,293.6H60.3c-19.9,0-36.1,16.2-36.1,36.1v29.6c-13.9,4-24.1,16.7-24.1,31.9
				c0,18.3,14.9,33.2,33.2,33.2s33.2-14.9,33.2-33.2c0-15.1-10.2-27.9-24.1-31.9v-29.6c0-9.9,8.1-18,18-18h55.2c5,0,9.1-4.1,9.1-9.1
				C124.5,297.7,120.4,293.6,115.4,293.6z M48.2,391.2c0,8.3-6.7,15-15,15s-15-6.7-15-15s6.7-15,15-15S48.2,382.9,48.2,391.2z"></path>
			<path style="fill:#2C2F33;" d="M456.2,216.2c-15.1,0-27.9,10.2-31.9,24.1h-50.4c-5,0-9.1,4.1-9.1,9.1s4.1,9.1,9.1,9.1h50.4
				c4,13.9,16.7,24.1,31.9,24.1c18.3,0,33.2-14.9,33.2-33.2S474.5,216.2,456.2,216.2z M456.2,264.4c-8.3,0-15-6.7-15-15
				c0-8.3,6.7-15,15-15s15,6.7,15,15C471.3,257.7,464.5,264.4,456.2,264.4z"></path>
			<path style="fill:#2C2F33;" d="M465.3,359.3v-29.6c0-19.9-16.2-36.1-36.1-36.1H374c-5,0-9.1,4.1-9.1,9.1s4.1,9.1,9.1,9.1h55.2
				c9.9,0,18,8.1,18,18v29.6c-13.9,4-24.1,16.7-24.1,31.9c0,18.3,14.9,33.2,33.2,33.2c18.3,0,33.2-14.9,33.2-33.2
				C489.4,376.1,479.2,363.3,465.3,359.3z M456.2,406.3c-8.3,0-15-6.7-15-15s6.7-15,15-15s15,6.7,15,15
				C471.3,399.5,464.5,406.3,456.2,406.3z"></path>
			<path style="fill:#2C2F33;" d="M374,205.1h55.2c19.9,0,36.1-16.2,36.1-36.1v-29.6c13.9-4,24.1-16.7,24.1-31.9
				c0-18.3-14.9-33.2-33.2-33.2c-18.3,0-33.2,14.9-33.2,33.2c0,15.1,10.2,27.9,24.1,31.9V169c0,9.9-8.1,18-18,18h-55.2
				c-5,0-9.1,4.1-9.1,9.1C364.9,201,369,205.1,374,205.1z M441.2,107.5c0-8.3,6.7-15,15-15s15,6.7,15,15s-6.7,15-15,15
				S441.2,115.8,441.2,107.5z"></path>
		</g>
	</g>
</g>
<g>
</g>
<g>
</g>
<g>
</g>
<g>
</g>
<g>
</g>
<g>
</g>
<g>
</g>
<g>
</g>
<g>
</g>
<g>
</g>
<g>
</g>
<g>
</g>
<g>
</g>
<g>
</g>
<g>
</g>
</svg>
</g>
    </svg>



    <svg width="100%" y="50%">
        <g class="component-informations" stroke="none" fill="#224F7C" font-family="Source Sans Pro" transform="translate(0 -40)">
            <text class="component-name" font-size="10" text-anchor="middle" x="50%" y="62">frontend_secgroup_ssh</text>
            <text class="component-type" text-anchor="middle" font-size="8" x="50%" y="72">aws_security_group</text>
        </g>
    </svg>

    <g class="anchors" stroke="#5B81A5" fill="#FFFFFF" opacity="1">
        <circle cx="50%" cy="0%" r="3" anchor="top"></circle>
        <circle cx="100%" cy="50%" r="3" anchor="right"></circle>
        <circle cx="50%" cy="100%" r="3" anchor="bottom"></circle>
        <circle cx="0%" cy="50%" r="3" anchor="left"></circle>
    </g>
</svg>
</g><g id="lb_secgroup_https" x="575" y="28" transform="translate(575,28)" class="component
        component-DefaultModel
        aws_security_group"><svg version="1.1" xmlns="http://www.w3.org/2000/svg" class="template" width="110" height="80" overflow="visible" id="svg-lb_secgroup_https">
    <rect class="component-background component-hitbox" stroke="#224F7C" fill="#FFFFFF" width="100%" height="100%" ry="4" rx="4"></rect>

    <svg x="50%" y="50%" overflow="visible">
        <g class="component-icon" transform="translate(-22 -34)"><!--?xml version="1.0" encoding="iso-8859-1"?-->
<!-- Generator: Adobe Illustrator 19.0.0, SVG Export Plug-In . SVG Version: 6.00 Build 0)  -->
<svg version="1.1" id="Layer_1" xmlns="http://www.w3.org/2000/svg" xmlns:xlink="http://www.w3.org/1999/xlink" x="0px" y="0px" width="44px" height="44px" viewBox="0 0 489.5 489.5" style="enable-background:new 0 0 489.5 489.5;" xml:space="preserve">
<g>
	<g>
		<g>
			<circle style="fill:#94A4A4;" cx="33.2" cy="249.4" r="24.1"></circle>
		</g>
		<g>
			<circle style="fill:#94A4A4;" cx="33.2" cy="107.5" r="24.1"></circle>
		</g>
		<g>
			<circle style="fill:#94A4A4;" cx="33.2" cy="391.2" r="24.1"></circle>
		</g>
		<g>
			<circle style="fill:#94A4A4;" cx="456.2" cy="249.4" r="24.1"></circle>
		</g>
		<g>
			<circle style="fill:#94A4A4;" cx="456.2" cy="391.2" r="24.1"></circle>
		</g>
		<g>
			<circle style="fill:#94A4A4;" cx="456.2" cy="107.5" r="24.1"></circle>
		</g>
		<g>
			<path style="fill:#2C2F33;" d="M319.4,172.8h-2.7V137c0-39.7-32.3-72-72-72s-72,32.3-72,72c0,5,4.1,9.1,9.1,9.1s9.1-4.1,9.1-9.1
				c0-29.7,24.2-53.9,53.9-53.9s53.9,24.2,53.9,53.9v35.8H170c-13,0-23.6,10.6-23.6,23.6v98.3c0,13,10.6,23.6,23.6,23.6h149.3
				c13,0,23.6-10.6,23.6-23.6v-98.3C342.9,183.4,332.4,172.8,319.4,172.8z M324.8,294.6c0,3-2.4,5.4-5.4,5.4H170
				c-3,0-5.4-2.4-5.4-5.4v-98.3c0-3,2.4-5.4,5.4-5.4h149.3c3,0,5.4,2.4,5.4,5.4v98.3H324.8z"></path>
			<path style="fill:#2C2F33;" d="M247.3,219.9c-6.6-1.3-13.5,2.4-16.3,8.7c-2.9,6.5-1,13.8,4.9,18.1c1.2,0.9,1.4,1.7,1.4,3
				c0,6.5,0,12.9,0,19.4l0,0c0,5.3,5.6,9.4,11.3,6.5c2.4-1.2,3.8-3.8,3.6-6.5l0,0c0-6.5,0-12.9,0-19.4c0-1.4,0.3-2.3,1.6-3.2
				c4.1-3,6.1-7.1,6.1-12.1C259.7,227.2,254.6,221.3,247.3,219.9z"></path>
			<path style="fill:#2C2F33;" d="M115.4,240.3H65.1c-4-13.9-16.7-24.1-31.9-24.1C14.9,216.2,0,231.1,0,249.4s14.9,33.2,33.2,33.2
				c15.1,0,27.9-10.2,31.9-24.1h50.4c5,0,9.1-4.1,9.1-9.1C124.5,244.4,120.4,240.3,115.4,240.3z M33.2,264.4c-8.3,0-15-6.7-15-15
				c0-8.3,6.7-15,15-15s15,6.7,15,15S41.5,264.4,33.2,264.4z"></path>
			<path style="fill:#2C2F33;" d="M115.4,187H60.3c-9.9,0-18-8.1-18-18v-29.6c13.9-4,24.1-16.7,24.1-31.9
				c0-18.3-14.9-33.2-33.2-33.2S0,89.2,0,107.5c0,15.1,10.2,27.9,24.1,31.9V169c0,19.9,16.2,36.1,36.1,36.1h55.2
				c5,0,9.1-4.1,9.1-9.1C124.5,191,120.4,187,115.4,187z M18.1,107.5c0-8.3,6.7-15,15-15s15,6.7,15,15s-6.7,15-15,15
				S18.1,115.8,18.1,107.5z"></path>
			<path style="fill:#2C2F33;" d="M115.4,293.6H60.3c-19.9,0-36.1,16.2-36.1,36.1v29.6c-13.9,4-24.1,16.7-24.1,31.9
				c0,18.3,14.9,33.2,33.2,33.2s33.2-14.9,33.2-33.2c0-15.1-10.2-27.9-24.1-31.9v-29.6c0-9.9,8.1-18,18-18h55.2c5,0,9.1-4.1,9.1-9.1
				C124.5,297.7,120.4,293.6,115.4,293.6z M48.2,391.2c0,8.3-6.7,15-15,15s-15-6.7-15-15s6.7-15,15-15S48.2,382.9,48.2,391.2z"></path>
			<path style="fill:#2C2F33;" d="M456.2,216.2c-15.1,0-27.9,10.2-31.9,24.1h-50.4c-5,0-9.1,4.1-9.1,9.1s4.1,9.1,9.1,9.1h50.4
				c4,13.9,16.7,24.1,31.9,24.1c18.3,0,33.2-14.9,33.2-33.2S474.5,216.2,456.2,216.2z M456.2,264.4c-8.3,0-15-6.7-15-15
				c0-8.3,6.7-15,15-15s15,6.7,15,15C471.3,257.7,464.5,264.4,456.2,264.4z"></path>
			<path style="fill:#2C2F33;" d="M465.3,359.3v-29.6c0-19.9-16.2-36.1-36.1-36.1H374c-5,0-9.1,4.1-9.1,9.1s4.1,9.1,9.1,9.1h55.2
				c9.9,0,18,8.1,18,18v29.6c-13.9,4-24.1,16.7-24.1,31.9c0,18.3,14.9,33.2,33.2,33.2c18.3,0,33.2-14.9,33.2-33.2
				C489.4,376.1,479.2,363.3,465.3,359.3z M456.2,406.3c-8.3,0-15-6.7-15-15s6.7-15,15-15s15,6.7,15,15
				C471.3,399.5,464.5,406.3,456.2,406.3z"></path>
			<path style="fill:#2C2F33;" d="M374,205.1h55.2c19.9,0,36.1-16.2,36.1-36.1v-29.6c13.9-4,24.1-16.7,24.1-31.9
				c0-18.3-14.9-33.2-33.2-33.2c-18.3,0-33.2,14.9-33.2,33.2c0,15.1,10.2,27.9,24.1,31.9V169c0,9.9-8.1,18-18,18h-55.2
				c-5,0-9.1,4.1-9.1,9.1C364.9,201,369,205.1,374,205.1z M441.2,107.5c0-8.3,6.7-15,15-15s15,6.7,15,15s-6.7,15-15,15
				S441.2,115.8,441.2,107.5z"></path>
		</g>
	</g>
</g>
<g>
</g>
<g>
</g>
<g>
</g>
<g>
</g>
<g>
</g>
<g>
</g>
<g>
</g>
<g>
</g>
<g>
</g>
<g>
</g>
<g>
</g>
<g>
</g>
<g>
</g>
<g>
</g>
<g>
</g>
</svg>
</g>
    </svg>



    <svg width="100%" y="50%">
        <g class="component-informations" stroke="none" fill="#224F7C" font-family="Source Sans Pro" transform="translate(0 -40)">
            <text class="component-name" font-size="10" text-anchor="middle" x="50%" y="62">lb_secgroup_https</text>
            <text class="component-type" text-anchor="middle" font-size="8" x="50%" y="72">aws_security_group</text>
        </g>
    </svg>

    <g class="anchors" stroke="#5B81A5" fill="#FFFFFF" opacity="1">
        <circle cx="50%" cy="0%" r="3" anchor="top"></circle>
        <circle cx="100%" cy="50%" r="3" anchor="right"></circle>
        <circle cx="50%" cy="100%" r="3" anchor="bottom"></circle>
        <circle cx="0%" cy="50%" r="3" anchor="left"></circle>
    </g>
</svg>
</g><g id="lb_secgroup_http" x="325" y="378" transform="translate(325,378)" class="component
        component-DefaultModel
        aws_security_group"><svg version="1.1" xmlns="http://www.w3.org/2000/svg" class="template" width="110" height="80" overflow="visible" id="svg-lb_secgroup_http">
    <rect class="component-background component-hitbox" stroke="#224F7C" fill="#FFFFFF" width="100%" height="100%" ry="4" rx="4"></rect>

    <svg x="50%" y="50%" overflow="visible">
        <g class="component-icon" transform="translate(-22 -34)"><!--?xml version="1.0" encoding="iso-8859-1"?-->
<!-- Generator: Adobe Illustrator 19.0.0, SVG Export Plug-In . SVG Version: 6.00 Build 0)  -->
<svg version="1.1" id="Layer_1" xmlns="http://www.w3.org/2000/svg" xmlns:xlink="http://www.w3.org/1999/xlink" x="0px" y="0px" width="44px" height="44px" viewBox="0 0 489.5 489.5" style="enable-background:new 0 0 489.5 489.5;" xml:space="preserve">
<g>
	<g>
		<g>
			<circle style="fill:#94A4A4;" cx="33.2" cy="249.4" r="24.1"></circle>
		</g>
		<g>
			<circle style="fill:#94A4A4;" cx="33.2" cy="107.5" r="24.1"></circle>
		</g>
		<g>
			<circle style="fill:#94A4A4;" cx="33.2" cy="391.2" r="24.1"></circle>
		</g>
		<g>
			<circle style="fill:#94A4A4;" cx="456.2" cy="249.4" r="24.1"></circle>
		</g>
		<g>
			<circle style="fill:#94A4A4;" cx="456.2" cy="391.2" r="24.1"></circle>
		</g>
		<g>
			<circle style="fill:#94A4A4;" cx="456.2" cy="107.5" r="24.1"></circle>
		</g>
		<g>
			<path style="fill:#2C2F33;" d="M319.4,172.8h-2.7V137c0-39.7-32.3-72-72-72s-72,32.3-72,72c0,5,4.1,9.1,9.1,9.1s9.1-4.1,9.1-9.1
				c0-29.7,24.2-53.9,53.9-53.9s53.9,24.2,53.9,53.9v35.8H170c-13,0-23.6,10.6-23.6,23.6v98.3c0,13,10.6,23.6,23.6,23.6h149.3
				c13,0,23.6-10.6,23.6-23.6v-98.3C342.9,183.4,332.4,172.8,319.4,172.8z M324.8,294.6c0,3-2.4,5.4-5.4,5.4H170
				c-3,0-5.4-2.4-5.4-5.4v-98.3c0-3,2.4-5.4,5.4-5.4h149.3c3,0,5.4,2.4,5.4,5.4v98.3H324.8z"></path>
			<path style="fill:#2C2F33;" d="M247.3,219.9c-6.6-1.3-13.5,2.4-16.3,8.7c-2.9,6.5-1,13.8,4.9,18.1c1.2,0.9,1.4,1.7,1.4,3
				c0,6.5,0,12.9,0,19.4l0,0c0,5.3,5.6,9.4,11.3,6.5c2.4-1.2,3.8-3.8,3.6-6.5l0,0c0-6.5,0-12.9,0-19.4c0-1.4,0.3-2.3,1.6-3.2
				c4.1-3,6.1-7.1,6.1-12.1C259.7,227.2,254.6,221.3,247.3,219.9z"></path>
			<path style="fill:#2C2F33;" d="M115.4,240.3H65.1c-4-13.9-16.7-24.1-31.9-24.1C14.9,216.2,0,231.1,0,249.4s14.9,33.2,33.2,33.2
				c15.1,0,27.9-10.2,31.9-24.1h50.4c5,0,9.1-4.1,9.1-9.1C124.5,244.4,120.4,240.3,115.4,240.3z M33.2,264.4c-8.3,0-15-6.7-15-15
				c0-8.3,6.7-15,15-15s15,6.7,15,15S41.5,264.4,33.2,264.4z"></path>
			<path style="fill:#2C2F33;" d="M115.4,187H60.3c-9.9,0-18-8.1-18-18v-29.6c13.9-4,24.1-16.7,24.1-31.9
				c0-18.3-14.9-33.2-33.2-33.2S0,89.2,0,107.5c0,15.1,10.2,27.9,24.1,31.9V169c0,19.9,16.2,36.1,36.1,36.1h55.2
				c5,0,9.1-4.1,9.1-9.1C124.5,191,120.4,187,115.4,187z M18.1,107.5c0-8.3,6.7-15,15-15s15,6.7,15,15s-6.7,15-15,15
				S18.1,115.8,18.1,107.5z"></path>
			<path style="fill:#2C2F33;" d="M115.4,293.6H60.3c-19.9,0-36.1,16.2-36.1,36.1v29.6c-13.9,4-24.1,16.7-24.1,31.9
				c0,18.3,14.9,33.2,33.2,33.2s33.2-14.9,33.2-33.2c0-15.1-10.2-27.9-24.1-31.9v-29.6c0-9.9,8.1-18,18-18h55.2c5,0,9.1-4.1,9.1-9.1
				C124.5,297.7,120.4,293.6,115.4,293.6z M48.2,391.2c0,8.3-6.7,15-15,15s-15-6.7-15-15s6.7-15,15-15S48.2,382.9,48.2,391.2z"></path>
			<path style="fill:#2C2F33;" d="M456.2,216.2c-15.1,0-27.9,10.2-31.9,24.1h-50.4c-5,0-9.1,4.1-9.1,9.1s4.1,9.1,9.1,9.1h50.4
				c4,13.9,16.7,24.1,31.9,24.1c18.3,0,33.2-14.9,33.2-33.2S474.5,216.2,456.2,216.2z M456.2,264.4c-8.3,0-15-6.7-15-15
				c0-8.3,6.7-15,15-15s15,6.7,15,15C471.3,257.7,464.5,264.4,456.2,264.4z"></path>
			<path style="fill:#2C2F33;" d="M465.3,359.3v-29.6c0-19.9-16.2-36.1-36.1-36.1H374c-5,0-9.1,4.1-9.1,9.1s4.1,9.1,9.1,9.1h55.2
				c9.9,0,18,8.1,18,18v29.6c-13.9,4-24.1,16.7-24.1,31.9c0,18.3,14.9,33.2,33.2,33.2c18.3,0,33.2-14.9,33.2-33.2
				C489.4,376.1,479.2,363.3,465.3,359.3z M456.2,406.3c-8.3,0-15-6.7-15-15s6.7-15,15-15s15,6.7,15,15
				C471.3,399.5,464.5,406.3,456.2,406.3z"></path>
			<path style="fill:#2C2F33;" d="M374,205.1h55.2c19.9,0,36.1-16.2,36.1-36.1v-29.6c13.9-4,24.1-16.7,24.1-31.9
				c0-18.3-14.9-33.2-33.2-33.2c-18.3,0-33.2,14.9-33.2,33.2c0,15.1,10.2,27.9,24.1,31.9V169c0,9.9-8.1,18-18,18h-55.2
				c-5,0-9.1,4.1-9.1,9.1C364.9,201,369,205.1,374,205.1z M441.2,107.5c0-8.3,6.7-15,15-15s15,6.7,15,15s-6.7,15-15,15
				S441.2,115.8,441.2,107.5z"></path>
		</g>
	</g>
</g>
<g>
</g>
<g>
</g>
<g>
</g>
<g>
</g>
<g>
</g>
<g>
</g>
<g>
</g>
<g>
</g>
<g>
</g>
<g>
</g>
<g>
</g>
<g>
</g>
<g>
</g>
<g>
</g>
<g>
</g>
</svg>
</g>
    </svg>



    <svg width="100%" y="50%">
        <g class="component-informations" stroke="none" fill="#224F7C" font-family="Source Sans Pro" transform="translate(0 -40)">
            <text class="component-name" font-size="10" text-anchor="middle" x="50%" y="62">lb_secgroup_http</text>
            <text class="component-type" text-anchor="middle" font-size="8" x="50%" y="72">aws_security_group</text>
        </g>
    </svg>

    <g class="anchors" stroke="#5B81A5" fill="#FFFFFF" opacity="1">
        <circle cx="50%" cy="0%" r="3" anchor="top"></circle>
        <circle cx="100%" cy="50%" r="3" anchor="right"></circle>
        <circle cx="50%" cy="100%" r="3" anchor="bottom"></circle>
        <circle cx="0%" cy="50%" r="3" anchor="left"></circle>
    </g>
</svg>
</g><g id="frontend_lb" x="369" y="156" transform="translate(369,156)" class="component
        component-DefaultModel
        aws_lb"><svg version="1.1" xmlns="http://www.w3.org/2000/svg" class="template" width="110" height="80" overflow="visible" id="svg-frontend_lb">
    <rect class="component-background component-hitbox" stroke="#224F7C" fill="#FFFFFF" width="100%" height="100%" ry="4" rx="4"></rect>

    <svg x="50%" y="50%" overflow="visible">
        <g class="component-icon" transform="translate(-22 -34)"><!--?xml version="1.0" encoding="UTF-8"?-->
<svg width="44px" height="44px" viewBox="0 0 48 48" version="1.1" xmlns="http://www.w3.org/2000/svg" xmlns:xlink="http://www.w3.org/1999/xlink">
    <title>Icon-Resource/Networking-and-Content-Delivery/Res_AWS-Elastic-Load-Balancing_Application-Load-Balancer_48_Light</title>
    <g id="Icon-Resource/Networking-and-Content-Delivery/Res_AWS-Elastic-Load-Balancing_Application-Load-Balancer_48" stroke="none" stroke-width="1" fill="none" fill-rule="evenodd">
        <path d="M33.69,34.375 L36.035,34.375 L36.035,32 L33.69,32 L33.69,34.375 Z M26.751,34.375 L29.126,34.375 L29.126,32 L26.751,32 L26.751,34.375 Z M18.876,34.375 L21.251,34.375 L21.251,32 L18.876,32 L18.876,34.375 Z M11.966,34.375 L14.251,34.375 L14.251,32 L11.966,32 L11.966,34.375 Z M18.001,16.875 L30.001,16.875 L30.001,11 L18.001,11 L18.001,16.875 Z M37.035,30 L35.501,30 L35.501,26.625 C35.501,26.072 35.053,25.625 34.501,25.625 L32.001,25.625 L32.001,22.25 C32.001,21.697 31.553,21.25 31.001,21.25 L25.001,21.25 L25.001,18.875 L31.001,18.875 C31.553,18.875 32.001,18.428 32.001,17.875 L32.001,10 C32.001,9.447 31.553,9 31.001,9 L17.001,9 C16.448,9 16.001,9.447 16.001,10 L16.001,17.875 C16.001,18.428 16.448,18.875 17.001,18.875 L23.001,18.875 L23.001,21.25 L17.001,21.25 C16.448,21.25 16.001,21.697 16.001,22.25 L16.001,25.625 L13.501,25.625 C12.948,25.625 12.501,26.072 12.501,26.625 L12.501,30 L10.965,30 C10.413,30 9.965,30.447 9.965,31 L9.965,35.375 C9.965,35.928 10.413,36.375 10.965,36.375 L15.251,36.375 C15.803,36.375 16.251,35.928 16.251,35.375 L16.251,31 C16.251,30.447 15.803,30 15.251,30 L14.501,30 L14.501,27.625 L18.626,27.625 L18.626,30 L17.876,30 C17.323,30 16.876,30.447 16.876,31 L16.876,35.375 C16.876,35.928 17.323,36.375 17.876,36.375 L22.251,36.375 C22.803,36.375 23.251,35.928 23.251,35.375 L23.251,31 C23.251,30.447 22.803,30 22.251,30 L20.626,30 L20.626,26.625 C20.626,26.072 20.178,25.625 19.626,25.625 L18.001,25.625 L18.001,23.25 L30.001,23.25 L30.001,25.625 L28.376,25.625 C27.823,25.625 27.376,26.072 27.376,26.625 L27.376,30 L25.751,30 C25.198,30 24.751,30.447 24.751,31 L24.751,35.375 C24.751,35.928 25.198,36.375 25.751,36.375 L30.126,36.375 C30.678,36.375 31.126,35.928 31.126,35.375 L31.126,31 C31.126,30.447 30.678,30 30.126,30 L29.376,30 L29.376,27.625 L33.501,27.625 L33.501,30 L32.69,30 C32.137,30 31.69,30.447 31.69,31 L31.69,35.375 C31.69,35.928 32.137,36.375 32.69,36.375 L37.035,36.375 C37.587,36.375 38.035,35.928 38.035,35.375 L38.035,31 C38.035,30.447 37.587,30 37.035,30 L37.035,30 Z M24.001,44 C12.972,44 4,35.028 4,24 C4,12.972 12.972,4 24.001,4 C35.029,4 44.001,12.972 44.001,24 C44.001,35.028 35.029,44 24.001,44 L24.001,44 Z M24.001,2 C11.869,2 2,11.869 2,24 C2,36.131 11.869,46 24.001,46 C36.131,46 46.001,36.131 46.001,24 C46.001,11.869 36.131,2 24.001,2 L24.001,2 Z" id="AWS-Elastic-Load-Balancing_-Application-Load-Balancer_Resource-Icon_light-bg" fill="#4D27AA"></path>
    </g>
</svg></g>
    </svg>



    <svg width="100%" y="50%">
        <g class="component-informations" stroke="none" fill="#224F7C" font-family="Source Sans Pro" transform="translate(0 -40)">
            <text class="component-name" font-size="10" text-anchor="middle" x="50%" y="62">frontend_lb</text>
            <text class="component-type" text-anchor="middle" font-size="8" x="50%" y="72">aws_lb</text>
        </g>
    </svg>

    <g class="anchors" stroke="#5B81A5" fill="#FFFFFF" opacity="1">
        <circle cx="50%" cy="0%" r="3" anchor="top"></circle>
        <circle cx="100%" cy="50%" r="3" anchor="right"></circle>
        <circle cx="50%" cy="100%" r="3" anchor="bottom"></circle>
        <circle cx="0%" cy="50%" r="3" anchor="left"></circle>
    </g>
</svg>
</g><g id="https_lb_listener" x="75" y="58" transform="translate(75,58)" class="component
        component-DefaultModel
        aws_lb_listener"><svg version="1.1" xmlns="http://www.w3.org/2000/svg" class="template" width="110" height="80" overflow="visible" id="svg-https_lb_listener">
    <rect class="component-background component-hitbox" stroke="#224F7C" fill="#FFFFFF" width="100%" height="100%" ry="4" rx="4"></rect>

    <svg x="50%" y="50%" overflow="visible">
        <g class="component-icon" transform="translate(-22 -34)"><!--?xml version="1.0" encoding="UTF-8"?-->
<svg width="44px" height="44px" viewBox="0 0 48 48" version="1.1" xmlns="http://www.w3.org/2000/svg" xmlns:xlink="http://www.w3.org/1999/xlink">
    <title>Icon-Resource/Networking-and-Content-Delivery/Res_AWS-Elastic-Load-Balancing_Network-Load-Balancer_48_Light</title>
    <g id="Icon-Resource/Networking-and-Content-Delivery/Res_AWS-Elastic-Load-Balancing_Network-Load-Balancer_48" stroke="none" stroke-width="1" fill="none" fill-rule="evenodd">
        <path d="M24.0015,44.0029 C12.9725,44.0029 3.9995,35.0299 3.9995,24.0009 C3.9995,12.9729 12.9725,3.9999 24.0015,3.9999 C35.0295,3.9999 44.0025,12.9729 44.0025,24.0009 C44.0025,35.0299 35.0295,44.0029 24.0015,44.0029 L24.0015,44.0029 Z M24.0015,1.9999 C11.8695,1.9999 1.9995,11.8689 1.9995,24.0009 C1.9995,36.1329 11.8695,46.0029 24.0015,46.0029 C36.1335,46.0029 46.0025,36.1329 46.0025,24.0009 C46.0025,11.8689 36.1335,1.9999 24.0015,1.9999 L24.0015,1.9999 Z M29.0835,23.2939 C29.4745,23.6849 29.4745,24.3169 29.0835,24.7079 L26.1405,27.6539 L24.7265,26.2399 L25.9645,25.0009 L18.7505,25.0009 L18.7505,23.0009 L25.9645,23.0009 L24.7265,21.7619 L26.1405,20.3479 L29.0835,23.2939 Z M32.0015,35.2519 L35.2515,35.2519 L35.2515,32.0019 L32.0015,32.0019 L32.0015,35.2519 Z M36.2515,30.0019 L31.0015,30.0019 C30.4485,30.0019 30.0015,30.4489 30.0015,31.0019 L30.0015,36.2519 C30.0015,36.8049 30.4485,37.2519 31.0015,37.2519 L36.2515,37.2519 C36.8045,37.2519 37.2515,36.8049 37.2515,36.2519 L37.2515,31.0019 C37.2515,30.4489 36.8045,30.0019 36.2515,30.0019 L36.2515,30.0019 Z M17.6665,18.7409 L24.9615,14.8909 L23.3945,14.4659 L23.9175,12.5359 L27.9365,13.6249 C28.4695,13.7699 28.7835,14.3179 28.6395,14.8519 L27.5505,18.8729 L25.6205,18.3499 L26.1085,16.5469 L18.6005,20.5109 L17.6665,18.7409 Z M32.0015,16.0009 L35.2515,16.0009 L35.2515,12.7509 L32.0015,12.7509 L32.0015,16.0009 Z M36.2515,10.7509 L31.0015,10.7509 C30.4485,10.7509 30.0015,11.1979 30.0015,11.7509 L30.0015,17.0009 C30.0015,17.5539 30.4485,18.0009 31.0015,18.0009 L36.2515,18.0009 C36.8045,18.0009 37.2515,17.5539 37.2515,17.0009 L37.2515,11.7509 C37.2515,11.1979 36.8045,10.7509 36.2515,10.7509 L36.2515,10.7509 Z M8.3455,27.3469 L15.0355,27.3469 L15.0355,20.6569 L8.3455,20.6569 L8.3455,27.3469 Z M16.0355,18.6559 L7.3455,18.6559 C6.7925,18.6559 6.3455,19.1039 6.3455,19.6559 L6.3455,28.3469 C6.3455,28.8989 6.7925,29.3469 7.3455,29.3469 L16.0355,29.3469 C16.5885,29.3469 17.0355,28.8989 17.0355,28.3469 L17.0355,19.6559 C17.0355,19.1039 16.5885,18.6559 16.0355,18.6559 L16.0355,18.6559 Z M28.6395,33.1499 C28.7835,33.6839 28.4695,34.2319 27.9365,34.3769 L23.9175,35.4669 L23.3945,33.5369 L24.9625,33.1119 L17.6665,29.2619 L18.6005,27.4919 L26.1085,31.4549 L25.6205,29.6519 L27.5505,29.1289 L28.6395,33.1499 Z M32.0015,25.6259 L35.2515,25.6259 L35.2515,22.3759 L32.0015,22.3759 L32.0015,25.6259 Z M36.2515,20.3759 L31.0015,20.3759 C30.4485,20.3759 30.0015,20.8229 30.0015,21.3759 L30.0015,26.6259 C30.0015,27.1789 30.4485,27.6259 31.0015,27.6259 L36.2515,27.6259 C36.8045,27.6259 37.2515,27.1789 37.2515,26.6259 L37.2515,21.3759 C37.2515,20.8229 36.8045,20.3759 36.2515,20.3759 L36.2515,20.3759 Z" id="AWS-Elastic-Load-Balancing_Network-Load-Balancer_Resource-Icon_light-bg" fill="#4D27AA"></path>
    </g>
</svg>
</g>
    </svg>



    <svg width="100%" y="50%">
        <g class="component-informations" stroke="none" fill="#224F7C" font-family="Source Sans Pro" transform="translate(0 -40)">
            <text class="component-name" font-size="10" text-anchor="middle" x="50%" y="62">https_lb_listener</text>
            <text class="component-type" text-anchor="middle" font-size="8" x="50%" y="72">aws_lb_listener</text>
        </g>
    </svg>

    <g class="anchors" stroke="#5B81A5" fill="#FFFFFF" opacity="1">
        <circle cx="50%" cy="0%" r="3" anchor="top"></circle>
        <circle cx="100%" cy="50%" r="3" anchor="right"></circle>
        <circle cx="50%" cy="100%" r="3" anchor="bottom"></circle>
        <circle cx="0%" cy="50%" r="3" anchor="left"></circle>
    </g>
</svg>
</g><g id="http_lb_listener" x="70" y="164" transform="translate(70,164)" class="component
        component-DefaultModel
        aws_lb_listener"><svg version="1.1" xmlns="http://www.w3.org/2000/svg" class="template" width="110" height="80" overflow="visible" id="svg-http_lb_listener">
    <rect class="component-background component-hitbox" stroke="#224F7C" fill="#FFFFFF" width="100%" height="100%" ry="4" rx="4"></rect>

    <svg x="50%" y="50%" overflow="visible">
        <g class="component-icon" transform="translate(-22 -34)"><!--?xml version="1.0" encoding="UTF-8"?-->
<svg width="44px" height="44px" viewBox="0 0 48 48" version="1.1" xmlns="http://www.w3.org/2000/svg" xmlns:xlink="http://www.w3.org/1999/xlink">
    <title>Icon-Resource/Networking-and-Content-Delivery/Res_AWS-Elastic-Load-Balancing_Network-Load-Balancer_48_Light</title>
    <g id="Icon-Resource/Networking-and-Content-Delivery/Res_AWS-Elastic-Load-Balancing_Network-Load-Balancer_48" stroke="none" stroke-width="1" fill="none" fill-rule="evenodd">
        <path d="M24.0015,44.0029 C12.9725,44.0029 3.9995,35.0299 3.9995,24.0009 C3.9995,12.9729 12.9725,3.9999 24.0015,3.9999 C35.0295,3.9999 44.0025,12.9729 44.0025,24.0009 C44.0025,35.0299 35.0295,44.0029 24.0015,44.0029 L24.0015,44.0029 Z M24.0015,1.9999 C11.8695,1.9999 1.9995,11.8689 1.9995,24.0009 C1.9995,36.1329 11.8695,46.0029 24.0015,46.0029 C36.1335,46.0029 46.0025,36.1329 46.0025,24.0009 C46.0025,11.8689 36.1335,1.9999 24.0015,1.9999 L24.0015,1.9999 Z M29.0835,23.2939 C29.4745,23.6849 29.4745,24.3169 29.0835,24.7079 L26.1405,27.6539 L24.7265,26.2399 L25.9645,25.0009 L18.7505,25.0009 L18.7505,23.0009 L25.9645,23.0009 L24.7265,21.7619 L26.1405,20.3479 L29.0835,23.2939 Z M32.0015,35.2519 L35.2515,35.2519 L35.2515,32.0019 L32.0015,32.0019 L32.0015,35.2519 Z M36.2515,30.0019 L31.0015,30.0019 C30.4485,30.0019 30.0015,30.4489 30.0015,31.0019 L30.0015,36.2519 C30.0015,36.8049 30.4485,37.2519 31.0015,37.2519 L36.2515,37.2519 C36.8045,37.2519 37.2515,36.8049 37.2515,36.2519 L37.2515,31.0019 C37.2515,30.4489 36.8045,30.0019 36.2515,30.0019 L36.2515,30.0019 Z M17.6665,18.7409 L24.9615,14.8909 L23.3945,14.4659 L23.9175,12.5359 L27.9365,13.6249 C28.4695,13.7699 28.7835,14.3179 28.6395,14.8519 L27.5505,18.8729 L25.6205,18.3499 L26.1085,16.5469 L18.6005,20.5109 L17.6665,18.7409 Z M32.0015,16.0009 L35.2515,16.0009 L35.2515,12.7509 L32.0015,12.7509 L32.0015,16.0009 Z M36.2515,10.7509 L31.0015,10.7509 C30.4485,10.7509 30.0015,11.1979 30.0015,11.7509 L30.0015,17.0009 C30.0015,17.5539 30.4485,18.0009 31.0015,18.0009 L36.2515,18.0009 C36.8045,18.0009 37.2515,17.5539 37.2515,17.0009 L37.2515,11.7509 C37.2515,11.1979 36.8045,10.7509 36.2515,10.7509 L36.2515,10.7509 Z M8.3455,27.3469 L15.0355,27.3469 L15.0355,20.6569 L8.3455,20.6569 L8.3455,27.3469 Z M16.0355,18.6559 L7.3455,18.6559 C6.7925,18.6559 6.3455,19.1039 6.3455,19.6559 L6.3455,28.3469 C6.3455,28.8989 6.7925,29.3469 7.3455,29.3469 L16.0355,29.3469 C16.5885,29.3469 17.0355,28.8989 17.0355,28.3469 L17.0355,19.6559 C17.0355,19.1039 16.5885,18.6559 16.0355,18.6559 L16.0355,18.6559 Z M28.6395,33.1499 C28.7835,33.6839 28.4695,34.2319 27.9365,34.3769 L23.9175,35.4669 L23.3945,33.5369 L24.9625,33.1119 L17.6665,29.2619 L18.6005,27.4919 L26.1085,31.4549 L25.6205,29.6519 L27.5505,29.1289 L28.6395,33.1499 Z M32.0015,25.6259 L35.2515,25.6259 L35.2515,22.3759 L32.0015,22.3759 L32.0015,25.6259 Z M36.2515,20.3759 L31.0015,20.3759 C30.4485,20.3759 30.0015,20.8229 30.0015,21.3759 L30.0015,26.6259 C30.0015,27.1789 30.4485,27.6259 31.0015,27.6259 L36.2515,27.6259 C36.8045,27.6259 37.2515,27.1789 37.2515,26.6259 L37.2515,21.3759 C37.2515,20.8229 36.8045,20.3759 36.2515,20.3759 L36.2515,20.3759 Z" id="AWS-Elastic-Load-Balancing_Network-Load-Balancer_Resource-Icon_light-bg" fill="#4D27AA"></path>
    </g>
</svg>
</g>
    </svg>



    <svg width="100%" y="50%">
        <g class="component-informations" stroke="none" fill="#224F7C" font-family="Source Sans Pro" transform="translate(0 -40)">
            <text class="component-name" font-size="10" text-anchor="middle" x="50%" y="62">http_lb_listener</text>
            <text class="component-type" text-anchor="middle" font-size="8" x="50%" y="72">aws_lb_listener</text>
        </g>
    </svg>

    <g class="anchors" stroke="#5B81A5" fill="#FFFFFF" opacity="1">
        <circle cx="50%" cy="0%" r="3" anchor="top"></circle>
        <circle cx="100%" cy="50%" r="3" anchor="right"></circle>
        <circle cx="50%" cy="100%" r="3" anchor="bottom"></circle>
        <circle cx="0%" cy="50%" r="3" anchor="left"></circle>
    </g>
</svg>
</g><g id="lb_target" x="749" y="789" transform="translate(749,789)" class="component
        component-DefaultModel
        aws_lb_target_group"><svg version="1.1" xmlns="http://www.w3.org/2000/svg" class="template" width="110" height="80" overflow="visible" id="svg-lb_target">
    <rect class="component-background component-hitbox" stroke="#224F7C" fill="#FFFFFF" width="100%" height="100%" ry="4" rx="4"></rect>

    <svg x="50%" y="50%" overflow="visible">
        <g class="component-icon" transform="translate(-22 -34)"><!--?xml version="1.0" encoding="UTF-8"?-->
<svg width="44px" height="44px" viewBox="0 0 64 64" version="1.1" xmlns="http://www.w3.org/2000/svg" xmlns:xlink="http://www.w3.org/1999/xlink">
    <!-- Generator: Sketch 64 (93537) - https://sketch.com -->
    <title>Icon-Architecture/48/Arch_Elastic-Load-Balancing_48</title>
    <desc>Created with Sketch.</desc>
    <defs>
        <linearGradient x1="0%" y1="100%" x2="100%" y2="0%" id="linearGradient-1">
            <stop stop-color="#4D27A8" offset="0%"></stop>
            <stop stop-color="#A166FF" offset="100%"></stop>
        </linearGradient>
    </defs>
    <g id="Icon-Architecture/48/Arch_Elastic-Load-Balancing_48" stroke="none" stroke-width="1" fill="none" fill-rule="evenodd">
        <g id="Icon-Architecture-BG/48/Networking-Content-Delivery" fill="url(#linearGradient-1)">
            <rect id="Rectangle" x="0" y="0" width="64" height="64"></rect>
        </g>
        <path d="M23.5,42 C17.71,42 13,37.29 13,31.5 C13,25.71 17.71,21 23.5,21 C29.29,21 34,25.71 34,31.5 C34,37.29 29.29,42 23.5,42 M48,48 C48,49.654 46.654,51 45,51 C43.346,51 42,49.654 42,48 C42,46.346 43.346,45 45,45 C46.654,45 48,46.346 48,48 M45,13 C46.654,13 48,14.346 48,16 C48,17.654 46.654,19 45,19 C43.346,19 42,17.654 42,16 C42,14.346 43.346,13 45,13 M48,29 C49.654,29 51,30.346 51,32 C51,33.654 49.654,35 48,35 C46.346,35 45,33.654 45,32 C45,30.346 46.346,29 48,29 M35.901,33 L43.102,33 C43.565,35.279 45.586,37 48,37 C50.757,37 53,34.757 53,32 C53,29.243 50.757,27 48,27 C45.586,27 43.565,28.721 43.102,31 L35.975,31 C35.916,29.541 35.614,28.146 35.096,26.856 L42.799,20.467 C43.466,20.797 44.206,21 45,21 C47.757,21 50,18.757 50,16 C50,13.243 47.757,11 45,11 C42.243,11 40,13.243 40,16 C40,17.224 40.459,18.331 41.191,19.201 L34.172,25.024 C31.977,21.42 28.021,19 23.5,19 C16.607,19 11,24.607 11,31.5 C11,38.393 16.607,44 23.5,44 C27.743,44 31.493,41.871 33.754,38.629 L41.191,44.799 C40.459,45.669 40,46.776 40,48 C40,50.757 42.243,53 45,53 C47.757,53 50,50.757 50,48 C50,45.243 47.757,43 45,43 C44.206,43 43.466,43.203 42.799,43.533 L34.77,36.873 C35.344,35.673 35.736,34.373 35.901,33" id="Elastic-Load-Balancing_Icon_48_Squid" fill="#FFFFFF"></path>
    </g>
</svg></g>
    </svg>



    <svg width="100%" y="50%">
        <g class="component-informations" stroke="none" fill="#224F7C" font-family="Source Sans Pro" transform="translate(0 -40)">
            <text class="component-name" font-size="10" text-anchor="middle" x="50%" y="62">lb_target</text>
            <text class="component-type" text-anchor="middle" font-size="8" x="50%" y="72">aws_lb_target_group</text>
        </g>
    </svg>

    <g class="anchors" stroke="#5B81A5" fill="#FFFFFF" opacity="1">
        <circle cx="50%" cy="0%" r="3" anchor="top"></circle>
        <circle cx="100%" cy="50%" r="3" anchor="right"></circle>
        <circle cx="50%" cy="100%" r="3" anchor="bottom"></circle>
        <circle cx="0%" cy="50%" r="3" anchor="left"></circle>
    </g>
</svg>
</g></g></g><defs><marker class="arrow" id="vpc_id-aws_security_group-aws_vpc-arrow" refX="4" refY="2.5" markerWidth="5" markerHeight="5" orient="auto-start-reverse"><path d="M 0 0 L 5 2.5 L 0 5" fill="black"></path></marker><marker class="arrow" id="security_groups-aws_lb-aws_security_group-arrow" refX="4" refY="2.5" markerWidth="5" markerHeight="5" orient="auto-start-reverse"><path d="M 0 0 L 5 2.5 L 0 5" fill="black"></path></marker><marker class="arrow" id="subnets-aws_lb-aws_subnet-arrow" refX="4" refY="2.5" markerWidth="5" markerHeight="5" orient="auto-start-reverse"><path d="M 0 0 L 5 2.5 L 0 5" fill="black"></path></marker><marker class="arrow" id="vpc_id-aws_lb_target_group-aws_vpc-arrow" refX="4" refY="2.5" markerWidth="5" markerHeight="5" orient="auto-start-reverse"><path d="M 0 0 L 5 2.5 L 0 5" fill="black"></path></marker><marker class="arrow" id="load_balancer_arn-aws_lb_listener-aws_lb-arrow" refX="4" refY="2.5" markerWidth="5" markerHeight="5" orient="auto-start-reverse"><path d="M 0 0 L 5 2.5 L 0 5" fill="black"></path></marker><marker class="arrow" id="target_group_arn-aws_lb_listener-aws_lb_target_group-arrow" refX="4" refY="2.5" markerWidth="5" markerHeight="5" orient="auto-start-reverse"><path d="M 0 0 L 5 2.5 L 0 5" fill="black"></path></marker></defs>

<g transform="translate(0,201)">
    <path class="link" d="M677,110C677,162,754,162,754,214" id="link-aws_security_group-vpc_id-lb_secgroup_https-main_vpc" fill="none" stroke="black" stroke-width="2" stroke-dasharray="none" marker-start="none" marker-end="url(#vpc_id-aws_security_group-aws_vpc-arrow)" cursor="pointer"></path><path class="link" d="M485,417C514.5,417,514.5,393,544,393" id="link-aws_security_group-vpc_id-lb_secgroup_http-main_vpc" fill="none" stroke="black" stroke-width="2" stroke-dasharray="none" marker-start="none" marker-end="url(#vpc_id-aws_security_group-aws_vpc-arrow)" cursor="pointer"></path><path class="link" d="M529,195C574,195,574,67,619,67" id="link-aws_lb-security_groups-frontend_lb-lb_secgroup_https" fill="none" stroke="black" stroke-width="2" stroke-dasharray="none" marker-start="none" marker-end="url(#security_groups-aws_lb-aws_security_group-arrow)" cursor="pointer"></path><path class="link" d="M471,238C471,306,427,306,427,374" id="link-aws_lb-security_groups-frontend_lb-lb_secgroup_http" fill="none" stroke="black" stroke-width="2" stroke-dasharray="none" marker-start="none" marker-end="url(#security_groups-aws_lb-aws_security_group-arrow)" cursor="pointer"></path><path class="link" d="M471,238C471,344.5,639,344.5,639,451" id="link-aws_lb-subnets-frontend_lb-frontend_subnet_az1" fill="none" stroke="black" stroke-width="2" stroke-dasharray="none" marker-start="none" marker-end="url(#subnets-aws_lb-aws_subnet-arrow)" cursor="pointer"></path><path class="link" d="M529,195C676.5,195,676.5,349,824,349" id="link-aws_lb-subnets-frontend_lb-frontend_subnet_az2" fill="none" stroke="black" stroke-width="2" stroke-dasharray="none" marker-start="none" marker-end="url(#subnets-aws_lb-aws_subnet-arrow)" cursor="pointer"></path><path class="link" d="M529,195C628,195,628,437,727,437" id="link-aws_lb-subnets-frontend_lb-frontend_subnet_az3" fill="none" stroke="black" stroke-width="2" stroke-dasharray="none" marker-start="none" marker-end="url(#subnets-aws_lb-aws_subnet-arrow)" cursor="pointer"></path><path class="link" d="M851,785C851,678.5,754,678.5,754,572" id="link-aws_lb_target_group-vpc_id-lb_target-main_vpc" fill="none" stroke="black" stroke-width="2" stroke-dasharray="none" marker-start="none" marker-end="url(#vpc_id-aws_lb_target_group-aws_vpc-arrow)" cursor="pointer"></path><path class="link" d="M235,97C324,97,324,195,413,195" id="link-aws_lb_listener-load_balancer_arn-https_lb_listener-frontend_lb" fill="none" stroke="black" stroke-width="2" stroke-dasharray="none" marker-start="none" marker-end="url(#load_balancer_arn-aws_lb_listener-aws_lb-arrow)" cursor="pointer"></path><path class="link" d="M230,203C321.5,203,321.5,195,413,195" id="link-aws_lb_listener-load_balancer_arn-http_lb_listener-frontend_lb" fill="none" stroke="black" stroke-width="2" stroke-dasharray="none" marker-start="none" marker-end="url(#load_balancer_arn-aws_lb_listener-aws_lb-arrow)" cursor="pointer"></path><path></path><path></path><path class="link" d="M632,782C632,677,754,677,754,572" id="link-aws_security_group-vpc_id-frontend_secgroup_ssh-main_vpc" fill="none" stroke="black" stroke-width="2" stroke-dasharray="none" marker-start="none" marker-end="url(#vpc_id-aws_security_group-aws_vpc-arrow)" cursor="pointer"></path>
</g>
</svg>
