<?xml version="1.0" standalone="no"?>
<!DOCTYPE svg PUBLIC "-//W3C//DTD SVG 20010904//EN"
 "http://www.w3.org/TR/2001/REC-SVG-20010904/DTD/svg10.dtd">
<svg version="1.0" xmlns="http://www.w3.org/2000/svg"
 width="512.000000pt" height="512.000000pt" viewBox="0 0 512.000000 512.000000"
 preserveAspectRatio="xMidYMid meet">

<g transform="translate(0.000000,512.000000) scale(0.100000,-0.100000)"
fill="#000000" stroke="none">
<path d="M2605 4946 c-306 -44 -570 -171 -793 -382 -51 -48 -123 -126 -159
-175 -63 -85 -67 -88 -97 -81 -62 14 -219 7 -276 -12 -180 -60 -321 -198 -370
-361 -12 -39 -14 -41 -101 -69 -134 -43 -247 -114 -360 -226 -138 -138 -220
-281 -266 -466 -23 -95 -23 -333 0 -428 25 -99 72 -211 123 -291 76 -120 65
-115 131 -60 32 27 59 50 61 51 2 1 -19 36 -47 78 -207 318 -161 741 111 1006
147 144 356 230 558 230 78 0 77 -2 82 95 l3 60 -62 3 c-35 2 -63 6 -63 11 0
4 13 27 28 52 65 102 181 167 312 176 53 4 80 2 80 -5 0 -6 -9 -31 -20 -57
-11 -26 -20 -52 -20 -58 0 -7 31 -24 70 -39 l70 -26 45 95 c276 583 944 870
1552 668 204 -68 347 -157 504 -314 157 -157 246 -300 314 -504 33 -100 65
-274 65 -356 l0 -41 81 0 82 0 -7 100 c-5 79 -4 100 6 100 29 -1 151 -61 210
-103 254 -181 384 -481 338 -777 -15 -92 -55 -208 -95 -275 -19 -32 -35 -60
-35 -64 0 -3 28 -25 62 -49 l63 -42 17 22 c29 38 95 178 116 249 122 399 -36
843 -383 1074 -92 61 -146 87 -263 124 l-83 27 -25 74 c-164 487 -586 856
-1095 955 -113 22 -350 28 -464 11z"/>
<path d="M804 3191 c-48 -12 -133 -62 -160 -94 -14 -17 -37 -53 -52 -81 -26
-49 -27 -56 -27 -216 0 -179 5 -199 72 -287 l25 -32 -25 -33 c-67 -89 -72
-109 -72 -288 0 -179 5 -199 72 -287 l25 -32 -25 -33 c-67 -89 -72 -109 -72
-288 0 -160 1 -167 27 -216 40 -76 70 -107 140 -145 l63 -34 685 0 685 0 63
34 c70 38 100 69 140 145 26 49 27 56 27 216 0 179 -5 199 -73 287 l-24 33 24
32 c68 89 73 109 73 288 0 179 -5 199 -73 288 l-24 32 24 33 c68 88 73 108 73
287 0 160 -1 167 -27 216 -40 76 -70 107 -140 145 l-63 34 -665 2 c-366 1
-679 -2 -696 -6z m1340 -165 c18 -8 46 -31 62 -52 29 -37 29 -39 29 -175 0
-150 -5 -166 -69 -213 -27 -21 -36 -21 -685 -21 l-658 0 -37 29 c-55 41 -66
77 -66 205 0 116 8 151 43 190 47 51 37 50 715 51 519 0 639 -3 666 -14z m0
-640 c18 -8 46 -31 62 -52 29 -37 29 -39 29 -175 0 -150 -5 -166 -69 -213 -27
-21 -36 -21 -685 -21 l-658 0 -37 29 c-55 41 -66 77 -66 205 0 116 8 151 43
190 47 51 37 50 715 51 519 0 639 -3 666 -14z m0 -640 c18 -8 46 -31 62 -52
29 -37 29 -39 29 -175 0 -150 -5 -166 -69 -213 -27 -21 -36 -21 -685 -21
l-658 0 -37 29 c-55 41 -66 77 -66 205 0 116 8 151 43 190 47 51 37 50 715 51
519 0 639 -3 666 -14z"/>
<path d="M825 2855 c-50 -49 -15 -135 55 -135 41 0 80 39 80 80 0 41 -39 80
-80 80 -19 0 -40 -9 -55 -25z"/>
<path d="M1065 2855 c-50 -49 -15 -135 55 -135 41 0 80 39 80 80 0 41 -39 80
-80 80 -19 0 -40 -9 -55 -25z"/>
<path d="M1305 2855 c-50 -49 -15 -135 55 -135 41 0 80 39 80 80 0 41 -39 80
-80 80 -19 0 -40 -9 -55 -25z"/>
<path d="M1600 2800 l0 -80 240 0 240 0 0 80 0 80 -240 0 -240 0 0 -80z"/>
<path d="M825 2215 c-16 -15 -25 -36 -25 -55 0 -19 9 -40 25 -55 15 -16 36
-25 55 -25 19 0 40 9 55 25 16 15 25 36 25 55 0 19 -9 40 -25 55 -15 16 -36
25 -55 25 -19 0 -40 -9 -55 -25z"/>
<path d="M1065 2215 c-16 -15 -25 -36 -25 -55 0 -19 9 -40 25 -55 15 -16 36
-25 55 -25 19 0 40 9 55 25 16 15 25 36 25 55 0 19 -9 40 -25 55 -15 16 -36
25 -55 25 -19 0 -40 -9 -55 -25z"/>
<path d="M1305 2215 c-50 -49 -15 -135 55 -135 19 0 40 9 55 25 16 15 25 36
25 55 0 19 -9 40 -25 55 -15 16 -36 25 -55 25 -19 0 -40 -9 -55 -25z"/>
<path d="M1600 2160 l0 -80 240 0 240 0 0 80 0 80 -240 0 -240 0 0 -80z"/>
<path d="M825 1575 c-16 -15 -25 -36 -25 -55 0 -19 9 -40 25 -55 15 -16 36
-25 55 -25 19 0 40 9 55 25 16 15 25 36 25 55 0 19 -9 40 -25 55 -15 16 -36
25 -55 25 -19 0 -40 -9 -55 -25z"/>
<path d="M1065 1575 c-16 -15 -25 -36 -25 -55 0 -19 9 -40 25 -55 15 -16 36
-25 55 -25 19 0 40 9 55 25 16 15 25 36 25 55 0 19 -9 40 -25 55 -15 16 -36
25 -55 25 -19 0 -40 -9 -55 -25z"/>
<path d="M1305 1575 c-50 -49 -15 -135 55 -135 19 0 40 9 55 25 16 15 25 36
25 55 0 19 -9 40 -25 55 -15 16 -36 25 -55 25 -19 0 -40 -9 -55 -25z"/>
<path d="M1600 1520 l0 -80 240 0 240 0 0 80 0 80 -240 0 -240 0 0 -80z"/>
<path d="M3524 2791 c-48 -12 -133 -62 -160 -94 -14 -17 -37 -53 -52 -81 l-27
-51 0 -325 0 -325 34 -63 c38 -70 69 -100 145 -140 l51 -27 405 0 405 0 51 27
c76 40 107 70 145 140 l34 63 0 325 0 325 -27 51 c-40 76 -70 107 -140 145
l-63 34 -385 2 c-212 1 -399 -2 -416 -6z m149 -165 c41 -17 63 -42 107 -124
44 -81 117 -144 192 -167 34 -10 93 -15 175 -15 143 0 177 -10 219 -66 29 -37
29 -39 29 -175 0 -150 -5 -166 -69 -213 -27 -20 -39 -21 -405 -21 l-378 0 -37
29 c-63 48 -66 63 -66 365 0 167 4 280 11 298 32 85 135 126 222 89z m631 0
c50 -21 88 -77 94 -138 4 -47 3 -51 -14 -43 -66 27 -117 35 -225 35 -161 0
-196 16 -245 113 l-24 47 190 0 c140 0 199 -4 224 -14z"/>
<path d="M2480 2240 l0 -80 120 0 120 0 0 -775 0 -776 25 -24 c24 -25 27 -25
200 -25 l175 0 0 80 0 80 -120 0 -120 0 0 720 0 720 120 0 120 0 0 80 0 80
-320 0 -320 0 0 -80z"/>
<path d="M3524 1271 c-48 -12 -133 -62 -160 -94 -14 -17 -37 -53 -52 -81 l-27
-51 0 -325 0 -325 34 -63 c38 -70 69 -100 145 -140 l51 -27 405 0 405 0 51 27
c76 40 107 70 145 140 l34 63 0 325 0 325 -27 51 c-40 76 -70 107 -140 145
l-63 34 -385 2 c-212 1 -399 -2 -416 -6z m149 -165 c41 -17 63 -42 107 -124
44 -81 117 -144 192 -167 34 -10 93 -15 175 -15 143 0 177 -10 219 -66 29 -37
29 -39 29 -175 0 -150 -5 -166 -69 -213 -27 -20 -39 -21 -405 -21 l-378 0 -37
29 c-63 48 -66 63 -66 365 0 167 4 280 11 298 32 85 135 126 222 89z m631 0
c50 -21 88 -77 94 -138 4 -47 3 -51 -14 -43 -66 27 -117 35 -225 35 -161 0
-196 16 -245 113 l-24 47 190 0 c140 0 199 -4 224 -14z"/>
</g>
</svg>
