<svg xmlns="http://www.w3.org/2000/svg" viewBox="0,0,1280,1280" preserveAspectRatio="xMinYMin meet" style="font: 10px sans-serif;"><g class="container" height="100%" width="100%" x="0" y="0" transform="translate(1199.1250305013539,458.3860249458415) scale(2.6390158215457964)"><g id="root-components"><g id="__shadowRoot" x="0" y="0" transform="translate(0,0)"></g><g id="aws_s3_bucket" x="-264" y="-7" transform="translate(-264,-7)" class="component
    component-DefaultModel
    aws_s3_bucket"><svg version="1.1" xmlns="http://www.w3.org/2000/svg" class="template" width="110" height="80" overflow="visible" id="svg-aws_s3_bucket">
<rect class="component-background component-hitbox" stroke="#224F7C" fill="#FFFFFF" width="100%" height="100%" ry="4" rx="4"></rect>

<svg x="50%" y="50%" overflow="visible">
    <g class="component-icon" transform="translate(-22 -34)"><!--?xml version="1.0" encoding="UTF-8"?-->
<svg width="48px" height="48px" viewBox="0 0 48 48" version="1.1" xmlns="http://www.w3.org/2000/svg" xmlns:xlink="http://www.w3.org/1999/xlink">
<title>Icon-Resource/Storage/Res_AWS-Amazon-Simple-Storage_Bucket_48_Light</title>
<g id="Icon-Resource/Storage/Res_AWS-Amazon-Simple-Storage_Bucket_48" stroke="none" stroke-width="1" fill="none" fill-rule="evenodd">
    <path d="M40.5038,26.1601 L40.7278,24.4941 C42.5118,25.5811 43.0628,26.2091 43.2228,26.4741 C42.7498,26.6171 41.7948,26.4911 40.5038,26.1601 L40.5038,26.1601 Z M22.8018,20.1111 C22.8018,20.0581 22.8448,20.0151 22.8978,20.0151 C22.9128,20.0151 22.9238,20.0251 22.9368,20.0321 L22.8638,20.1791 C22.8308,20.1691 22.8018,20.1491 22.8018,20.1111 L22.8018,20.1111 Z M36.5138,40.7981 C36.5078,40.8431 36.5048,40.8871 36.5048,40.9311 C36.5048,41.0861 36.1258,41.6751 34.4408,42.3401 C33.6898,42.6371 32.8028,42.9031 31.8028,43.1331 C29.2278,43.7291 26.0638,44.0571 22.8958,44.0571 C14.4298,44.0571 9.2888,41.8871 9.2888,40.9311 C9.2888,40.8871 9.2858,40.8431 9.2798,40.7981 L5.4408,12.2851 C5.6878,12.4291 5.9528,12.5661 6.2308,12.7001 C6.3098,12.7381 6.3958,12.7741 6.4778,12.8121 C6.7178,12.9231 6.9668,13.0301 7.2268,13.1341 C7.3388,13.1781 7.4518,13.2221 7.5668,13.2651 C7.8428,13.3691 8.1278,13.4691 8.4228,13.5651 C8.5098,13.5941 8.5928,13.6241 8.6808,13.6511 C9.0598,13.7701 9.4528,13.8841 9.8578,13.9911 C9.9708,14.0211 10.0878,14.0501 10.2028,14.0781 C10.5148,14.1581 10.8328,14.2341 11.1578,14.3061 C11.2988,14.3381 11.4388,14.3691 11.5808,14.3981 C11.9458,14.4751 12.3188,14.5491 12.6978,14.6181 C12.7798,14.6331 12.8588,14.6491 12.9418,14.6641 C13.3998,14.7441 13.8688,14.8181 14.3448,14.8881 C14.4788,14.9071 14.6148,14.9241 14.7508,14.9421 C15.1108,14.9921 15.4758,15.0381 15.8438,15.0811 C15.9938,15.0981 16.1448,15.1161 16.2968,15.1331 C16.7408,15.1801 17.1888,15.2231 17.6398,15.2621 C17.6928,15.2661 17.7468,15.2721 17.8018,15.2761 C18.3058,15.3171 18.8128,15.3501 19.3208,15.3801 C19.4658,15.3881 19.6108,15.3941 19.7568,15.4011 C20.1408,15.4201 20.5248,15.4351 20.9088,15.4481 C21.0598,15.4531 21.2088,15.4581 21.3588,15.4621 C21.8718,15.4731 22.3848,15.4821 22.8958,15.4821 C23.4058,15.4821 23.9188,15.4731 24.4318,15.4621 C24.5818,15.4581 24.7328,15.4531 24.8828,15.4481 C25.2678,15.4351 25.6508,15.4201 26.0338,15.4011 C26.1808,15.3941 26.3258,15.3881 26.4718,15.3801 C26.9808,15.3501 27.4868,15.3171 27.9898,15.2761 C28.0458,15.2711 28.1008,15.2651 28.1558,15.2621 C28.6068,15.2231 29.0518,15.1801 29.4938,15.1331 C29.6478,15.1161 29.7988,15.0981 29.9508,15.0811 C30.3168,15.0381 30.6808,14.9921 31.0398,14.9431 C31.1768,14.9251 31.3148,14.9071 31.4498,14.8871 C31.9248,14.8181 32.3928,14.7441 32.8518,14.6641 C32.9348,14.6491 33.0158,14.6331 33.0988,14.6171 C33.4768,14.5491 33.8478,14.4751 34.2128,14.3981 C34.3558,14.3691 34.4948,14.3381 34.6358,14.3061 C34.9608,14.2331 35.2788,14.1571 35.5918,14.0781 C35.7058,14.0491 35.8228,14.0211 35.9358,13.9921 C36.3418,13.8841 36.7348,13.7701 37.1138,13.6511 C37.2008,13.6241 37.2828,13.5951 37.3678,13.5661 C37.6648,13.4701 37.9518,13.3691 38.2298,13.2641 C38.3428,13.2221 38.4548,13.1791 38.5658,13.1351 C38.8278,13.0301 39.0788,12.9221 39.3218,12.8101 C39.4008,12.7731 39.4848,12.7381 39.5628,12.7011 C39.8408,12.5671 40.1068,12.4291 40.3538,12.2851 L38.5618,25.5911 C34.9248,24.4241 29.8168,22.3071 24.9818,20.0081 C24.9268,18.9011 24.0178,18.0151 22.8978,18.0151 C21.7418,18.0151 20.8018,18.9561 20.8018,20.1111 C20.8018,21.2661 21.7418,22.2061 22.8978,22.2061 C23.3518,22.2061 23.7698,22.0571 24.1128,21.8101 C28.4448,23.8891 33.9758,26.3421 38.2928,27.5881 L36.5138,40.7981 Z M22.8958,4.0001 C33.3148,4.0001 40.6558,7.2281 40.7918,9.0211 L40.7658,9.2291 C40.7478,9.2911 40.7088,9.3541 40.6758,9.4181 C40.6488,9.4701 40.6288,9.5201 40.5918,9.5731 C40.5478,9.6351 40.4828,9.6981 40.4258,9.7611 C40.3748,9.8161 40.3318,9.8711 40.2708,9.9271 C40.2028,9.9881 40.1158,10.0511 40.0348,10.1131 C39.9598,10.1711 39.8938,10.2281 39.8078,10.2871 C39.7168,10.3471 39.6078,10.4091 39.5058,10.4711 C39.4068,10.5301 39.3158,10.5901 39.2048,10.6491 C39.0948,10.7091 38.9658,10.7671 38.8448,10.8271 C38.7208,10.8881 38.6048,10.9481 38.4688,11.0091 C38.3398,11.0661 38.1928,11.1231 38.0548,11.1801 C37.9048,11.2401 37.7638,11.3021 37.6038,11.3611 C37.4558,11.4171 37.2898,11.4711 37.1328,11.5251 C36.9618,11.5841 36.7978,11.6441 36.6158,11.7021 C36.4468,11.7561 36.2608,11.8061 36.0818,11.8591 C35.8918,11.9151 35.7088,11.9721 35.5088,12.0261 C35.3168,12.0781 35.1098,12.1261 34.9098,12.1761 C34.7028,12.2271 34.5028,12.2801 34.2858,12.3301 C34.0698,12.3791 33.8378,12.4241 33.6118,12.4711 C33.3938,12.5161 33.1818,12.5641 32.9538,12.6071 C32.7138,12.6531 32.4568,12.6941 32.2068,12.7371 C31.9768,12.7761 31.7538,12.8181 31.5148,12.8551 C31.2548,12.8951 30.9788,12.9311 30.7088,12.9681 C30.4648,13.0011 30.2268,13.0381 29.9748,13.0681 C29.6818,13.1041 29.3728,13.1341 29.0698,13.1651 C28.8258,13.1911 28.5898,13.2201 28.3398,13.2421 C28.0038,13.2731 27.6518,13.2961 27.3058,13.3201 C27.0728,13.3381 26.8478,13.3581 26.6098,13.3731 C26.2308,13.3951 25.8338,13.4091 25.4408,13.4261 C25.2248,13.4341 25.0148,13.4471 24.7938,13.4541 C24.1748,13.4721 23.5418,13.4821 22.8958,13.4821 C22.2498,13.4821 21.6168,13.4721 20.9968,13.4541 C20.7748,13.4471 20.5628,13.4331 20.3428,13.4251 C19.9528,13.4091 19.5598,13.3951 19.1818,13.3731 C18.9318,13.3571 18.6938,13.3361 18.4488,13.3181 C18.1158,13.2941 17.7758,13.2721 17.4528,13.2421 C17.2018,13.2201 16.9658,13.1901 16.7208,13.1651 C16.4178,13.1341 16.1088,13.1041 15.8168,13.0681 C15.5668,13.0381 15.3298,13.0021 15.0868,12.9681 C14.8168,12.9311 14.5388,12.8961 14.2778,12.8551 C14.0298,12.8171 13.7978,12.7731 13.5588,12.7321 C13.3178,12.6901 13.0708,12.6511 12.8398,12.6071 C12.6078,12.5631 12.3928,12.5151 12.1688,12.4691 C11.9468,12.4221 11.7188,12.3781 11.5058,12.3291 C11.2898,12.2801 11.0908,12.2271 10.8838,12.1761 C10.6838,12.1261 10.4758,12.0781 10.2848,12.0261 C10.0818,11.9721 9.8968,11.9141 9.7038,11.8571 C9.5278,11.8061 9.3448,11.7551 9.1778,11.7021 C8.9928,11.6431 8.8268,11.5831 8.6538,11.5221 C8.4988,11.4691 8.3358,11.4161 8.1908,11.3611 C8.0288,11.3021 7.8878,11.2391 7.7378,11.1791 C7.5998,11.1221 7.4528,11.0651 7.3248,11.0091 C7.1908,10.9481 7.0738,10.8881 6.9498,10.8271 C6.8288,10.7671 6.6988,10.7091 6.5888,10.6481 C6.4788,10.5891 6.3868,10.5291 6.2868,10.4691 C6.1858,10.4081 6.0768,10.3471 5.9868,10.2871 C5.8998,10.2271 5.8318,10.1691 5.7558,10.1101 C5.6768,10.0491 5.5908,9.9871 5.5248,9.9271 C5.4618,9.8701 5.4178,9.8131 5.3658,9.7581 C5.3098,9.6961 5.2468,9.6341 5.2028,9.5731 C5.1648,9.5191 5.1458,9.4671 5.1178,9.4131 C5.0858,9.3511 5.0468,9.2891 5.0298,9.2291 L5.0018,9.0201 C5.1408,7.2271 12.4798,4.0001 22.8958,4.0001 L22.8958,4.0001 Z M45.2548,26.2571 C45.0418,25.1071 43.7168,23.8891 41.0178,22.3471 L42.7338,9.5951 L42.7338,9.5911 L42.7338,9.5901 L42.7848,9.2001 C42.7908,9.1571 42.7938,9.1141 42.7938,9.0711 C42.7938,4.9041 32.3078,2.0001 22.8958,2.0001 C13.4848,2.0001 2.9998,4.9041 2.9998,9.0711 C2.9998,9.1151 3.0028,9.1591 3.0088,9.2031 L3.0608,9.5931 L3.0608,9.5951 L7.2898,41.0091 C7.4208,44.6851 16.9028,46.0571 22.8958,46.0571 C26.2108,46.0571 29.5338,45.7111 32.2528,45.0821 C33.3478,44.8301 34.3308,44.5331 35.1748,44.2001 C37.3408,43.3451 38.4598,42.2711 38.5038,41.0091 L40.2448,28.0801 C41.1968,28.2821 42.0618,28.4051 42.7808,28.4051 C43.7498,28.4051 44.4748,28.2001 44.8668,27.7321 C45.2168,27.3161 45.3548,26.7921 45.2548,26.2571 L45.2548,26.2571 Z" id="AWS-Amazon-Simple-Storage_Bucket_Resource-Icon_light-bg" fill="#3F8624"></path>
</g>
</svg></g>
</svg>



<svg width="100%" y="50%">
    <g class="component-informations" stroke="none" fill="#224F7C" font-family="Source Sans Pro" transform="translate(0 -40)">
        <text class="component-name" font-size="10" text-anchor="middle" x="50%" y="62">aws_s3_bucket</text>
        <text class="component-type" text-anchor="middle" font-size="8" x="50%" y="72">aws_s3_bucket</text>
    </g>
</svg>

<g class="anchors" stroke="#5B81A5" fill="#FFFFFF" opacity="1">
    <circle cx="50%" cy="0%" r="3" anchor="top"></circle>
    <circle cx="100%" cy="50%" r="3" anchor="right"></circle>
    <circle cx="50%" cy="100%" r="3" anchor="bottom"></circle>
    <circle cx="0%" cy="50%" r="3" anchor="left"></circle>
</g>
</svg>
</g><g id="aws_s3_bucket_acl" x="-131" y="-7" transform="translate(-131,-7)" class="component
    component-DefaultModel
    aws_s3_bucket_acl"><svg version="1.1" xmlns="http://www.w3.org/2000/svg" class="template" width="110" height="80" overflow="visible" id="svg-aws_s3_bucket_acl">
<rect class="component-background component-hitbox" stroke="#224F7C" fill="#FFFFFF" width="100%" height="100%" ry="4" rx="4"></rect>

<svg x="50%" y="50%" overflow="visible">
    <g class="component-icon" transform="translate(-22 -34)"><!--?xml version="1.0" encoding="UTF-8"?-->
<svg width="44px" height="44px" viewBox="0 0 48 48" version="1.1" xmlns="http://www.w3.org/2000/svg" xmlns:xlink="http://www.w3.org/1999/xlink">
<title>Icon-Resource/Storage/Res_AWS-Amazon-Simple-Storage_Bucket-With-Objects_48_Light</title>
<g id="Icon-Resource/Storage/Res_AWS-Amazon-Simple-Storage_Bucket-With-Objects_48" stroke="none" stroke-width="1" fill="none" fill-rule="evenodd">
    <path d="M40.354,26.059 L40.576,24.412 C42.336,25.484 42.887,26.107 43.049,26.372 C42.579,26.512 41.631,26.385 40.354,26.059 L40.354,26.059 Z M22.727,20.038 C22.727,19.989 22.767,19.948 22.817,19.948 C22.832,19.948 22.841,19.957 22.854,19.963 L22.785,20.103 C22.753,20.094 22.727,20.076 22.727,20.038 L22.727,20.038 Z M36.373,40.637 C36.367,40.682 36.364,40.726 36.364,40.771 C36.364,40.923 35.987,41.507 34.31,42.17 C33.562,42.465 32.679,42.731 31.684,42.959 C29.118,43.553 25.968,43.88 22.816,43.88 C14.388,43.88 9.271,41.721 9.271,40.771 C9.271,40.726 9.268,40.682 9.262,40.637 L5.44,12.253 C5.685,12.396 5.95,12.533 6.226,12.666 C6.295,12.7 6.372,12.732 6.444,12.765 C6.692,12.879 6.95,12.99 7.218,13.097 C7.326,13.14 7.435,13.182 7.545,13.224 C7.826,13.33 8.116,13.431 8.416,13.529 C8.496,13.555 8.573,13.583 8.655,13.609 C9.037,13.729 9.432,13.843 9.84,13.952 C9.943,13.979 10.05,14.004 10.156,14.031 C10.476,14.113 10.804,14.191 11.139,14.265 C11.272,14.295 11.404,14.324 11.539,14.353 C11.911,14.431 12.289,14.505 12.673,14.576 C12.75,14.589 12.823,14.605 12.9,14.618 C13.36,14.699 13.83,14.773 14.306,14.842 C14.434,14.861 14.564,14.877 14.693,14.895 C15.059,14.945 15.427,14.992 15.8,15.035 C15.947,15.052 16.093,15.069 16.24,15.085 C16.685,15.133 17.133,15.176 17.585,15.214 C17.638,15.219 17.69,15.224 17.743,15.229 C18.245,15.27 18.751,15.303 19.259,15.331 C19.401,15.339 19.542,15.346 19.685,15.353 C20.069,15.372 20.453,15.388 20.837,15.4 C20.988,15.405 21.137,15.41 21.288,15.413 C21.798,15.425 22.308,15.434 22.816,15.434 C23.324,15.434 23.833,15.425 24.344,15.413 C24.495,15.41 24.644,15.405 24.794,15.4 C25.179,15.388 25.564,15.372 25.948,15.353 C26.09,15.346 26.231,15.339 26.373,15.331 C26.881,15.303 27.388,15.27 27.891,15.229 C27.942,15.224 27.991,15.219 28.041,15.215 C28.496,15.177 28.947,15.133 29.394,15.084 C29.541,15.069 29.685,15.052 29.83,15.036 C30.206,14.992 30.578,14.945 30.946,14.894 C31.072,14.876 31.199,14.861 31.325,14.842 C31.803,14.773 32.275,14.699 32.737,14.618 C32.808,14.605 32.877,14.59 32.949,14.578 C33.339,14.506 33.722,14.431 34.099,14.352 C34.231,14.324 34.361,14.295 34.491,14.266 C34.83,14.191 35.162,14.112 35.486,14.029 C35.587,14.003 35.691,13.979 35.792,13.952 C36.201,13.843 36.599,13.729 36.982,13.608 C37.06,13.583 37.133,13.557 37.21,13.532 C37.514,13.432 37.809,13.33 38.093,13.222 C38.201,13.182 38.307,13.14 38.412,13.099 C38.684,12.991 38.946,12.878 39.196,12.762 C39.265,12.73 39.339,12.7 39.407,12.667 C39.684,12.534 39.949,12.396 40.195,12.253 L38.413,25.49 C34.792,24.328 29.708,22.221 24.897,19.933 C24.84,18.83 23.934,17.948 22.817,17.948 C21.665,17.948 20.727,18.885 20.727,20.038 C20.727,21.192 21.665,22.129 22.817,22.129 C23.269,22.129 23.686,21.982 24.028,21.737 C28.341,23.805 33.845,26.246 38.143,27.487 L36.373,40.637 Z M22.816,4 C33.188,4 40.496,7.212 40.632,8.995 L40.606,9.202 C40.587,9.263 40.548,9.327 40.515,9.39 C40.488,9.441 40.469,9.492 40.433,9.543 C40.388,9.607 40.323,9.671 40.263,9.736 C40.213,9.788 40.173,9.841 40.115,9.894 C40.043,9.959 39.953,10.024 39.868,10.089 C39.796,10.144 39.734,10.198 39.654,10.252 C39.558,10.317 39.444,10.382 39.334,10.447 C39.242,10.502 39.157,10.558 39.054,10.613 C38.937,10.676 38.801,10.74 38.671,10.802 C38.555,10.859 38.448,10.915 38.322,10.971 C38.183,11.033 38.026,11.093 37.875,11.155 C37.739,11.21 37.609,11.267 37.462,11.322 C37.301,11.382 37.123,11.441 36.951,11.499 C36.793,11.553 36.644,11.609 36.478,11.662 C36.298,11.718 36.101,11.773 35.911,11.829 C35.732,11.88 35.562,11.934 35.375,11.984 C35.177,12.038 34.963,12.087 34.756,12.138 C34.557,12.188 34.365,12.24 34.156,12.287 C33.941,12.335 33.708,12.381 33.484,12.427 C33.266,12.473 33.056,12.52 32.83,12.563 C32.588,12.609 32.331,12.65 32.08,12.693 C31.852,12.732 31.632,12.774 31.398,12.81 C31.132,12.851 30.851,12.886 30.576,12.924 C30.338,12.956 30.108,12.993 29.864,13.022 C29.578,13.057 29.276,13.085 28.98,13.117 C28.731,13.143 28.49,13.172 28.234,13.196 C27.91,13.225 27.57,13.246 27.236,13.271 C26.995,13.288 26.761,13.31 26.514,13.325 C26.134,13.348 25.739,13.362 25.346,13.377 C25.131,13.386 24.924,13.4 24.706,13.406 C24.089,13.424 23.458,13.434 22.816,13.434 C22.172,13.434 21.542,13.424 20.926,13.406 C20.715,13.4 20.514,13.386 20.306,13.378 C19.907,13.363 19.504,13.348 19.118,13.325 C18.882,13.311 18.661,13.29 18.431,13.274 C18.084,13.248 17.733,13.226 17.397,13.196 C17.156,13.173 16.928,13.146 16.693,13.121 C16.383,13.088 16.067,13.059 15.767,13.022 C15.538,12.995 15.323,12.96 15.099,12.93 C14.808,12.89 14.512,12.853 14.233,12.81 C14.013,12.776 13.808,12.737 13.595,12.701 C13.33,12.655 13.057,12.612 12.801,12.563 C12.587,12.522 12.389,12.477 12.183,12.435 C11.946,12.385 11.702,12.338 11.475,12.287 C11.278,12.242 11.096,12.193 10.907,12.146 C10.688,12.092 10.463,12.039 10.256,11.984 C10.079,11.936 9.917,11.884 9.747,11.835 C9.547,11.777 9.341,11.72 9.154,11.661 C8.994,11.61 8.85,11.557 8.699,11.505 C8.521,11.444 8.336,11.383 8.17,11.322 C8.029,11.268 7.905,11.214 7.772,11.161 C7.617,11.097 7.454,11.035 7.311,10.97 C7.189,10.916 7.084,10.861 6.971,10.806 C6.838,10.742 6.699,10.677 6.58,10.613 C6.478,10.558 6.395,10.503 6.303,10.449 C6.193,10.383 6.077,10.318 5.98,10.252 C5.901,10.198 5.838,10.144 5.768,10.09 C5.683,10.025 5.591,9.959 5.52,9.894 C5.461,9.841 5.42,9.788 5.372,9.736 C5.312,9.671 5.247,9.607 5.202,9.543 C5.165,9.492 5.146,9.441 5.12,9.39 C5.086,9.327 5.046,9.263 5.029,9.202 L5.002,8.995 C5.139,7.212 12.446,4 22.816,4 L22.816,4 Z M45.084,26.158 C44.872,25.013 43.553,23.8 40.865,22.263 L42.575,9.567 L42.575,9.564 L42.575,9.563 L42.625,9.175 C42.631,9.132 42.634,9.088 42.634,9.045 C42.634,4.894 32.19,2 22.816,2 C13.444,2 3,4.894 3,9.045 C3,9.088 3.003,9.132 3.009,9.175 L3.06,9.563 L3.06,9.564 L3.06,9.567 L7.272,40.848 C7.404,44.512 16.848,45.88 22.816,45.88 C26.115,45.88 29.424,45.536 32.134,44.909 C33.225,44.658 34.204,44.362 35.045,44.03 C37.204,43.176 38.319,42.106 38.363,40.848 L40.095,27.979 C41.041,28.179 41.902,28.301 42.618,28.301 C43.583,28.301 44.306,28.097 44.697,27.63 C45.045,27.215 45.183,26.692 45.084,26.158 L45.084,26.158 Z M12.654,26.43 L15.25,22.103 L17.846,26.43 L12.654,26.43 Z M20.483,27.922 C20.661,27.609 20.656,27.224 20.47,26.915 L16.107,19.645 C15.746,19.043 14.753,19.043 14.392,19.645 L10.03,26.915 C9.844,27.225 9.839,27.609 10.017,27.923 C10.195,28.237 10.527,28.43 10.887,28.43 L19.613,28.43 C19.973,28.43 20.305,28.237 20.483,27.922 L20.483,27.922 Z M29.646,29.302 C31.259,29.302 32.572,30.625 32.572,32.252 C32.572,33.878 31.259,35.202 29.646,35.202 C28.033,35.202 26.72,33.878 26.72,32.252 C26.72,30.625 28.033,29.302 29.646,29.302 L29.646,29.302 Z M29.646,37.202 C32.362,37.202 34.572,34.982 34.572,32.252 C34.572,29.523 32.362,27.302 29.646,27.302 C26.93,27.302 24.72,29.523 24.72,32.252 C24.72,34.982 26.93,37.202 29.646,37.202 L29.646,37.202 Z M14.599,38.645 L19.496,38.645 L19.496,33.666 L14.599,33.666 L14.599,38.645 Z M20.496,31.665 L13.598,31.665 C13.045,31.665 12.598,32.113 12.598,32.665 L12.598,39.645 C12.598,40.198 13.045,40.645 13.598,40.645 L20.496,40.645 C21.048,40.645 21.496,40.198 21.496,39.645 L21.496,32.665 C21.496,32.113 21.048,31.665 20.496,31.665 L20.496,31.665 Z" id="AWS-Amazon-Simple-Storage_Bucket-with-objects_Resource-Icon_light-bg" fill="#3F8624"></path>
</g>
</svg></g>
</svg>



<svg width="100%" y="50%">
    <g class="component-informations" stroke="none" fill="#224F7C" font-family="Source Sans Pro" transform="translate(0 -40)">
        <text class="component-name" font-size="10" text-anchor="middle" x="50%" y="62">aws_s3_bucket_acl</text>
        <text class="component-type" text-anchor="middle" font-size="8" x="50%" y="72">aws_s3_bucket_acl</text>
    </g>
</svg>

<g class="anchors" stroke="#5B81A5" fill="#FFFFFF" opacity="1">
    <circle cx="50%" cy="0%" r="3" anchor="top"></circle>
    <circle cx="100%" cy="50%" r="3" anchor="right"></circle>
    <circle cx="50%" cy="100%" r="3" anchor="bottom"></circle>
    <circle cx="0%" cy="50%" r="3" anchor="left"></circle>
</g>
</svg>
</g></g></g><defs></defs><path class="link" d="M845.497,545.474C823.065,545.474,823.065,545.474,800.634,545.474" id="link-aws_s3_bucket_acl-bucket-aws_s3_bucket_acl-aws_s3_bucket" fill="none" stroke="black" stroke-width="5.278031643091593" stroke-dasharray="none" marker-start="none" marker-end="url(#bucket-aws_s3_bucket_acl-aws_s3_bucket-arrow)" cursor="pointer"></path></svg>