<svg viewBox="0,0,1280,1280" preserveAspectRatio="xMinYMin meet" style="font: 10px sans-serif;"><g class="container" height="100%" width="100%" x="0" y="0" transform="translate(299.7628932903623,22.438610344001745) scale(2.581124980903557)"><g id="root-components"><g id="__shadowRoot" x="0" y="0" transform="translate(0,0)"></g><g id="aws_security_group_1" x="57" y="30" transform="translate(57,30)" class="component
        component-DefaultModel
        aws_security_group"><svg version="1.1" xmlns="http://www.w3.org/2000/svg" class="template" width="110" height="80" overflow="visible" id="svg-aws_security_group_1">
    <rect class="component-background component-hitbox" stroke="#224F7C" fill="#FFFFFF" width="100%" height="100%" ry="4" rx="4"></rect>

    <svg x="50%" y="50%" overflow="visible">
        <g class="component-icon" transform="translate(-22 -34)"><!--?xml version="1.0" encoding="iso-8859-1"?-->
<!-- Generator: Adobe Illustrator 19.0.0, SVG Export Plug-In . SVG Version: 6.00 Build 0)  -->
<svg version="1.1" id="Layer_1" xmlns="http://www.w3.org/2000/svg" xmlns:xlink="http://www.w3.org/1999/xlink" x="0px" y="0px" width="44px" height="44px" viewBox="0 0 489.5 489.5" style="enable-background:new 0 0 489.5 489.5;" xml:space="preserve">
<g>
	<g>
		<g>
			<circle style="fill:#94A4A4;" cx="33.2" cy="249.4" r="24.1"></circle>
		</g>
		<g>
			<circle style="fill:#94A4A4;" cx="33.2" cy="107.5" r="24.1"></circle>
		</g>
		<g>
			<circle style="fill:#94A4A4;" cx="33.2" cy="391.2" r="24.1"></circle>
		</g>
		<g>
			<circle style="fill:#94A4A4;" cx="456.2" cy="249.4" r="24.1"></circle>
		</g>
		<g>
			<circle style="fill:#94A4A4;" cx="456.2" cy="391.2" r="24.1"></circle>
		</g>
		<g>
			<circle style="fill:#94A4A4;" cx="456.2" cy="107.5" r="24.1"></circle>
		</g>
		<g>
			<path style="fill:#2C2F33;" d="M319.4,172.8h-2.7V137c0-39.7-32.3-72-72-72s-72,32.3-72,72c0,5,4.1,9.1,9.1,9.1s9.1-4.1,9.1-9.1
				c0-29.7,24.2-53.9,53.9-53.9s53.9,24.2,53.9,53.9v35.8H170c-13,0-23.6,10.6-23.6,23.6v98.3c0,13,10.6,23.6,23.6,23.6h149.3
				c13,0,23.6-10.6,23.6-23.6v-98.3C342.9,183.4,332.4,172.8,319.4,172.8z M324.8,294.6c0,3-2.4,5.4-5.4,5.4H170
				c-3,0-5.4-2.4-5.4-5.4v-98.3c0-3,2.4-5.4,5.4-5.4h149.3c3,0,5.4,2.4,5.4,5.4v98.3H324.8z"></path>
			<path style="fill:#2C2F33;" d="M247.3,219.9c-6.6-1.3-13.5,2.4-16.3,8.7c-2.9,6.5-1,13.8,4.9,18.1c1.2,0.9,1.4,1.7,1.4,3
				c0,6.5,0,12.9,0,19.4l0,0c0,5.3,5.6,9.4,11.3,6.5c2.4-1.2,3.8-3.8,3.6-6.5l0,0c0-6.5,0-12.9,0-19.4c0-1.4,0.3-2.3,1.6-3.2
				c4.1-3,6.1-7.1,6.1-12.1C259.7,227.2,254.6,221.3,247.3,219.9z"></path>
			<path style="fill:#2C2F33;" d="M115.4,240.3H65.1c-4-13.9-16.7-24.1-31.9-24.1C14.9,216.2,0,231.1,0,249.4s14.9,33.2,33.2,33.2
				c15.1,0,27.9-10.2,31.9-24.1h50.4c5,0,9.1-4.1,9.1-9.1C124.5,244.4,120.4,240.3,115.4,240.3z M33.2,264.4c-8.3,0-15-6.7-15-15
				c0-8.3,6.7-15,15-15s15,6.7,15,15S41.5,264.4,33.2,264.4z"></path>
			<path style="fill:#2C2F33;" d="M115.4,187H60.3c-9.9,0-18-8.1-18-18v-29.6c13.9-4,24.1-16.7,24.1-31.9
				c0-18.3-14.9-33.2-33.2-33.2S0,89.2,0,107.5c0,15.1,10.2,27.9,24.1,31.9V169c0,19.9,16.2,36.1,36.1,36.1h55.2
				c5,0,9.1-4.1,9.1-9.1C124.5,191,120.4,187,115.4,187z M18.1,107.5c0-8.3,6.7-15,15-15s15,6.7,15,15s-6.7,15-15,15
				S18.1,115.8,18.1,107.5z"></path>
			<path style="fill:#2C2F33;" d="M115.4,293.6H60.3c-19.9,0-36.1,16.2-36.1,36.1v29.6c-13.9,4-24.1,16.7-24.1,31.9
				c0,18.3,14.9,33.2,33.2,33.2s33.2-14.9,33.2-33.2c0-15.1-10.2-27.9-24.1-31.9v-29.6c0-9.9,8.1-18,18-18h55.2c5,0,9.1-4.1,9.1-9.1
				C124.5,297.7,120.4,293.6,115.4,293.6z M48.2,391.2c0,8.3-6.7,15-15,15s-15-6.7-15-15s6.7-15,15-15S48.2,382.9,48.2,391.2z"></path>
			<path style="fill:#2C2F33;" d="M456.2,216.2c-15.1,0-27.9,10.2-31.9,24.1h-50.4c-5,0-9.1,4.1-9.1,9.1s4.1,9.1,9.1,9.1h50.4
				c4,13.9,16.7,24.1,31.9,24.1c18.3,0,33.2-14.9,33.2-33.2S474.5,216.2,456.2,216.2z M456.2,264.4c-8.3,0-15-6.7-15-15
				c0-8.3,6.7-15,15-15s15,6.7,15,15C471.3,257.7,464.5,264.4,456.2,264.4z"></path>
			<path style="fill:#2C2F33;" d="M465.3,359.3v-29.6c0-19.9-16.2-36.1-36.1-36.1H374c-5,0-9.1,4.1-9.1,9.1s4.1,9.1,9.1,9.1h55.2
				c9.9,0,18,8.1,18,18v29.6c-13.9,4-24.1,16.7-24.1,31.9c0,18.3,14.9,33.2,33.2,33.2c18.3,0,33.2-14.9,33.2-33.2
				C489.4,376.1,479.2,363.3,465.3,359.3z M456.2,406.3c-8.3,0-15-6.7-15-15s6.7-15,15-15s15,6.7,15,15
				C471.3,399.5,464.5,406.3,456.2,406.3z"></path>
			<path style="fill:#2C2F33;" d="M374,205.1h55.2c19.9,0,36.1-16.2,36.1-36.1v-29.6c13.9-4,24.1-16.7,24.1-31.9
				c0-18.3-14.9-33.2-33.2-33.2c-18.3,0-33.2,14.9-33.2,33.2c0,15.1,10.2,27.9,24.1,31.9V169c0,9.9-8.1,18-18,18h-55.2
				c-5,0-9.1,4.1-9.1,9.1C364.9,201,369,205.1,374,205.1z M441.2,107.5c0-8.3,6.7-15,15-15s15,6.7,15,15s-6.7,15-15,15
				S441.2,115.8,441.2,107.5z"></path>
		</g>
	</g>
</g>
<g>
</g>
<g>
</g>
<g>
</g>
<g>
</g>
<g>
</g>
<g>
</g>
<g>
</g>
<g>
</g>
<g>
</g>
<g>
</g>
<g>
</g>
<g>
</g>
<g>
</g>
<g>
</g>
<g>
</g>
</svg>
</g>
    </svg>

    

    <svg width="100%" y="50%">
        <g class="component-informations" stroke="none" fill="#224F7C" font-family="Source Sans Pro" transform="translate(0 -40)">
            <text class="component-name" font-size="10" text-anchor="middle" x="50%" y="62">aws_security_group_1</text>
            <text class="component-type" text-anchor="middle" font-size="8" x="50%" y="72">aws_security_group</text>
        </g>
    </svg>

    <g class="anchors" stroke="#5B81A5" fill="#FFFFFF" opacity="1">
        <circle cx="50%" cy="0%" r="3" anchor="top"></circle>
        <circle cx="100%" cy="50%" r="3" anchor="right"></circle>
        <circle cx="50%" cy="100%" r="3" anchor="bottom"></circle>
        <circle cx="0%" cy="50%" r="3" anchor="left"></circle>
    </g>
</svg>
</g><g id="aws_instance_1" x="290" y="30" transform="translate(290,30)" class="component
        component-DefaultModel
        aws_instance"><svg version="1.1" xmlns="http://www.w3.org/2000/svg" class="template" width="110" height="80" overflow="visible" id="svg-aws_instance_1">
    <rect class="component-background component-hitbox" stroke="#224F7C" fill="#FFFFFF" width="100%" height="100%" ry="4" rx="4"></rect>

    <svg x="50%" y="50%" overflow="visible">
        <g class="component-icon" transform="translate(-22 -34)"><!--?xml version="1.0" encoding="UTF-8"?-->
<svg width="44px" height="44px" viewBox="0 0 48 48" version="1.1" xmlns="http://www.w3.org/2000/svg" xmlns:xlink="http://www.w3.org/1999/xlink">
    <title>Icon-Resource/Compute/Res_Amazon-EC2_A1-Instance_48_Light</title>
    <g id="Icon-Resource/Compute/Res_Amazon-EC2_A1-Instance_48" stroke="none" stroke-width="1" fill="none" fill-rule="evenodd">
        <path d="M28.355,20.817 L25.737,21.796 L25.737,20.453 L28.509,19.165 L30.021,19.165 L30.021,28.867 L28.355,28.867 L28.355,20.817 Z M19.99,20.705 L21.537,25.184 L18.457,25.184 L19.99,20.705 Z M18.05,26.43 L21.929,26.43 L22.741,28.867 L24.449,28.867 L20.956,19.165 L19.107,19.165 L15.559,28.867 L17.267,28.867 L18.05,26.43 Z M9,39 L39,39 L39,9 L9,9 L9,39 Z M46,13 L46,11 L41,11 L41,8 C41,7.447 40.552,7 40,7 L37,7 L37,2 L35,2 L35,7 L31,7 L31,2 L29,2 L29,7 L25,7 L25,2 L23,2 L23,7 L19,7 L19,2 L17,2 L17,7 L13,7 L13,2 L11,2 L11,7 L8,7 C7.447,7 7,7.447 7,8 L7,11 L2,11 L2,13 L7,13 L7,17 L2,17 L2,19 L7,19 L7,23 L2,23 L2,25 L7,25 L7,29 L2,29 L2,31 L7,31 L7,35 L2,35 L2,37 L7,37 L7,40 C7,40.552 7.447,41 8,41 L11,41 L11,46 L13,46 L13,41 L17,41 L17,46 L19,46 L19,41 L23,41 L23,46 L25,46 L25,41 L29,41 L29,46 L31,46 L31,41 L35,41 L35,46 L37,46 L37,41 L40,41 C40.552,41 41,40.552 41,40 L41,37 L46,37 L46,35 L41,35 L41,31 L46,31 L46,29 L41,29 L41,25 L46,25 L46,23 L41,23 L41,19 L46,19 L46,17 L41,17 L41,13 L46,13 Z" id="Amazon-EC2-A1-Instance_Resource-Icon_light-bg" fill="#D45B07"></path>
    </g>
</svg>
</g>
    </svg>

    

    <svg width="100%" y="50%">
        <g class="component-informations" stroke="none" fill="#224F7C" font-family="Source Sans Pro" transform="translate(0 -40)">
            <text class="component-name" font-size="10" text-anchor="middle" x="50%" y="62">aws_instance_1</text>
            <text class="component-type" text-anchor="middle" font-size="8" x="50%" y="72">aws_instance</text>
        </g>
    </svg>

    <g class="anchors" stroke="#5B81A5" fill="#FFFFFF" opacity="1">
        <circle cx="50%" cy="0%" r="3" anchor="top"></circle>
        <circle cx="100%" cy="50%" r="3" anchor="right"></circle>
        <circle cx="50%" cy="100%" r="3" anchor="bottom"></circle>
        <circle cx="0%" cy="50%" r="3" anchor="left"></circle>
    </g>
</svg>
</g><g id="aws_ebs_volume_1" x="163" y="153" transform="translate(163,153)" class="component
        component-DefaultModel
        aws_ebs_volume"><svg version="1.1" xmlns="http://www.w3.org/2000/svg" class="template" width="110" height="80" overflow="visible" id="svg-aws_ebs_volume_1">
    <rect class="component-background component-hitbox" stroke="#224F7C" fill="#FFFFFF" width="100%" height="100%" ry="4" rx="4"></rect>

    <svg x="50%" y="50%" overflow="visible">
        <g class="component-icon" transform="translate(-22 -34)"><!--?xml version="1.0" encoding="UTF-8"?-->
<svg width="44px" height="44px" viewBox="0 0 48 48" version="1.1" xmlns="http://www.w3.org/2000/svg" xmlns:xlink="http://www.w3.org/1999/xlink">
    <title>Icon-Resource/Storage/Res_AWS-Amazon-Elastic-Block-Store_Volumes_48_Light</title>
    <g id="Icon-Resource/Storage/Res_AWS-Amazon-Elastic-Block-Store_Volumes_48" stroke="none" stroke-width="1" fill="none" fill-rule="evenodd">
        <path d="M13.4185,4 L33.8805,4 L38.2965,9.873 L9.0035,9.873 L13.4185,4 Z M7.0005,11.873 L40.2995,11.873 C40.6785,11.873 41.0245,11.659 41.1935,11.319 C41.3635,10.98 41.3265,10.575 41.0985,10.272 L35.1785,2.399 C34.9895,2.147 34.6935,2 34.3795,2 L12.9195,2 C12.6055,2 12.3095,2.147 12.1205,2.399 L6.2015,10.272 C5.9735,10.575 5.9365,10.98 6.1065,11.319 C6.2745,11.659 6.6215,11.873 7.0005,11.873 L7.0005,11.873 Z M8.0605,43.985 L39.2995,43.985 L39.2995,15.371 L8.0605,15.371 L8.0605,43.985 Z M40.2995,13.371 L7.0605,13.371 C6.5075,13.371 6.0605,13.818 6.0605,14.371 L6.0605,44.985 C6.0605,45.538 6.5075,45.985 7.0605,45.985 L40.2995,45.985 C40.8525,45.985 41.2995,45.538 41.2995,44.985 L41.2995,14.371 C41.2995,13.818 40.8525,13.371 40.2995,13.371 L40.2995,13.371 Z" id="AWS-Amazon-Elastic-Block-Store_Volumes_Resource-Icon_light-bg" fill="#3F8624"></path>
    </g>
</svg>
</g>
    </svg>

    

    <svg width="100%" y="50%">
        <g class="component-informations" stroke="none" fill="#224F7C" font-family="Source Sans Pro" transform="translate(0 -40)">
            <text class="component-name" font-size="10" text-anchor="middle" x="50%" y="62">aws_ebs_volume_1</text>
            <text class="component-type" text-anchor="middle" font-size="8" x="50%" y="72">aws_ebs_volume</text>
        </g>
    </svg>

    <g class="anchors" stroke="#5B81A5" fill="#FFFFFF" opacity="1">
        <circle cx="50%" cy="0%" r="3" anchor="top"></circle>
        <circle cx="100%" cy="50%" r="3" anchor="right"></circle>
        <circle cx="50%" cy="100%" r="3" anchor="bottom"></circle>
        <circle cx="0%" cy="50%" r="3" anchor="left"></circle>
    </g>
</svg>
</g></g></g><path class="link" d="M1039.225,301.835C1026.986,301.835,1026.986,301.835,1014.746,301.835" id="link-aws_instance-security_groups-aws_instance_1-aws_security_group_1" fill="none" stroke="black" stroke-width="2" stroke-dasharray="none" cursor="pointer"></path></svg>
