<svg xmlns="http://www.w3.org/2000/svg" viewBox="0,0,1280,1280" preserveAspectRatio="xMinYMin meet" style="font: 10px sans-serif;"><g class="container" height="100%" width="100%" x="0" y="0" transform="translate(86,46) scale(1)"><g id="root-components"><g id="__shadowRoot" x="0" y="0" transform="translate(0,0)"></g><g id="aws" x="253" y="139" transform="translate(253,139)" class="component
        component-DefaultModel
        aws"><svg version="1.1" xmlns="http://www.w3.org/2000/svg" id="svg-aws" height="50" width="242">
	<rect class="component-bg" width="230" height="50" fill="#474262" fill-rule="evenodd" rx="5" ry="5" style="paint-order:stroke fill markers"></rect>
	<rect class="icon-bg" width="38" height="38" fill="white" fill-rule="evenodd" rx="4" ry="4" x="6" y="6" style="paint-order:stroke fill markers"></rect>
	<svg class="component-icon" x="9" y="9" width="32" height="32" fill="#474262"><!--?xml version="1.0" encoding="utf-8"?-->
		<!-- Generator: Adobe Illustrator 19.0.1, SVG Export Plug-In . SVG Version: 6.00 Build 0)  -->
		<svg version="1.1" id="Layer_1" xmlns="http://www.w3.org/2000/svg" xmlns:xlink="http://www.w3.org/1999/xlink" x="0px" y="0px" width="32px" height="32px" viewBox="0 0 304 182" style="enable-background:new 0 0 304 182;" xml:space="preserve">
<style type="text/css">
	.st0{fill:#252F3E;}
	.st1{fill-rule:evenodd;clip-rule:evenodd;fill:#FF9900;}
</style>
			<g>
	<path class="st0" d="M86.4,66.4c0,3.7,0.4,6.7,1.1,8.9c0.8,2.2,1.8,4.6,3.2,7.2c0.5,0.8,0.7,1.6,0.7,2.3c0,1-0.6,2-1.9,3l-6.3,4.2
		c-0.9,0.6-1.8,0.9-2.6,0.9c-1,0-2-0.5-3-1.4C76.2,90,75,88.4,74,86.8c-1-1.7-2-3.6-3.1-5.9c-7.8,9.2-17.6,13.8-29.4,13.8
		c-8.4,0-15.1-2.4-20-7.2c-4.9-4.8-7.4-11.2-7.4-19.2c0-8.5,3-15.4,9.1-20.6c6.1-5.2,14.2-7.8,24.5-7.8c3.4,0,6.9,0.3,10.6,0.8
		c3.7,0.5,7.5,1.3,11.5,2.2v-7.3c0-7.6-1.6-12.9-4.7-16c-3.2-3.1-8.6-4.6-16.3-4.6c-3.5,0-7.1,0.4-10.8,1.3c-3.7,0.9-7.3,2-10.8,3.4
		c-1.6,0.7-2.8,1.1-3.5,1.3c-0.7,0.2-1.2,0.3-1.6,0.3c-1.4,0-2.1-1-2.1-3.1v-4.9c0-1.6,0.2-2.8,0.7-3.5c0.5-0.7,1.4-1.4,2.8-2.1
		c3.5-1.8,7.7-3.3,12.6-4.5c4.9-1.3,10.1-1.9,15.6-1.9c11.9,0,20.6,2.7,26.2,8.1c5.5,5.4,8.3,13.6,8.3,24.6V66.4z M45.8,81.6
		c3.3,0,6.7-0.6,10.3-1.8c3.6-1.2,6.8-3.4,9.5-6.4c1.6-1.9,2.8-4,3.4-6.4c0.6-2.4,1-5.3,1-8.7v-4.2c-2.9-0.7-6-1.3-9.2-1.7
		c-3.2-0.4-6.3-0.6-9.4-0.6c-6.7,0-11.6,1.3-14.9,4c-3.3,2.7-4.9,6.5-4.9,11.5c0,4.7,1.2,8.2,3.7,10.6
		C37.7,80.4,41.2,81.6,45.8,81.6z M126.1,92.4c-1.8,0-3-0.3-3.8-1c-0.8-0.6-1.5-2-2.1-3.9L96.7,10.2c-0.6-2-0.9-3.3-0.9-4
		c0-1.6,0.8-2.5,2.4-2.5h9.8c1.9,0,3.2,0.3,3.9,1c0.8,0.6,1.4,2,2,3.9l16.8,66.2l15.6-66.2c0.5-2,1.1-3.3,1.9-3.9c0.8-0.6,2.2-1,4-1
		h8c1.9,0,3.2,0.3,4,1c0.8,0.6,1.5,2,1.9,3.9l15.8,67l17.3-67c0.6-2,1.3-3.3,2-3.9c0.8-0.6,2.1-1,3.9-1h9.3c1.6,0,2.5,0.8,2.5,2.5
		c0,0.5-0.1,1-0.2,1.6c-0.1,0.6-0.3,1.4-0.7,2.5l-24.1,77.3c-0.6,2-1.3,3.3-2.1,3.9c-0.8,0.6-2.1,1-3.8,1h-8.6c-1.9,0-3.2-0.3-4-1
		c-0.8-0.7-1.5-2-1.9-4L156,23l-15.4,64.4c-0.5,2-1.1,3.3-1.9,4c-0.8,0.7-2.2,1-4,1H126.1z M254.6,95.1c-5.2,0-10.4-0.6-15.4-1.8
		c-5-1.2-8.9-2.5-11.5-4c-1.6-0.9-2.7-1.9-3.1-2.8c-0.4-0.9-0.6-1.9-0.6-2.8v-5.1c0-2.1,0.8-3.1,2.3-3.1c0.6,0,1.2,0.1,1.8,0.3
		c0.6,0.2,1.5,0.6,2.5,1c3.4,1.5,7.1,2.7,11,3.5c4,0.8,7.9,1.2,11.9,1.2c6.3,0,11.2-1.1,14.6-3.3c3.4-2.2,5.2-5.4,5.2-9.5
		c0-2.8-0.9-5.1-2.7-7c-1.8-1.9-5.2-3.6-10.1-5.2L246,52c-7.3-2.3-12.7-5.7-16-10.2c-3.3-4.4-5-9.3-5-14.5c0-4.2,0.9-7.9,2.7-11.1
		c1.8-3.2,4.2-6,7.2-8.2c3-2.3,6.4-4,10.4-5.2c4-1.2,8.2-1.7,12.6-1.7c2.2,0,4.5,0.1,6.7,0.4c2.3,0.3,4.4,0.7,6.5,1.1
		c2,0.5,3.9,1,5.7,1.6c1.8,0.6,3.2,1.2,4.2,1.8c1.4,0.8,2.4,1.6,3,2.5c0.6,0.8,0.9,1.9,0.9,3.3v4.7c0,2.1-0.8,3.2-2.3,3.2
		c-0.8,0-2.1-0.4-3.8-1.2c-5.7-2.6-12.1-3.9-19.2-3.9c-5.7,0-10.2,0.9-13.3,2.8c-3.1,1.9-4.7,4.8-4.7,8.9c0,2.8,1,5.2,3,7.1
		c2,1.9,5.7,3.8,11,5.5l14.2,4.5c7.2,2.3,12.4,5.5,15.5,9.6c3.1,4.1,4.6,8.8,4.6,14c0,4.3-0.9,8.2-2.6,11.6
		c-1.8,3.4-4.2,6.4-7.3,8.8c-3.1,2.5-6.8,4.3-11.1,5.6C264.4,94.4,259.7,95.1,254.6,95.1z"></path>
				<g>
		<path class="st1" d="M273.5,143.7c-32.9,24.3-80.7,37.2-121.8,37.2c-57.6,0-109.5-21.3-148.7-56.7c-3.1-2.8-0.3-6.6,3.4-4.4
			c42.4,24.6,94.7,39.5,148.8,39.5c36.5,0,76.6-7.6,113.5-23.2C274.2,133.6,278.9,139.7,273.5,143.7z"></path>
					<path class="st1" d="M287.2,128.1c-4.2-5.4-27.8-2.6-38.5-1.3c-3.2,0.4-3.7-2.4-0.8-4.5c18.8-13.2,49.7-9.4,53.3-5
			c3.6,4.5-1,35.4-18.6,50.2c-2.7,2.3-5.3,1.1-4.1-1.9C282.5,155.7,291.4,133.4,287.2,128.1z"></path>
	</g>
</g>
</svg>
	</svg>
	<text class="component-name" x="50" y="21" style="font-family:Calibri;font-size:16px;font-weight:600" fill="white" xml:space="preserve">aws</text>
    <text class="component-type" x="50" y="36" style="font-family:Calibri;font-size:12px;font-style:italic" fill="white" xml:space="preserve">aws</text>
</svg>
</g><g id="tomcat" x="404" y="210" transform="translate(404,210)" class="component
        component-DefaultModel
        aws_instance"><svg version="1.1" xmlns="http://www.w3.org/2000/svg" id="svg-tomcat" height="50" width="242">
	<rect class="component-bg" width="230" height="50" fill="#474262" fill-rule="evenodd" rx="5" ry="5" style="paint-order:stroke fill markers"></rect>
	<rect class="icon-bg" width="38" height="38" fill="white" fill-rule="evenodd" rx="4" ry="4" x="6" y="6" style="paint-order:stroke fill markers"></rect>
	<svg class="component-icon" x="9" y="9" width="32" height="32" fill="#474262"><!--?xml version="1.0" encoding="UTF-8"?-->
		<svg width="32px" height="32px" viewBox="0 0 48 48" version="1.1" xmlns="http://www.w3.org/2000/svg" xmlns:xlink="http://www.w3.org/1999/xlink">
			<title>Icon-Resource/Compute/Res_Amazon-EC2_A1-Instance_48_Light</title>
			<g id="Icon-Resource/Compute/Res_Amazon-EC2_A1-Instance_48" stroke="none" stroke-width="1" fill="none" fill-rule="evenodd">
				<path d="M28.355,20.817 L25.737,21.796 L25.737,20.453 L28.509,19.165 L30.021,19.165 L30.021,28.867 L28.355,28.867 L28.355,20.817 Z M19.99,20.705 L21.537,25.184 L18.457,25.184 L19.99,20.705 Z M18.05,26.43 L21.929,26.43 L22.741,28.867 L24.449,28.867 L20.956,19.165 L19.107,19.165 L15.559,28.867 L17.267,28.867 L18.05,26.43 Z M9,39 L39,39 L39,9 L9,9 L9,39 Z M46,13 L46,11 L41,11 L41,8 C41,7.447 40.552,7 40,7 L37,7 L37,2 L35,2 L35,7 L31,7 L31,2 L29,2 L29,7 L25,7 L25,2 L23,2 L23,7 L19,7 L19,2 L17,2 L17,7 L13,7 L13,2 L11,2 L11,7 L8,7 C7.447,7 7,7.447 7,8 L7,11 L2,11 L2,13 L7,13 L7,17 L2,17 L2,19 L7,19 L7,23 L2,23 L2,25 L7,25 L7,29 L2,29 L2,31 L7,31 L7,35 L2,35 L2,37 L7,37 L7,40 C7,40.552 7.447,41 8,41 L11,41 L11,46 L13,46 L13,41 L17,41 L17,46 L19,46 L19,41 L23,41 L23,46 L25,46 L25,41 L29,41 L29,46 L31,46 L31,41 L35,41 L35,46 L37,46 L37,41 L40,41 C40.552,41 41,40.552 41,40 L41,37 L46,37 L46,35 L41,35 L41,31 L46,31 L46,29 L41,29 L41,25 L46,25 L46,23 L41,23 L41,19 L46,19 L46,17 L41,17 L41,13 L46,13 Z" id="Amazon-EC2-A1-Instance_Resource-Icon_light-bg" fill="#D45B07"></path>
			</g>
		</svg>
	</svg>
	<text class="component-name" x="50" y="21" style="font-family:Calibri;font-size:16px;font-weight:600" fill="white" xml:space="preserve">tomcat</text>
    <text class="component-type" x="50" y="36" style="font-family:Calibri;font-size:12px;font-style:italic" fill="white" xml:space="preserve">aws_instance</text>
</svg>
</g><g id="postgres" x="46" y="212" transform="translate(46,212)" class="component
        component-DefaultModel
        aws_db_instance"><svg version="1.1" xmlns="http://www.w3.org/2000/svg" id="svg-postgres" height="50" width="242">
	<rect class="component-bg" width="230" height="50" fill="#474262" fill-rule="evenodd" rx="5" ry="5" style="paint-order:stroke fill markers"></rect>
	<rect class="icon-bg" width="38" height="38" fill="white" fill-rule="evenodd" rx="4" ry="4" x="6" y="6" style="paint-order:stroke fill markers"></rect>
	<svg class="component-icon" x="9" y="9" width="32" height="32" fill="#474262"><!--?xml version="1.0" encoding="UTF-8"?-->
		<svg width="32px" height="32px" viewBox="0 0 48 48" version="1.1" xmlns="http://www.w3.org/2000/svg" xmlns:xlink="http://www.w3.org/1999/xlink">
			<title>Icon-Resource/Compute/Res_Amazon-EC2_DB-Instance_48_Light</title>
			<g id="Icon-Resource/Compute/Res_Amazon-EC2_DB-Instance_48" stroke="none" stroke-width="1" fill="none" fill-rule="evenodd">
				<path d="M43.284,42.092 L43.284,29.848 C41.817,30.552 39.744,30.888 37.751,30.888 C35.393,30.888 33.511,30.558 32.217,29.951 L32.217,42.092 C32.217,42.638 34.24,44.356 37.751,44.356 C41.261,44.356 43.284,42.638 43.284,42.092 M32.217,27.355 C32.217,27.996 34.139,28.888 37.751,28.888 C41.559,28.888 43.284,27.71 43.284,27.353 C43.284,27.027 41.619,26 37.751,26 C34.055,26 32.294,26.97 32.217,27.355 M45.284,27.353 L45.284,42.092 C45.284,44.363 41.763,46.356 37.751,46.356 C33.737,46.356 30.217,44.363 30.217,42.092 L30.217,27.353 C30.217,24.878 34.275,24 37.751,24 C41.392,24 45.284,24.881 45.284,27.353 M27,35 L27,40 L25,40 L25,36 L22,36 L22,40 L20,40 L20,36 L17,36 L17,40 L15,40 L15,36 L12,36 L12,40 L10,40 L10,36 L7,36 C6.447,36 6,35.553 6,35 L6,32 L2,32 L2,30 L6,30 L6,27 L2,27 L2,25 L6,25 L6,22 L2,22 L2,20 L6,20 L6,17 L2,17 L2,15 L6,15 L6,12 L2,12 L2,10 L6,10 L6,7 C6,6.447 6.447,6 7,6 L10,6 L10,2 L12,2 L12,6 L15,6 L15,2 L17,2 L17,6 L20,6 L20,2 L22,2 L22,6 L25,6 L25,2 L27,2 L27,6 L30,6 L30,2 L32,2 L32,6 L35,6 C35.553,6 36,6.447 36,7 L36,10 L40,10 L40,12 L36,12 L36,15 L40,15 L40,17 L36,17 L36,20 L40,20 L40,22 L35,22 C34.447,22 34,21.553 34,21 L34,8 L8,8 L8,34 L26,34 C26.553,34 27,34.447 27,35" id="Amazon-EC2-DB-instance_Resource-Icon_light-bg" fill="#D45B07"></path>
			</g>
		</svg>
	</svg>
	<text class="component-name" x="50" y="21" style="font-family:Calibri;font-size:16px;font-weight:600" fill="white" xml:space="preserve">postgres</text>
    <text class="component-type" x="50" y="36" style="font-family:Calibri;font-size:12px;font-style:italic" fill="white" xml:space="preserve">aws_db_instance</text>
</svg>
</g><g id="securityGroup" x="426" y="302" transform="translate(426,302)" class="component
        component-DefaultModel
        aws_security_group"><svg version="1.1" xmlns="http://www.w3.org/2000/svg" id="svg-securityGroup" height="50" width="242">
	<rect class="component-bg" width="230" height="50" fill="#474262" fill-rule="evenodd" rx="5" ry="5" style="paint-order:stroke fill markers"></rect>
	<rect class="icon-bg" width="38" height="38" fill="white" fill-rule="evenodd" rx="4" ry="4" x="6" y="6" style="paint-order:stroke fill markers"></rect>
	<svg class="component-icon" x="9" y="9" width="32" height="32" fill="#474262"><!--?xml version="1.0" encoding="iso-8859-1"?-->
		<!-- Generator: Adobe Illustrator 19.0.0, SVG Export Plug-In . SVG Version: 6.00 Build 0)  -->
		<svg version="1.1" id="Layer_1" xmlns="http://www.w3.org/2000/svg" xmlns:xlink="http://www.w3.org/1999/xlink" x="0px" y="0px" width="32px" height="32px" viewBox="0 0 489.5 489.5" style="enable-background:new 0 0 489.5 489.5;" xml:space="preserve">
<g>
	<g>
		<g>
			<circle style="fill:#94A4A4;" cx="33.2" cy="249.4" r="24.1"></circle>
		</g>
		<g>
			<circle style="fill:#94A4A4;" cx="33.2" cy="107.5" r="24.1"></circle>
		</g>
		<g>
			<circle style="fill:#94A4A4;" cx="33.2" cy="391.2" r="24.1"></circle>
		</g>
		<g>
			<circle style="fill:#94A4A4;" cx="456.2" cy="249.4" r="24.1"></circle>
		</g>
		<g>
			<circle style="fill:#94A4A4;" cx="456.2" cy="391.2" r="24.1"></circle>
		</g>
		<g>
			<circle style="fill:#94A4A4;" cx="456.2" cy="107.5" r="24.1"></circle>
		</g>
		<g>
			<path style="fill:#2C2F33;" d="M319.4,172.8h-2.7V137c0-39.7-32.3-72-72-72s-72,32.3-72,72c0,5,4.1,9.1,9.1,9.1s9.1-4.1,9.1-9.1
				c0-29.7,24.2-53.9,53.9-53.9s53.9,24.2,53.9,53.9v35.8H170c-13,0-23.6,10.6-23.6,23.6v98.3c0,13,10.6,23.6,23.6,23.6h149.3
				c13,0,23.6-10.6,23.6-23.6v-98.3C342.9,183.4,332.4,172.8,319.4,172.8z M324.8,294.6c0,3-2.4,5.4-5.4,5.4H170
				c-3,0-5.4-2.4-5.4-5.4v-98.3c0-3,2.4-5.4,5.4-5.4h149.3c3,0,5.4,2.4,5.4,5.4v98.3H324.8z"></path>
			<path style="fill:#2C2F33;" d="M247.3,219.9c-6.6-1.3-13.5,2.4-16.3,8.7c-2.9,6.5-1,13.8,4.9,18.1c1.2,0.9,1.4,1.7,1.4,3
				c0,6.5,0,12.9,0,19.4l0,0c0,5.3,5.6,9.4,11.3,6.5c2.4-1.2,3.8-3.8,3.6-6.5l0,0c0-6.5,0-12.9,0-19.4c0-1.4,0.3-2.3,1.6-3.2
				c4.1-3,6.1-7.1,6.1-12.1C259.7,227.2,254.6,221.3,247.3,219.9z"></path>
			<path style="fill:#2C2F33;" d="M115.4,240.3H65.1c-4-13.9-16.7-24.1-31.9-24.1C14.9,216.2,0,231.1,0,249.4s14.9,33.2,33.2,33.2
				c15.1,0,27.9-10.2,31.9-24.1h50.4c5,0,9.1-4.1,9.1-9.1C124.5,244.4,120.4,240.3,115.4,240.3z M33.2,264.4c-8.3,0-15-6.7-15-15
				c0-8.3,6.7-15,15-15s15,6.7,15,15S41.5,264.4,33.2,264.4z"></path>
			<path style="fill:#2C2F33;" d="M115.4,187H60.3c-9.9,0-18-8.1-18-18v-29.6c13.9-4,24.1-16.7,24.1-31.9
				c0-18.3-14.9-33.2-33.2-33.2S0,89.2,0,107.5c0,15.1,10.2,27.9,24.1,31.9V169c0,19.9,16.2,36.1,36.1,36.1h55.2
				c5,0,9.1-4.1,9.1-9.1C124.5,191,120.4,187,115.4,187z M18.1,107.5c0-8.3,6.7-15,15-15s15,6.7,15,15s-6.7,15-15,15
				S18.1,115.8,18.1,107.5z"></path>
			<path style="fill:#2C2F33;" d="M115.4,293.6H60.3c-19.9,0-36.1,16.2-36.1,36.1v29.6c-13.9,4-24.1,16.7-24.1,31.9
				c0,18.3,14.9,33.2,33.2,33.2s33.2-14.9,33.2-33.2c0-15.1-10.2-27.9-24.1-31.9v-29.6c0-9.9,8.1-18,18-18h55.2c5,0,9.1-4.1,9.1-9.1
				C124.5,297.7,120.4,293.6,115.4,293.6z M48.2,391.2c0,8.3-6.7,15-15,15s-15-6.7-15-15s6.7-15,15-15S48.2,382.9,48.2,391.2z"></path>
			<path style="fill:#2C2F33;" d="M456.2,216.2c-15.1,0-27.9,10.2-31.9,24.1h-50.4c-5,0-9.1,4.1-9.1,9.1s4.1,9.1,9.1,9.1h50.4
				c4,13.9,16.7,24.1,31.9,24.1c18.3,0,33.2-14.9,33.2-33.2S474.5,216.2,456.2,216.2z M456.2,264.4c-8.3,0-15-6.7-15-15
				c0-8.3,6.7-15,15-15s15,6.7,15,15C471.3,257.7,464.5,264.4,456.2,264.4z"></path>
			<path style="fill:#2C2F33;" d="M465.3,359.3v-29.6c0-19.9-16.2-36.1-36.1-36.1H374c-5,0-9.1,4.1-9.1,9.1s4.1,9.1,9.1,9.1h55.2
				c9.9,0,18,8.1,18,18v29.6c-13.9,4-24.1,16.7-24.1,31.9c0,18.3,14.9,33.2,33.2,33.2c18.3,0,33.2-14.9,33.2-33.2
				C489.4,376.1,479.2,363.3,465.3,359.3z M456.2,406.3c-8.3,0-15-6.7-15-15s6.7-15,15-15s15,6.7,15,15
				C471.3,399.5,464.5,406.3,456.2,406.3z"></path>
			<path style="fill:#2C2F33;" d="M374,205.1h55.2c19.9,0,36.1-16.2,36.1-36.1v-29.6c13.9-4,24.1-16.7,24.1-31.9
				c0-18.3-14.9-33.2-33.2-33.2c-18.3,0-33.2,14.9-33.2,33.2c0,15.1,10.2,27.9,24.1,31.9V169c0,9.9-8.1,18-18,18h-55.2
				c-5,0-9.1,4.1-9.1,9.1C364.9,201,369,205.1,374,205.1z M441.2,107.5c0-8.3,6.7-15,15-15s15,6.7,15,15s-6.7,15-15,15
				S441.2,115.8,441.2,107.5z"></path>
		</g>
	</g>
</g>
			<g>
</g>
			<g>
</g>
			<g>
</g>
			<g>
</g>
			<g>
</g>
			<g>
</g>
			<g>
</g>
			<g>
</g>
			<g>
</g>
			<g>
</g>
			<g>
</g>
			<g>
</g>
			<g>
</g>
			<g>
</g>
			<g>
</g>
</svg>
	</svg>
	<text class="component-name" x="50" y="21" style="font-family:Calibri;font-size:16px;font-weight:600" fill="white" xml:space="preserve">securityGroup</text>
    <text class="component-type" x="50" y="36" style="font-family:Calibri;font-size:12px;font-style:italic" fill="white" xml:space="preserve">aws_security_group</text>
</svg>
</g></g></g><path class="link" d="M362.0000119605714,283.0000179408571C437.00000598028566,283.0000179408571,437.00000598028566,373.0000320760779,511.99999999999994,373.0000320760779" fill="none" stroke="black" stroke-width="2" cursor="pointer"></path></svg>
