<svg viewBox="0,0,1280,1280" preserveAspectRatio="xMinYMin meet" style="font: 10px sans-serif;"><g class="container" height="100%" width="100%" x="0" y="0" transform="translate(186.39174904548713,75.51335199392813) scale(0.6070974421975234)"><g id="root-components"><g id="__shadowRoot" x="0" y="0" transform="translate(0,0)"></g><g id="truck" x="28" y="30" transform="translate(28,30)" class="component
        component-DefaultContainer
        truck"><svg version="1.1" xmlns="http://www.w3.org/2000/svg" class="template" width="300" height="630" overflow="visible" id="svg-truck">
    <rect class="component-background" stroke="#474262" fill="#FFFFFF" width="300" height="630" ry="4" rx="4"></rect>

    <svg x="50%" y="7" overflow="visible">
        <g class="component-icon" transform="translate(-22)"><svg xmlns="http://www.w3.org/2000/svg" viewBox="0 0 640 512" width="44" height="44"><!--! Font Awesome Pro 6.2.1 by @fontawesome - https://fontawesome.com License - https://fontawesome.com/license (Commercial License) Copyright 2022 Fonticons, Inc. --><path d="M48 0C21.5 0 0 21.5 0 48V368c0 26.5 21.5 48 48 48H64c0 53 43 96 96 96s96-43 96-96H384c0 53 43 96 96 96s96-43 96-96h32c17.7 0 32-14.3 32-32s-14.3-32-32-32V288 256 237.3c0-17-6.7-33.3-18.7-45.3L512 114.7c-12-12-28.3-18.7-45.3-18.7H416V48c0-26.5-21.5-48-48-48H48zM416 160h50.7L544 237.3V256H416V160zM208 416c0 26.5-21.5 48-48 48s-48-21.5-48-48s21.5-48 48-48s48 21.5 48 48zm272 48c-26.5 0-48-21.5-48-48s21.5-48 48-48s48 21.5 48 48s-21.5 48-48 48z"></path></svg>
</g>
    </svg>

    <g class="component-informations" stroke="none" fill="#474262" font-family="Source Sans Pro">
        <text class="component-name" font-size="10" text-anchor="middle" x="50%" y="62">truck</text>
        <text class="component-type" text-anchor="middle" font-size="8" x="50%" y="72">truck</text>
    </g>

    <svg class="component-container" overflow="visible" y="80" height="545" width="290" x="5">
        <rect class="container-background" width="100%" height="100%" rx="0" stroke="#817D98" stroke-dasharray="4 3" stroke-dashoffset="-3" fill="white" data-parentId="truck"></rect>
    <g id="group-truck"><g id="box" x="30" y="30" transform="translate(30,30)" class="component
        component-DefaultContainer
        box"><svg version="1.1" xmlns="http://www.w3.org/2000/svg" class="template" width="240" height="485" overflow="visible" id="svg-box">
    <rect class="component-background" stroke="#474262" fill="#FFFFFF" width="240" height="485" ry="4" rx="4"></rect>

    <svg x="50%" y="7" overflow="visible">
        <g class="component-icon" transform="translate(-22)"><svg xmlns="http://www.w3.org/2000/svg" viewBox="0 0 512 512" width="44" height="44"><!--! Font Awesome Pro 6.2.1 by @fontawesome - https://fontawesome.com License - https://fontawesome.com/license (Commercial License) Copyright 2022 Fonticons, Inc. --><path d="M32 32H480c17.7 0 32 14.3 32 32V96c0 17.7-14.3 32-32 32H32C14.3 128 0 113.7 0 96V64C0 46.3 14.3 32 32 32zm0 128H480V416c0 35.3-28.7 64-64 64H96c-35.3 0-64-28.7-64-64V160zm128 80c0 8.8 7.2 16 16 16H336c8.8 0 16-7.2 16-16s-7.2-16-16-16H176c-8.8 0-16 7.2-16 16z"></path></svg>
</g>
    </svg>

    <g class="component-informations" stroke="none" fill="#474262" font-family="Source Sans Pro">
        <text class="component-name" font-size="10" text-anchor="middle" x="50%" y="62">box</text>
        <text class="component-type" text-anchor="middle" font-size="8" x="50%" y="72">box</text>
    </g>

    <svg class="component-container" overflow="visible" y="80" height="400" width="230" x="5">
        <rect class="container-background" width="100%" height="100%" rx="0" stroke="#817D98" stroke-dasharray="4 3" stroke-dashoffset="-3" fill="white" data-parentId="box"></rect>
    <g id="group-box"><g id="envelope" x="30" y="30" transform="translate(30,30)" class="component
        component-DefaultContainer
        envelope"><svg version="1.1" xmlns="http://www.w3.org/2000/svg" class="template" width="180" height="340" overflow="visible" id="svg-envelope">
    <rect class="component-background" stroke="#474262" fill="#FFFFFF" width="180" height="340" ry="4" rx="4"></rect>

    <svg x="50%" y="7" overflow="visible">
        <g class="component-icon" transform="translate(-22)"><svg xmlns="http://www.w3.org/2000/svg" viewBox="0 0 512 512" width="44" height="44"><!--! Font Awesome Pro 6.2.1 by @fontawesome - https://fontawesome.com License - https://fontawesome.com/license (Commercial License) Copyright 2022 Fonticons, Inc. --><path d="M48 64C21.5 64 0 85.5 0 112c0 15.1 7.1 29.3 19.2 38.4L236.8 313.6c11.4 8.5 27 8.5 38.4 0L492.8 150.4c12.1-9.1 19.2-23.3 19.2-38.4c0-26.5-21.5-48-48-48H48zM0 176V384c0 35.3 28.7 64 64 64H448c35.3 0 64-28.7 64-64V176L294.4 339.2c-22.8 17.1-54 17.1-76.8 0L0 176z"></path></svg>
</g>
    </svg>

    <g class="component-informations" stroke="none" fill="#474262" font-family="Source Sans Pro">
        <text class="component-name" font-size="10" text-anchor="middle" x="50%" y="62">envelope</text>
        <text class="component-type" text-anchor="middle" font-size="8" x="50%" y="72">envelope</text>
    </g>

    <svg class="component-container" overflow="visible" y="80" height="255" width="170" x="5">
        <rect class="container-background" width="100%" height="100%" rx="0" stroke="#817D98" stroke-dasharray="4 3" stroke-dashoffset="-3" fill="white" data-parentId="envelope"></rect>
    <g id="group-envelope"><g id="paper" x="30" y="30" transform="translate(30,30)" class="component
        component-DefaultModel
        paper"><svg version="1.1" xmlns="http://www.w3.org/2000/svg" class="template" width="120" height="80" overflow="visible" id="svg-paper">
    <rect class="component-background" stroke="#474262" fill="#FFFFFF" width="100%" height="100%" ry="4" rx="4"></rect>

    <svg x="50%" y="50%" overflow="visible">
        <g class="component-icon" transform="translate(-22 -34)"><svg xmlns="http://www.w3.org/2000/svg" viewBox="0 0 384 512" width="44" height="44"><!--! Font Awesome Pro 6.2.1 by @fontawesome - https://fontawesome.com License - https://fontawesome.com/license (Commercial License) Copyright 2022 Fonticons, Inc. --><path d="M64 0C28.7 0 0 28.7 0 64V448c0 35.3 28.7 64 64 64H320c35.3 0 64-28.7 64-64V160H256c-17.7 0-32-14.3-32-32V0H64zM256 0V128H384L256 0zM112 256H272c8.8 0 16 7.2 16 16s-7.2 16-16 16H112c-8.8 0-16-7.2-16-16s7.2-16 16-16zm0 64H272c8.8 0 16 7.2 16 16s-7.2 16-16 16H112c-8.8 0-16-7.2-16-16s7.2-16 16-16zm0 64H272c8.8 0 16 7.2 16 16s-7.2 16-16 16H112c-8.8 0-16-7.2-16-16s7.2-16 16-16z"></path></svg>
</g>
    </svg>

    <svg width="100%" y="50%">
        <g class="component-informations" stroke="none" fill="#474262" font-family="Source Sans Pro" transform="translate(0 -40)">
            <text class="component-name" font-size="10" text-anchor="middle" x="50%" y="62">paper</text>
            <text class="component-type" text-anchor="middle" font-size="8" x="50%" y="72">paper</text>
        </g>
    </svg>

    <g class="anchors" stroke="#817D98" fill="#FFFFFF" opacity="1">
        <circle cx="50%" cy="0%" r="3" anchor="top"></circle>
        <circle cx="100%" cy="50%" r="3" anchor="right"></circle>
        <circle cx="50%" cy="100%" r="3" anchor="bottom"></circle>
        <circle cx="0%" cy="50%" r="3" anchor="left"></circle>
    </g>
</svg>
</g><g id="image" x="30" y="140" transform="translate(30,140)" class="component
        component-DefaultModel
        image"><svg version="1.1" xmlns="http://www.w3.org/2000/svg" class="template" width="120" height="80" overflow="visible" id="svg-image">
    <rect class="component-background" stroke="#474262" fill="#FFFFFF" width="100%" height="100%" ry="4" rx="4"></rect>

    <svg x="50%" y="50%" overflow="visible">
        <g class="component-icon" transform="translate(-22 -34)"><svg xmlns="http://www.w3.org/2000/svg" viewBox="0 0 512 512" width="44" height="44"><!--! Font Awesome Pro 6.2.1 by @fontawesome - https://fontawesome.com License - https://fontawesome.com/license (Commercial License) Copyright 2022 Fonticons, Inc. --><path d="M0 96C0 60.7 28.7 32 64 32H448c35.3 0 64 28.7 64 64V416c0 35.3-28.7 64-64 64H64c-35.3 0-64-28.7-64-64V96zM323.8 202.5c-4.5-6.6-11.9-10.5-19.8-10.5s-15.4 3.9-19.8 10.5l-87 127.6L170.7 297c-4.6-5.7-11.5-9-18.7-9s-14.2 3.3-18.7 9l-64 80c-5.8 7.2-6.9 17.1-2.9 25.4s12.4 13.6 21.6 13.6h96 32H424c8.9 0 17.1-4.9 21.2-12.8s3.6-17.4-1.4-24.7l-120-176zM112 192c26.5 0 48-21.5 48-48s-21.5-48-48-48s-48 21.5-48 48s21.5 48 48 48z"></path></svg>
</g>
    </svg>

    <svg width="100%" y="50%">
        <g class="component-informations" stroke="none" fill="#474262" font-family="Source Sans Pro" transform="translate(0 -40)">
            <text class="component-name" font-size="10" text-anchor="middle" x="50%" y="62">image</text>
            <text class="component-type" text-anchor="middle" font-size="8" x="50%" y="72">image</text>
        </g>
    </svg>

    <g class="anchors" stroke="#817D98" fill="#FFFFFF" opacity="1">
        <circle cx="50%" cy="0%" r="3" anchor="top"></circle>
        <circle cx="100%" cy="50%" r="3" anchor="right"></circle>
        <circle cx="50%" cy="100%" r="3" anchor="bottom"></circle>
        <circle cx="0%" cy="50%" r="3" anchor="left"></circle>
    </g>
</svg>
</g></g></svg>

    <g class="anchors" stroke="#817D98" fill="#FFFFFF" opacity="1">
        <circle cx="50%" cy="0%" r="3" anchor="top"></circle>
        <circle cx="100%" cy="50%" r="3" anchor="right"></circle>
        <circle cx="50%" cy="100%" r="3" anchor="bottom"></circle>
        <circle cx="0%" cy="50%" r="3" anchor="left"></circle>
    </g>
</svg>
</g></g></svg>

    <g class="anchors" stroke="#817D98" fill="#FFFFFF" opacity="1">
        <circle cx="50%" cy="0%" r="3" anchor="top"></circle>
        <circle cx="100%" cy="50%" r="3" anchor="right"></circle>
        <circle cx="50%" cy="100%" r="3" anchor="bottom"></circle>
        <circle cx="0%" cy="50%" r="3" anchor="left"></circle>
    </g>
</svg>
</g></g></svg>

    <g class="anchors" stroke="#817D98" fill="#FFFFFF" opacity="1">
        <circle cx="50%" cy="0%" r="3" anchor="top"></circle>
        <circle cx="100%" cy="50%" r="3" anchor="right"></circle>
        <circle cx="50%" cy="100%" r="3" anchor="bottom"></circle>
        <circle cx="0%" cy="50%" r="3" anchor="left"></circle>
    </g>
</svg>
</g></g></g><path class="link" d="M338.92202368091785,391.2132618751184C338.92202368091785,374.9680423801283,338.92202368091785,374.9680423801283,338.92202368091785,358.72282288513816" fill="none" stroke="black" stroke-width="2" stroke-dasharray="none" cursor="pointer"></path></svg>